%TF.GenerationSoftware,KiCad,Pcbnew,7.0.1*%
%TF.CreationDate,2023-11-12T22:26:15+01:00*%
%TF.ProjectId,pcbIOT,70636249-4f54-42e6-9b69-6361645f7063,rev?*%
%TF.SameCoordinates,Original*%
%TF.FileFunction,Legend,Top*%
%TF.FilePolarity,Positive*%
%FSLAX46Y46*%
G04 Gerber Fmt 4.6, Leading zero omitted, Abs format (unit mm)*
G04 Created by KiCad (PCBNEW 7.0.1) date 2023-11-12 22:26:15*
%MOMM*%
%LPD*%
G01*
G04 APERTURE LIST*
%ADD10C,0.150000*%
%ADD11C,0.120297*%
%ADD12C,0.254000*%
%ADD13C,0.120000*%
%ADD14C,0.200000*%
G04 APERTURE END LIST*
D10*
X128508095Y-88904666D02*
X129270000Y-88904666D01*
X124190095Y-89158666D02*
X124952000Y-89158666D01*
X124571047Y-89539619D02*
X124571047Y-88777714D01*
D11*
%TO.C,J6*%
X147159604Y-72131419D02*
X147159604Y-72475124D01*
X147159604Y-72475124D02*
X147136690Y-72543865D01*
X147136690Y-72543865D02*
X147090863Y-72589693D01*
X147090863Y-72589693D02*
X147022122Y-72612606D01*
X147022122Y-72612606D02*
X146976295Y-72612606D01*
X147594964Y-72131419D02*
X147503309Y-72131419D01*
X147503309Y-72131419D02*
X147457482Y-72154333D01*
X147457482Y-72154333D02*
X147434568Y-72177247D01*
X147434568Y-72177247D02*
X147388741Y-72245988D01*
X147388741Y-72245988D02*
X147365827Y-72337642D01*
X147365827Y-72337642D02*
X147365827Y-72520952D01*
X147365827Y-72520952D02*
X147388741Y-72566779D01*
X147388741Y-72566779D02*
X147411655Y-72589693D01*
X147411655Y-72589693D02*
X147457482Y-72612606D01*
X147457482Y-72612606D02*
X147549137Y-72612606D01*
X147549137Y-72612606D02*
X147594964Y-72589693D01*
X147594964Y-72589693D02*
X147617878Y-72566779D01*
X147617878Y-72566779D02*
X147640791Y-72520952D01*
X147640791Y-72520952D02*
X147640791Y-72406383D01*
X147640791Y-72406383D02*
X147617878Y-72360556D01*
X147617878Y-72360556D02*
X147594964Y-72337642D01*
X147594964Y-72337642D02*
X147549137Y-72314729D01*
X147549137Y-72314729D02*
X147457482Y-72314729D01*
X147457482Y-72314729D02*
X147411655Y-72337642D01*
X147411655Y-72337642D02*
X147388741Y-72360556D01*
X147388741Y-72360556D02*
X147365827Y-72406383D01*
D10*
%TO.C,C16*%
X151497380Y-65412857D02*
X151545000Y-65460476D01*
X151545000Y-65460476D02*
X151592619Y-65603333D01*
X151592619Y-65603333D02*
X151592619Y-65698571D01*
X151592619Y-65698571D02*
X151545000Y-65841428D01*
X151545000Y-65841428D02*
X151449761Y-65936666D01*
X151449761Y-65936666D02*
X151354523Y-65984285D01*
X151354523Y-65984285D02*
X151164047Y-66031904D01*
X151164047Y-66031904D02*
X151021190Y-66031904D01*
X151021190Y-66031904D02*
X150830714Y-65984285D01*
X150830714Y-65984285D02*
X150735476Y-65936666D01*
X150735476Y-65936666D02*
X150640238Y-65841428D01*
X150640238Y-65841428D02*
X150592619Y-65698571D01*
X150592619Y-65698571D02*
X150592619Y-65603333D01*
X150592619Y-65603333D02*
X150640238Y-65460476D01*
X150640238Y-65460476D02*
X150687857Y-65412857D01*
X151592619Y-64460476D02*
X151592619Y-65031904D01*
X151592619Y-64746190D02*
X150592619Y-64746190D01*
X150592619Y-64746190D02*
X150735476Y-64841428D01*
X150735476Y-64841428D02*
X150830714Y-64936666D01*
X150830714Y-64936666D02*
X150878333Y-65031904D01*
X150592619Y-63603333D02*
X150592619Y-63793809D01*
X150592619Y-63793809D02*
X150640238Y-63889047D01*
X150640238Y-63889047D02*
X150687857Y-63936666D01*
X150687857Y-63936666D02*
X150830714Y-64031904D01*
X150830714Y-64031904D02*
X151021190Y-64079523D01*
X151021190Y-64079523D02*
X151402142Y-64079523D01*
X151402142Y-64079523D02*
X151497380Y-64031904D01*
X151497380Y-64031904D02*
X151545000Y-63984285D01*
X151545000Y-63984285D02*
X151592619Y-63889047D01*
X151592619Y-63889047D02*
X151592619Y-63698571D01*
X151592619Y-63698571D02*
X151545000Y-63603333D01*
X151545000Y-63603333D02*
X151497380Y-63555714D01*
X151497380Y-63555714D02*
X151402142Y-63508095D01*
X151402142Y-63508095D02*
X151164047Y-63508095D01*
X151164047Y-63508095D02*
X151068809Y-63555714D01*
X151068809Y-63555714D02*
X151021190Y-63603333D01*
X151021190Y-63603333D02*
X150973571Y-63698571D01*
X150973571Y-63698571D02*
X150973571Y-63889047D01*
X150973571Y-63889047D02*
X151021190Y-63984285D01*
X151021190Y-63984285D02*
X151068809Y-64031904D01*
X151068809Y-64031904D02*
X151164047Y-64079523D01*
%TO.C,C8*%
X145883333Y-62089380D02*
X145835714Y-62137000D01*
X145835714Y-62137000D02*
X145692857Y-62184619D01*
X145692857Y-62184619D02*
X145597619Y-62184619D01*
X145597619Y-62184619D02*
X145454762Y-62137000D01*
X145454762Y-62137000D02*
X145359524Y-62041761D01*
X145359524Y-62041761D02*
X145311905Y-61946523D01*
X145311905Y-61946523D02*
X145264286Y-61756047D01*
X145264286Y-61756047D02*
X145264286Y-61613190D01*
X145264286Y-61613190D02*
X145311905Y-61422714D01*
X145311905Y-61422714D02*
X145359524Y-61327476D01*
X145359524Y-61327476D02*
X145454762Y-61232238D01*
X145454762Y-61232238D02*
X145597619Y-61184619D01*
X145597619Y-61184619D02*
X145692857Y-61184619D01*
X145692857Y-61184619D02*
X145835714Y-61232238D01*
X145835714Y-61232238D02*
X145883333Y-61279857D01*
X146454762Y-61613190D02*
X146359524Y-61565571D01*
X146359524Y-61565571D02*
X146311905Y-61517952D01*
X146311905Y-61517952D02*
X146264286Y-61422714D01*
X146264286Y-61422714D02*
X146264286Y-61375095D01*
X146264286Y-61375095D02*
X146311905Y-61279857D01*
X146311905Y-61279857D02*
X146359524Y-61232238D01*
X146359524Y-61232238D02*
X146454762Y-61184619D01*
X146454762Y-61184619D02*
X146645238Y-61184619D01*
X146645238Y-61184619D02*
X146740476Y-61232238D01*
X146740476Y-61232238D02*
X146788095Y-61279857D01*
X146788095Y-61279857D02*
X146835714Y-61375095D01*
X146835714Y-61375095D02*
X146835714Y-61422714D01*
X146835714Y-61422714D02*
X146788095Y-61517952D01*
X146788095Y-61517952D02*
X146740476Y-61565571D01*
X146740476Y-61565571D02*
X146645238Y-61613190D01*
X146645238Y-61613190D02*
X146454762Y-61613190D01*
X146454762Y-61613190D02*
X146359524Y-61660809D01*
X146359524Y-61660809D02*
X146311905Y-61708428D01*
X146311905Y-61708428D02*
X146264286Y-61803666D01*
X146264286Y-61803666D02*
X146264286Y-61994142D01*
X146264286Y-61994142D02*
X146311905Y-62089380D01*
X146311905Y-62089380D02*
X146359524Y-62137000D01*
X146359524Y-62137000D02*
X146454762Y-62184619D01*
X146454762Y-62184619D02*
X146645238Y-62184619D01*
X146645238Y-62184619D02*
X146740476Y-62137000D01*
X146740476Y-62137000D02*
X146788095Y-62089380D01*
X146788095Y-62089380D02*
X146835714Y-61994142D01*
X146835714Y-61994142D02*
X146835714Y-61803666D01*
X146835714Y-61803666D02*
X146788095Y-61708428D01*
X146788095Y-61708428D02*
X146740476Y-61660809D01*
X146740476Y-61660809D02*
X146645238Y-61613190D01*
D12*
%TO.C,IC1*%
X136936237Y-75009526D02*
X136936237Y-73739526D01*
X138266714Y-74888573D02*
X138206238Y-74949050D01*
X138206238Y-74949050D02*
X138024809Y-75009526D01*
X138024809Y-75009526D02*
X137903857Y-75009526D01*
X137903857Y-75009526D02*
X137722428Y-74949050D01*
X137722428Y-74949050D02*
X137601476Y-74828097D01*
X137601476Y-74828097D02*
X137540999Y-74707145D01*
X137540999Y-74707145D02*
X137480523Y-74465240D01*
X137480523Y-74465240D02*
X137480523Y-74283811D01*
X137480523Y-74283811D02*
X137540999Y-74041907D01*
X137540999Y-74041907D02*
X137601476Y-73920954D01*
X137601476Y-73920954D02*
X137722428Y-73800002D01*
X137722428Y-73800002D02*
X137903857Y-73739526D01*
X137903857Y-73739526D02*
X138024809Y-73739526D01*
X138024809Y-73739526D02*
X138206238Y-73800002D01*
X138206238Y-73800002D02*
X138266714Y-73860478D01*
X139476238Y-75009526D02*
X138750523Y-75009526D01*
X139113380Y-75009526D02*
X139113380Y-73739526D01*
X139113380Y-73739526D02*
X138992428Y-73920954D01*
X138992428Y-73920954D02*
X138871476Y-74041907D01*
X138871476Y-74041907D02*
X138750523Y-74102383D01*
D10*
%TO.C,L4*%
X142581333Y-72344619D02*
X142105143Y-72344619D01*
X142105143Y-72344619D02*
X142105143Y-71344619D01*
X143343238Y-71677952D02*
X143343238Y-72344619D01*
X143105143Y-71297000D02*
X142867048Y-72011285D01*
X142867048Y-72011285D02*
X143486095Y-72011285D01*
%TO.C,C6*%
X136355380Y-64428666D02*
X136403000Y-64476285D01*
X136403000Y-64476285D02*
X136450619Y-64619142D01*
X136450619Y-64619142D02*
X136450619Y-64714380D01*
X136450619Y-64714380D02*
X136403000Y-64857237D01*
X136403000Y-64857237D02*
X136307761Y-64952475D01*
X136307761Y-64952475D02*
X136212523Y-65000094D01*
X136212523Y-65000094D02*
X136022047Y-65047713D01*
X136022047Y-65047713D02*
X135879190Y-65047713D01*
X135879190Y-65047713D02*
X135688714Y-65000094D01*
X135688714Y-65000094D02*
X135593476Y-64952475D01*
X135593476Y-64952475D02*
X135498238Y-64857237D01*
X135498238Y-64857237D02*
X135450619Y-64714380D01*
X135450619Y-64714380D02*
X135450619Y-64619142D01*
X135450619Y-64619142D02*
X135498238Y-64476285D01*
X135498238Y-64476285D02*
X135545857Y-64428666D01*
X135450619Y-63571523D02*
X135450619Y-63761999D01*
X135450619Y-63761999D02*
X135498238Y-63857237D01*
X135498238Y-63857237D02*
X135545857Y-63904856D01*
X135545857Y-63904856D02*
X135688714Y-64000094D01*
X135688714Y-64000094D02*
X135879190Y-64047713D01*
X135879190Y-64047713D02*
X136260142Y-64047713D01*
X136260142Y-64047713D02*
X136355380Y-64000094D01*
X136355380Y-64000094D02*
X136403000Y-63952475D01*
X136403000Y-63952475D02*
X136450619Y-63857237D01*
X136450619Y-63857237D02*
X136450619Y-63666761D01*
X136450619Y-63666761D02*
X136403000Y-63571523D01*
X136403000Y-63571523D02*
X136355380Y-63523904D01*
X136355380Y-63523904D02*
X136260142Y-63476285D01*
X136260142Y-63476285D02*
X136022047Y-63476285D01*
X136022047Y-63476285D02*
X135926809Y-63523904D01*
X135926809Y-63523904D02*
X135879190Y-63571523D01*
X135879190Y-63571523D02*
X135831571Y-63666761D01*
X135831571Y-63666761D02*
X135831571Y-63857237D01*
X135831571Y-63857237D02*
X135879190Y-63952475D01*
X135879190Y-63952475D02*
X135926809Y-64000094D01*
X135926809Y-64000094D02*
X136022047Y-64047713D01*
%TO.C,C1*%
X126833333Y-81295380D02*
X126785714Y-81343000D01*
X126785714Y-81343000D02*
X126642857Y-81390619D01*
X126642857Y-81390619D02*
X126547619Y-81390619D01*
X126547619Y-81390619D02*
X126404762Y-81343000D01*
X126404762Y-81343000D02*
X126309524Y-81247761D01*
X126309524Y-81247761D02*
X126261905Y-81152523D01*
X126261905Y-81152523D02*
X126214286Y-80962047D01*
X126214286Y-80962047D02*
X126214286Y-80819190D01*
X126214286Y-80819190D02*
X126261905Y-80628714D01*
X126261905Y-80628714D02*
X126309524Y-80533476D01*
X126309524Y-80533476D02*
X126404762Y-80438238D01*
X126404762Y-80438238D02*
X126547619Y-80390619D01*
X126547619Y-80390619D02*
X126642857Y-80390619D01*
X126642857Y-80390619D02*
X126785714Y-80438238D01*
X126785714Y-80438238D02*
X126833333Y-80485857D01*
X127785714Y-81390619D02*
X127214286Y-81390619D01*
X127500000Y-81390619D02*
X127500000Y-80390619D01*
X127500000Y-80390619D02*
X127404762Y-80533476D01*
X127404762Y-80533476D02*
X127309524Y-80628714D01*
X127309524Y-80628714D02*
X127214286Y-80676333D01*
%TO.C,C2*%
X119721333Y-72503380D02*
X119673714Y-72551000D01*
X119673714Y-72551000D02*
X119530857Y-72598619D01*
X119530857Y-72598619D02*
X119435619Y-72598619D01*
X119435619Y-72598619D02*
X119292762Y-72551000D01*
X119292762Y-72551000D02*
X119197524Y-72455761D01*
X119197524Y-72455761D02*
X119149905Y-72360523D01*
X119149905Y-72360523D02*
X119102286Y-72170047D01*
X119102286Y-72170047D02*
X119102286Y-72027190D01*
X119102286Y-72027190D02*
X119149905Y-71836714D01*
X119149905Y-71836714D02*
X119197524Y-71741476D01*
X119197524Y-71741476D02*
X119292762Y-71646238D01*
X119292762Y-71646238D02*
X119435619Y-71598619D01*
X119435619Y-71598619D02*
X119530857Y-71598619D01*
X119530857Y-71598619D02*
X119673714Y-71646238D01*
X119673714Y-71646238D02*
X119721333Y-71693857D01*
X120102286Y-71693857D02*
X120149905Y-71646238D01*
X120149905Y-71646238D02*
X120245143Y-71598619D01*
X120245143Y-71598619D02*
X120483238Y-71598619D01*
X120483238Y-71598619D02*
X120578476Y-71646238D01*
X120578476Y-71646238D02*
X120626095Y-71693857D01*
X120626095Y-71693857D02*
X120673714Y-71789095D01*
X120673714Y-71789095D02*
X120673714Y-71884333D01*
X120673714Y-71884333D02*
X120626095Y-72027190D01*
X120626095Y-72027190D02*
X120054667Y-72598619D01*
X120054667Y-72598619D02*
X120673714Y-72598619D01*
%TO.C,J5*%
X125930619Y-60023333D02*
X126644904Y-60023333D01*
X126644904Y-60023333D02*
X126787761Y-60070952D01*
X126787761Y-60070952D02*
X126883000Y-60166190D01*
X126883000Y-60166190D02*
X126930619Y-60309047D01*
X126930619Y-60309047D02*
X126930619Y-60404285D01*
X125930619Y-59070952D02*
X125930619Y-59547142D01*
X125930619Y-59547142D02*
X126406809Y-59594761D01*
X126406809Y-59594761D02*
X126359190Y-59547142D01*
X126359190Y-59547142D02*
X126311571Y-59451904D01*
X126311571Y-59451904D02*
X126311571Y-59213809D01*
X126311571Y-59213809D02*
X126359190Y-59118571D01*
X126359190Y-59118571D02*
X126406809Y-59070952D01*
X126406809Y-59070952D02*
X126502047Y-59023333D01*
X126502047Y-59023333D02*
X126740142Y-59023333D01*
X126740142Y-59023333D02*
X126835380Y-59070952D01*
X126835380Y-59070952D02*
X126883000Y-59118571D01*
X126883000Y-59118571D02*
X126930619Y-59213809D01*
X126930619Y-59213809D02*
X126930619Y-59451904D01*
X126930619Y-59451904D02*
X126883000Y-59547142D01*
X126883000Y-59547142D02*
X126835380Y-59594761D01*
D12*
%TO.C,IC2*%
X128997439Y-76348702D02*
X127727439Y-76348702D01*
X128876486Y-75018225D02*
X128936963Y-75078701D01*
X128936963Y-75078701D02*
X128997439Y-75260130D01*
X128997439Y-75260130D02*
X128997439Y-75381082D01*
X128997439Y-75381082D02*
X128936963Y-75562511D01*
X128936963Y-75562511D02*
X128816010Y-75683463D01*
X128816010Y-75683463D02*
X128695058Y-75743940D01*
X128695058Y-75743940D02*
X128453153Y-75804416D01*
X128453153Y-75804416D02*
X128271724Y-75804416D01*
X128271724Y-75804416D02*
X128029820Y-75743940D01*
X128029820Y-75743940D02*
X127908867Y-75683463D01*
X127908867Y-75683463D02*
X127787915Y-75562511D01*
X127787915Y-75562511D02*
X127727439Y-75381082D01*
X127727439Y-75381082D02*
X127727439Y-75260130D01*
X127727439Y-75260130D02*
X127787915Y-75078701D01*
X127787915Y-75078701D02*
X127848391Y-75018225D01*
X127848391Y-74534416D02*
X127787915Y-74473940D01*
X127787915Y-74473940D02*
X127727439Y-74352987D01*
X127727439Y-74352987D02*
X127727439Y-74050606D01*
X127727439Y-74050606D02*
X127787915Y-73929654D01*
X127787915Y-73929654D02*
X127848391Y-73869178D01*
X127848391Y-73869178D02*
X127969343Y-73808701D01*
X127969343Y-73808701D02*
X128090296Y-73808701D01*
X128090296Y-73808701D02*
X128271724Y-73869178D01*
X128271724Y-73869178D02*
X128997439Y-74594892D01*
X128997439Y-74594892D02*
X128997439Y-73808701D01*
D10*
%TO.C,J1*%
X126412666Y-88764619D02*
X126412666Y-89478904D01*
X126412666Y-89478904D02*
X126365047Y-89621761D01*
X126365047Y-89621761D02*
X126269809Y-89717000D01*
X126269809Y-89717000D02*
X126126952Y-89764619D01*
X126126952Y-89764619D02*
X126031714Y-89764619D01*
X127412666Y-89764619D02*
X126841238Y-89764619D01*
X127126952Y-89764619D02*
X127126952Y-88764619D01*
X127126952Y-88764619D02*
X127031714Y-88907476D01*
X127031714Y-88907476D02*
X126936476Y-89002714D01*
X126936476Y-89002714D02*
X126841238Y-89050333D01*
D12*
%TO.C,L3*%
X130889526Y-57869666D02*
X130889526Y-58474428D01*
X130889526Y-58474428D02*
X129619526Y-58474428D01*
X129619526Y-57567285D02*
X129619526Y-56781094D01*
X129619526Y-56781094D02*
X130103335Y-57204428D01*
X130103335Y-57204428D02*
X130103335Y-57022999D01*
X130103335Y-57022999D02*
X130163811Y-56902047D01*
X130163811Y-56902047D02*
X130224288Y-56841571D01*
X130224288Y-56841571D02*
X130345240Y-56781094D01*
X130345240Y-56781094D02*
X130647621Y-56781094D01*
X130647621Y-56781094D02*
X130768573Y-56841571D01*
X130768573Y-56841571D02*
X130829050Y-56902047D01*
X130829050Y-56902047D02*
X130889526Y-57022999D01*
X130889526Y-57022999D02*
X130889526Y-57385856D01*
X130889526Y-57385856D02*
X130829050Y-57506809D01*
X130829050Y-57506809D02*
X130768573Y-57567285D01*
D10*
%TO.C,C13*%
X137527380Y-58300857D02*
X137575000Y-58348476D01*
X137575000Y-58348476D02*
X137622619Y-58491333D01*
X137622619Y-58491333D02*
X137622619Y-58586571D01*
X137622619Y-58586571D02*
X137575000Y-58729428D01*
X137575000Y-58729428D02*
X137479761Y-58824666D01*
X137479761Y-58824666D02*
X137384523Y-58872285D01*
X137384523Y-58872285D02*
X137194047Y-58919904D01*
X137194047Y-58919904D02*
X137051190Y-58919904D01*
X137051190Y-58919904D02*
X136860714Y-58872285D01*
X136860714Y-58872285D02*
X136765476Y-58824666D01*
X136765476Y-58824666D02*
X136670238Y-58729428D01*
X136670238Y-58729428D02*
X136622619Y-58586571D01*
X136622619Y-58586571D02*
X136622619Y-58491333D01*
X136622619Y-58491333D02*
X136670238Y-58348476D01*
X136670238Y-58348476D02*
X136717857Y-58300857D01*
X137622619Y-57348476D02*
X137622619Y-57919904D01*
X137622619Y-57634190D02*
X136622619Y-57634190D01*
X136622619Y-57634190D02*
X136765476Y-57729428D01*
X136765476Y-57729428D02*
X136860714Y-57824666D01*
X136860714Y-57824666D02*
X136908333Y-57919904D01*
X136622619Y-57015142D02*
X136622619Y-56396095D01*
X136622619Y-56396095D02*
X137003571Y-56729428D01*
X137003571Y-56729428D02*
X137003571Y-56586571D01*
X137003571Y-56586571D02*
X137051190Y-56491333D01*
X137051190Y-56491333D02*
X137098809Y-56443714D01*
X137098809Y-56443714D02*
X137194047Y-56396095D01*
X137194047Y-56396095D02*
X137432142Y-56396095D01*
X137432142Y-56396095D02*
X137527380Y-56443714D01*
X137527380Y-56443714D02*
X137575000Y-56491333D01*
X137575000Y-56491333D02*
X137622619Y-56586571D01*
X137622619Y-56586571D02*
X137622619Y-56872285D01*
X137622619Y-56872285D02*
X137575000Y-56967523D01*
X137575000Y-56967523D02*
X137527380Y-57015142D01*
%TO.C,R3*%
X143851333Y-56850619D02*
X143518000Y-56374428D01*
X143279905Y-56850619D02*
X143279905Y-55850619D01*
X143279905Y-55850619D02*
X143660857Y-55850619D01*
X143660857Y-55850619D02*
X143756095Y-55898238D01*
X143756095Y-55898238D02*
X143803714Y-55945857D01*
X143803714Y-55945857D02*
X143851333Y-56041095D01*
X143851333Y-56041095D02*
X143851333Y-56183952D01*
X143851333Y-56183952D02*
X143803714Y-56279190D01*
X143803714Y-56279190D02*
X143756095Y-56326809D01*
X143756095Y-56326809D02*
X143660857Y-56374428D01*
X143660857Y-56374428D02*
X143279905Y-56374428D01*
X144184667Y-55850619D02*
X144803714Y-55850619D01*
X144803714Y-55850619D02*
X144470381Y-56231571D01*
X144470381Y-56231571D02*
X144613238Y-56231571D01*
X144613238Y-56231571D02*
X144708476Y-56279190D01*
X144708476Y-56279190D02*
X144756095Y-56326809D01*
X144756095Y-56326809D02*
X144803714Y-56422047D01*
X144803714Y-56422047D02*
X144803714Y-56660142D01*
X144803714Y-56660142D02*
X144756095Y-56755380D01*
X144756095Y-56755380D02*
X144708476Y-56803000D01*
X144708476Y-56803000D02*
X144613238Y-56850619D01*
X144613238Y-56850619D02*
X144327524Y-56850619D01*
X144327524Y-56850619D02*
X144232286Y-56803000D01*
X144232286Y-56803000D02*
X144184667Y-56755380D01*
%TO.C,C7*%
X132701380Y-57443666D02*
X132749000Y-57491285D01*
X132749000Y-57491285D02*
X132796619Y-57634142D01*
X132796619Y-57634142D02*
X132796619Y-57729380D01*
X132796619Y-57729380D02*
X132749000Y-57872237D01*
X132749000Y-57872237D02*
X132653761Y-57967475D01*
X132653761Y-57967475D02*
X132558523Y-58015094D01*
X132558523Y-58015094D02*
X132368047Y-58062713D01*
X132368047Y-58062713D02*
X132225190Y-58062713D01*
X132225190Y-58062713D02*
X132034714Y-58015094D01*
X132034714Y-58015094D02*
X131939476Y-57967475D01*
X131939476Y-57967475D02*
X131844238Y-57872237D01*
X131844238Y-57872237D02*
X131796619Y-57729380D01*
X131796619Y-57729380D02*
X131796619Y-57634142D01*
X131796619Y-57634142D02*
X131844238Y-57491285D01*
X131844238Y-57491285D02*
X131891857Y-57443666D01*
X131796619Y-57110332D02*
X131796619Y-56443666D01*
X131796619Y-56443666D02*
X132796619Y-56872237D01*
%TO.C,C15*%
X121277142Y-66407380D02*
X121229523Y-66455000D01*
X121229523Y-66455000D02*
X121086666Y-66502619D01*
X121086666Y-66502619D02*
X120991428Y-66502619D01*
X120991428Y-66502619D02*
X120848571Y-66455000D01*
X120848571Y-66455000D02*
X120753333Y-66359761D01*
X120753333Y-66359761D02*
X120705714Y-66264523D01*
X120705714Y-66264523D02*
X120658095Y-66074047D01*
X120658095Y-66074047D02*
X120658095Y-65931190D01*
X120658095Y-65931190D02*
X120705714Y-65740714D01*
X120705714Y-65740714D02*
X120753333Y-65645476D01*
X120753333Y-65645476D02*
X120848571Y-65550238D01*
X120848571Y-65550238D02*
X120991428Y-65502619D01*
X120991428Y-65502619D02*
X121086666Y-65502619D01*
X121086666Y-65502619D02*
X121229523Y-65550238D01*
X121229523Y-65550238D02*
X121277142Y-65597857D01*
X122229523Y-66502619D02*
X121658095Y-66502619D01*
X121943809Y-66502619D02*
X121943809Y-65502619D01*
X121943809Y-65502619D02*
X121848571Y-65645476D01*
X121848571Y-65645476D02*
X121753333Y-65740714D01*
X121753333Y-65740714D02*
X121658095Y-65788333D01*
X123134285Y-65502619D02*
X122658095Y-65502619D01*
X122658095Y-65502619D02*
X122610476Y-65978809D01*
X122610476Y-65978809D02*
X122658095Y-65931190D01*
X122658095Y-65931190D02*
X122753333Y-65883571D01*
X122753333Y-65883571D02*
X122991428Y-65883571D01*
X122991428Y-65883571D02*
X123086666Y-65931190D01*
X123086666Y-65931190D02*
X123134285Y-65978809D01*
X123134285Y-65978809D02*
X123181904Y-66074047D01*
X123181904Y-66074047D02*
X123181904Y-66312142D01*
X123181904Y-66312142D02*
X123134285Y-66407380D01*
X123134285Y-66407380D02*
X123086666Y-66455000D01*
X123086666Y-66455000D02*
X122991428Y-66502619D01*
X122991428Y-66502619D02*
X122753333Y-66502619D01*
X122753333Y-66502619D02*
X122658095Y-66455000D01*
X122658095Y-66455000D02*
X122610476Y-66407380D01*
%TO.C,J4*%
X117268666Y-68804619D02*
X117268666Y-69518904D01*
X117268666Y-69518904D02*
X117221047Y-69661761D01*
X117221047Y-69661761D02*
X117125809Y-69757000D01*
X117125809Y-69757000D02*
X116982952Y-69804619D01*
X116982952Y-69804619D02*
X116887714Y-69804619D01*
X118173428Y-69137952D02*
X118173428Y-69804619D01*
X117935333Y-68757000D02*
X117697238Y-69471285D01*
X117697238Y-69471285D02*
X118316285Y-69471285D01*
D12*
%TO.C,Debug_in1*%
X143335526Y-86353953D02*
X142065526Y-86353953D01*
X142065526Y-86353953D02*
X142065526Y-86051572D01*
X142065526Y-86051572D02*
X142126002Y-85870143D01*
X142126002Y-85870143D02*
X142246954Y-85749191D01*
X142246954Y-85749191D02*
X142367907Y-85688714D01*
X142367907Y-85688714D02*
X142609811Y-85628238D01*
X142609811Y-85628238D02*
X142791240Y-85628238D01*
X142791240Y-85628238D02*
X143033145Y-85688714D01*
X143033145Y-85688714D02*
X143154097Y-85749191D01*
X143154097Y-85749191D02*
X143275050Y-85870143D01*
X143275050Y-85870143D02*
X143335526Y-86051572D01*
X143335526Y-86051572D02*
X143335526Y-86353953D01*
X143275050Y-84600143D02*
X143335526Y-84721095D01*
X143335526Y-84721095D02*
X143335526Y-84963000D01*
X143335526Y-84963000D02*
X143275050Y-85083953D01*
X143275050Y-85083953D02*
X143154097Y-85144429D01*
X143154097Y-85144429D02*
X142670288Y-85144429D01*
X142670288Y-85144429D02*
X142549335Y-85083953D01*
X142549335Y-85083953D02*
X142488859Y-84963000D01*
X142488859Y-84963000D02*
X142488859Y-84721095D01*
X142488859Y-84721095D02*
X142549335Y-84600143D01*
X142549335Y-84600143D02*
X142670288Y-84539667D01*
X142670288Y-84539667D02*
X142791240Y-84539667D01*
X142791240Y-84539667D02*
X142912192Y-85144429D01*
X143335526Y-83995382D02*
X142065526Y-83995382D01*
X142549335Y-83995382D02*
X142488859Y-83874429D01*
X142488859Y-83874429D02*
X142488859Y-83632524D01*
X142488859Y-83632524D02*
X142549335Y-83511572D01*
X142549335Y-83511572D02*
X142609811Y-83451096D01*
X142609811Y-83451096D02*
X142730764Y-83390620D01*
X142730764Y-83390620D02*
X143093621Y-83390620D01*
X143093621Y-83390620D02*
X143214573Y-83451096D01*
X143214573Y-83451096D02*
X143275050Y-83511572D01*
X143275050Y-83511572D02*
X143335526Y-83632524D01*
X143335526Y-83632524D02*
X143335526Y-83874429D01*
X143335526Y-83874429D02*
X143275050Y-83995382D01*
X142488859Y-82302048D02*
X143335526Y-82302048D01*
X142488859Y-82846334D02*
X143154097Y-82846334D01*
X143154097Y-82846334D02*
X143275050Y-82785857D01*
X143275050Y-82785857D02*
X143335526Y-82664905D01*
X143335526Y-82664905D02*
X143335526Y-82483476D01*
X143335526Y-82483476D02*
X143275050Y-82362524D01*
X143275050Y-82362524D02*
X143214573Y-82302048D01*
X142488859Y-81153000D02*
X143516954Y-81153000D01*
X143516954Y-81153000D02*
X143637907Y-81213476D01*
X143637907Y-81213476D02*
X143698383Y-81273952D01*
X143698383Y-81273952D02*
X143758859Y-81394905D01*
X143758859Y-81394905D02*
X143758859Y-81576333D01*
X143758859Y-81576333D02*
X143698383Y-81697286D01*
X143275050Y-81153000D02*
X143335526Y-81273952D01*
X143335526Y-81273952D02*
X143335526Y-81515857D01*
X143335526Y-81515857D02*
X143275050Y-81636809D01*
X143275050Y-81636809D02*
X143214573Y-81697286D01*
X143214573Y-81697286D02*
X143093621Y-81757762D01*
X143093621Y-81757762D02*
X142730764Y-81757762D01*
X142730764Y-81757762D02*
X142609811Y-81697286D01*
X142609811Y-81697286D02*
X142549335Y-81636809D01*
X142549335Y-81636809D02*
X142488859Y-81515857D01*
X142488859Y-81515857D02*
X142488859Y-81273952D01*
X142488859Y-81273952D02*
X142549335Y-81153000D01*
X143456478Y-80850619D02*
X143456478Y-79882999D01*
X143335526Y-79580619D02*
X142488859Y-79580619D01*
X142065526Y-79580619D02*
X142126002Y-79641095D01*
X142126002Y-79641095D02*
X142186478Y-79580619D01*
X142186478Y-79580619D02*
X142126002Y-79520142D01*
X142126002Y-79520142D02*
X142065526Y-79580619D01*
X142065526Y-79580619D02*
X142186478Y-79580619D01*
X142488859Y-78975857D02*
X143335526Y-78975857D01*
X142609811Y-78975857D02*
X142549335Y-78915380D01*
X142549335Y-78915380D02*
X142488859Y-78794428D01*
X142488859Y-78794428D02*
X142488859Y-78612999D01*
X142488859Y-78612999D02*
X142549335Y-78492047D01*
X142549335Y-78492047D02*
X142670288Y-78431571D01*
X142670288Y-78431571D02*
X143335526Y-78431571D01*
X143335526Y-77161570D02*
X143335526Y-77887285D01*
X143335526Y-77524428D02*
X142065526Y-77524428D01*
X142065526Y-77524428D02*
X142246954Y-77645380D01*
X142246954Y-77645380D02*
X142367907Y-77766332D01*
X142367907Y-77766332D02*
X142428383Y-77887285D01*
%TO.C,X1*%
X143628444Y-67405843D02*
X144475111Y-68675843D01*
X144475111Y-67405843D02*
X143628444Y-68675843D01*
X145624159Y-68675843D02*
X144898444Y-68675843D01*
X145261301Y-68675843D02*
X145261301Y-67405843D01*
X145261301Y-67405843D02*
X145140349Y-67587271D01*
X145140349Y-67587271D02*
X145019397Y-67708224D01*
X145019397Y-67708224D02*
X144898444Y-67768700D01*
D10*
%TO.C,R1*%
X122769333Y-81360619D02*
X122436000Y-80884428D01*
X122197905Y-81360619D02*
X122197905Y-80360619D01*
X122197905Y-80360619D02*
X122578857Y-80360619D01*
X122578857Y-80360619D02*
X122674095Y-80408238D01*
X122674095Y-80408238D02*
X122721714Y-80455857D01*
X122721714Y-80455857D02*
X122769333Y-80551095D01*
X122769333Y-80551095D02*
X122769333Y-80693952D01*
X122769333Y-80693952D02*
X122721714Y-80789190D01*
X122721714Y-80789190D02*
X122674095Y-80836809D01*
X122674095Y-80836809D02*
X122578857Y-80884428D01*
X122578857Y-80884428D02*
X122197905Y-80884428D01*
X123721714Y-81360619D02*
X123150286Y-81360619D01*
X123436000Y-81360619D02*
X123436000Y-80360619D01*
X123436000Y-80360619D02*
X123340762Y-80503476D01*
X123340762Y-80503476D02*
X123245524Y-80598714D01*
X123245524Y-80598714D02*
X123150286Y-80646333D01*
%TO.C,C9*%
X145883333Y-59803380D02*
X145835714Y-59851000D01*
X145835714Y-59851000D02*
X145692857Y-59898619D01*
X145692857Y-59898619D02*
X145597619Y-59898619D01*
X145597619Y-59898619D02*
X145454762Y-59851000D01*
X145454762Y-59851000D02*
X145359524Y-59755761D01*
X145359524Y-59755761D02*
X145311905Y-59660523D01*
X145311905Y-59660523D02*
X145264286Y-59470047D01*
X145264286Y-59470047D02*
X145264286Y-59327190D01*
X145264286Y-59327190D02*
X145311905Y-59136714D01*
X145311905Y-59136714D02*
X145359524Y-59041476D01*
X145359524Y-59041476D02*
X145454762Y-58946238D01*
X145454762Y-58946238D02*
X145597619Y-58898619D01*
X145597619Y-58898619D02*
X145692857Y-58898619D01*
X145692857Y-58898619D02*
X145835714Y-58946238D01*
X145835714Y-58946238D02*
X145883333Y-58993857D01*
X146359524Y-59898619D02*
X146550000Y-59898619D01*
X146550000Y-59898619D02*
X146645238Y-59851000D01*
X146645238Y-59851000D02*
X146692857Y-59803380D01*
X146692857Y-59803380D02*
X146788095Y-59660523D01*
X146788095Y-59660523D02*
X146835714Y-59470047D01*
X146835714Y-59470047D02*
X146835714Y-59089095D01*
X146835714Y-59089095D02*
X146788095Y-58993857D01*
X146788095Y-58993857D02*
X146740476Y-58946238D01*
X146740476Y-58946238D02*
X146645238Y-58898619D01*
X146645238Y-58898619D02*
X146454762Y-58898619D01*
X146454762Y-58898619D02*
X146359524Y-58946238D01*
X146359524Y-58946238D02*
X146311905Y-58993857D01*
X146311905Y-58993857D02*
X146264286Y-59089095D01*
X146264286Y-59089095D02*
X146264286Y-59327190D01*
X146264286Y-59327190D02*
X146311905Y-59422428D01*
X146311905Y-59422428D02*
X146359524Y-59470047D01*
X146359524Y-59470047D02*
X146454762Y-59517666D01*
X146454762Y-59517666D02*
X146645238Y-59517666D01*
X146645238Y-59517666D02*
X146740476Y-59470047D01*
X146740476Y-59470047D02*
X146788095Y-59422428D01*
X146788095Y-59422428D02*
X146835714Y-59327190D01*
%TO.C,L1*%
X118572619Y-75604666D02*
X118572619Y-76080856D01*
X118572619Y-76080856D02*
X117572619Y-76080856D01*
X118572619Y-74747523D02*
X118572619Y-75318951D01*
X118572619Y-75033237D02*
X117572619Y-75033237D01*
X117572619Y-75033237D02*
X117715476Y-75128475D01*
X117715476Y-75128475D02*
X117810714Y-75223713D01*
X117810714Y-75223713D02*
X117858333Y-75318951D01*
%TO.C,C12*%
X134733380Y-57538857D02*
X134781000Y-57586476D01*
X134781000Y-57586476D02*
X134828619Y-57729333D01*
X134828619Y-57729333D02*
X134828619Y-57824571D01*
X134828619Y-57824571D02*
X134781000Y-57967428D01*
X134781000Y-57967428D02*
X134685761Y-58062666D01*
X134685761Y-58062666D02*
X134590523Y-58110285D01*
X134590523Y-58110285D02*
X134400047Y-58157904D01*
X134400047Y-58157904D02*
X134257190Y-58157904D01*
X134257190Y-58157904D02*
X134066714Y-58110285D01*
X134066714Y-58110285D02*
X133971476Y-58062666D01*
X133971476Y-58062666D02*
X133876238Y-57967428D01*
X133876238Y-57967428D02*
X133828619Y-57824571D01*
X133828619Y-57824571D02*
X133828619Y-57729333D01*
X133828619Y-57729333D02*
X133876238Y-57586476D01*
X133876238Y-57586476D02*
X133923857Y-57538857D01*
X134828619Y-56586476D02*
X134828619Y-57157904D01*
X134828619Y-56872190D02*
X133828619Y-56872190D01*
X133828619Y-56872190D02*
X133971476Y-56967428D01*
X133971476Y-56967428D02*
X134066714Y-57062666D01*
X134066714Y-57062666D02*
X134114333Y-57157904D01*
X133923857Y-56205523D02*
X133876238Y-56157904D01*
X133876238Y-56157904D02*
X133828619Y-56062666D01*
X133828619Y-56062666D02*
X133828619Y-55824571D01*
X133828619Y-55824571D02*
X133876238Y-55729333D01*
X133876238Y-55729333D02*
X133923857Y-55681714D01*
X133923857Y-55681714D02*
X134019095Y-55634095D01*
X134019095Y-55634095D02*
X134114333Y-55634095D01*
X134114333Y-55634095D02*
X134257190Y-55681714D01*
X134257190Y-55681714D02*
X134828619Y-56253142D01*
X134828619Y-56253142D02*
X134828619Y-55634095D01*
%TO.C,C10*%
X146573380Y-65920857D02*
X146621000Y-65968476D01*
X146621000Y-65968476D02*
X146668619Y-66111333D01*
X146668619Y-66111333D02*
X146668619Y-66206571D01*
X146668619Y-66206571D02*
X146621000Y-66349428D01*
X146621000Y-66349428D02*
X146525761Y-66444666D01*
X146525761Y-66444666D02*
X146430523Y-66492285D01*
X146430523Y-66492285D02*
X146240047Y-66539904D01*
X146240047Y-66539904D02*
X146097190Y-66539904D01*
X146097190Y-66539904D02*
X145906714Y-66492285D01*
X145906714Y-66492285D02*
X145811476Y-66444666D01*
X145811476Y-66444666D02*
X145716238Y-66349428D01*
X145716238Y-66349428D02*
X145668619Y-66206571D01*
X145668619Y-66206571D02*
X145668619Y-66111333D01*
X145668619Y-66111333D02*
X145716238Y-65968476D01*
X145716238Y-65968476D02*
X145763857Y-65920857D01*
X146668619Y-64968476D02*
X146668619Y-65539904D01*
X146668619Y-65254190D02*
X145668619Y-65254190D01*
X145668619Y-65254190D02*
X145811476Y-65349428D01*
X145811476Y-65349428D02*
X145906714Y-65444666D01*
X145906714Y-65444666D02*
X145954333Y-65539904D01*
X145668619Y-64349428D02*
X145668619Y-64254190D01*
X145668619Y-64254190D02*
X145716238Y-64158952D01*
X145716238Y-64158952D02*
X145763857Y-64111333D01*
X145763857Y-64111333D02*
X145859095Y-64063714D01*
X145859095Y-64063714D02*
X146049571Y-64016095D01*
X146049571Y-64016095D02*
X146287666Y-64016095D01*
X146287666Y-64016095D02*
X146478142Y-64063714D01*
X146478142Y-64063714D02*
X146573380Y-64111333D01*
X146573380Y-64111333D02*
X146621000Y-64158952D01*
X146621000Y-64158952D02*
X146668619Y-64254190D01*
X146668619Y-64254190D02*
X146668619Y-64349428D01*
X146668619Y-64349428D02*
X146621000Y-64444666D01*
X146621000Y-64444666D02*
X146573380Y-64492285D01*
X146573380Y-64492285D02*
X146478142Y-64539904D01*
X146478142Y-64539904D02*
X146287666Y-64587523D01*
X146287666Y-64587523D02*
X146049571Y-64587523D01*
X146049571Y-64587523D02*
X145859095Y-64539904D01*
X145859095Y-64539904D02*
X145763857Y-64492285D01*
X145763857Y-64492285D02*
X145716238Y-64444666D01*
X145716238Y-64444666D02*
X145668619Y-64349428D01*
%TO.C,AE1*%
X157995904Y-66444666D02*
X157995904Y-65968476D01*
X158281619Y-66539904D02*
X157281619Y-66206571D01*
X157281619Y-66206571D02*
X158281619Y-65873238D01*
X157757809Y-65539904D02*
X157757809Y-65206571D01*
X158281619Y-65063714D02*
X158281619Y-65539904D01*
X158281619Y-65539904D02*
X157281619Y-65539904D01*
X157281619Y-65539904D02*
X157281619Y-65063714D01*
X158281619Y-64111333D02*
X158281619Y-64682761D01*
X158281619Y-64397047D02*
X157281619Y-64397047D01*
X157281619Y-64397047D02*
X157424476Y-64492285D01*
X157424476Y-64492285D02*
X157519714Y-64587523D01*
X157519714Y-64587523D02*
X157567333Y-64682761D01*
%TO.C,C11*%
X140581142Y-74027380D02*
X140533523Y-74075000D01*
X140533523Y-74075000D02*
X140390666Y-74122619D01*
X140390666Y-74122619D02*
X140295428Y-74122619D01*
X140295428Y-74122619D02*
X140152571Y-74075000D01*
X140152571Y-74075000D02*
X140057333Y-73979761D01*
X140057333Y-73979761D02*
X140009714Y-73884523D01*
X140009714Y-73884523D02*
X139962095Y-73694047D01*
X139962095Y-73694047D02*
X139962095Y-73551190D01*
X139962095Y-73551190D02*
X140009714Y-73360714D01*
X140009714Y-73360714D02*
X140057333Y-73265476D01*
X140057333Y-73265476D02*
X140152571Y-73170238D01*
X140152571Y-73170238D02*
X140295428Y-73122619D01*
X140295428Y-73122619D02*
X140390666Y-73122619D01*
X140390666Y-73122619D02*
X140533523Y-73170238D01*
X140533523Y-73170238D02*
X140581142Y-73217857D01*
X141533523Y-74122619D02*
X140962095Y-74122619D01*
X141247809Y-74122619D02*
X141247809Y-73122619D01*
X141247809Y-73122619D02*
X141152571Y-73265476D01*
X141152571Y-73265476D02*
X141057333Y-73360714D01*
X141057333Y-73360714D02*
X140962095Y-73408333D01*
X142485904Y-74122619D02*
X141914476Y-74122619D01*
X142200190Y-74122619D02*
X142200190Y-73122619D01*
X142200190Y-73122619D02*
X142104952Y-73265476D01*
X142104952Y-73265476D02*
X142009714Y-73360714D01*
X142009714Y-73360714D02*
X141914476Y-73408333D01*
%TO.C,C4*%
X132095380Y-76366666D02*
X132143000Y-76414285D01*
X132143000Y-76414285D02*
X132190619Y-76557142D01*
X132190619Y-76557142D02*
X132190619Y-76652380D01*
X132190619Y-76652380D02*
X132143000Y-76795237D01*
X132143000Y-76795237D02*
X132047761Y-76890475D01*
X132047761Y-76890475D02*
X131952523Y-76938094D01*
X131952523Y-76938094D02*
X131762047Y-76985713D01*
X131762047Y-76985713D02*
X131619190Y-76985713D01*
X131619190Y-76985713D02*
X131428714Y-76938094D01*
X131428714Y-76938094D02*
X131333476Y-76890475D01*
X131333476Y-76890475D02*
X131238238Y-76795237D01*
X131238238Y-76795237D02*
X131190619Y-76652380D01*
X131190619Y-76652380D02*
X131190619Y-76557142D01*
X131190619Y-76557142D02*
X131238238Y-76414285D01*
X131238238Y-76414285D02*
X131285857Y-76366666D01*
X131523952Y-75509523D02*
X132190619Y-75509523D01*
X131143000Y-75747618D02*
X131857285Y-75985713D01*
X131857285Y-75985713D02*
X131857285Y-75366666D01*
%TO.C,L2*%
X131405333Y-65486619D02*
X130929143Y-65486619D01*
X130929143Y-65486619D02*
X130929143Y-64486619D01*
X131691048Y-64581857D02*
X131738667Y-64534238D01*
X131738667Y-64534238D02*
X131833905Y-64486619D01*
X131833905Y-64486619D02*
X132072000Y-64486619D01*
X132072000Y-64486619D02*
X132167238Y-64534238D01*
X132167238Y-64534238D02*
X132214857Y-64581857D01*
X132214857Y-64581857D02*
X132262476Y-64677095D01*
X132262476Y-64677095D02*
X132262476Y-64772333D01*
X132262476Y-64772333D02*
X132214857Y-64915190D01*
X132214857Y-64915190D02*
X131643429Y-65486619D01*
X131643429Y-65486619D02*
X132262476Y-65486619D01*
D12*
%TO.C,X2*%
X129619526Y-73164095D02*
X130889526Y-72317428D01*
X129619526Y-72317428D02*
X130889526Y-73164095D01*
X129740478Y-71894095D02*
X129680002Y-71833619D01*
X129680002Y-71833619D02*
X129619526Y-71712666D01*
X129619526Y-71712666D02*
X129619526Y-71410285D01*
X129619526Y-71410285D02*
X129680002Y-71289333D01*
X129680002Y-71289333D02*
X129740478Y-71228857D01*
X129740478Y-71228857D02*
X129861430Y-71168380D01*
X129861430Y-71168380D02*
X129982383Y-71168380D01*
X129982383Y-71168380D02*
X130163811Y-71228857D01*
X130163811Y-71228857D02*
X130889526Y-71954571D01*
X130889526Y-71954571D02*
X130889526Y-71168380D01*
D10*
%TO.C,R2*%
X143851333Y-55072619D02*
X143518000Y-54596428D01*
X143279905Y-55072619D02*
X143279905Y-54072619D01*
X143279905Y-54072619D02*
X143660857Y-54072619D01*
X143660857Y-54072619D02*
X143756095Y-54120238D01*
X143756095Y-54120238D02*
X143803714Y-54167857D01*
X143803714Y-54167857D02*
X143851333Y-54263095D01*
X143851333Y-54263095D02*
X143851333Y-54405952D01*
X143851333Y-54405952D02*
X143803714Y-54501190D01*
X143803714Y-54501190D02*
X143756095Y-54548809D01*
X143756095Y-54548809D02*
X143660857Y-54596428D01*
X143660857Y-54596428D02*
X143279905Y-54596428D01*
X144232286Y-54167857D02*
X144279905Y-54120238D01*
X144279905Y-54120238D02*
X144375143Y-54072619D01*
X144375143Y-54072619D02*
X144613238Y-54072619D01*
X144613238Y-54072619D02*
X144708476Y-54120238D01*
X144708476Y-54120238D02*
X144756095Y-54167857D01*
X144756095Y-54167857D02*
X144803714Y-54263095D01*
X144803714Y-54263095D02*
X144803714Y-54358333D01*
X144803714Y-54358333D02*
X144756095Y-54501190D01*
X144756095Y-54501190D02*
X144184667Y-55072619D01*
X144184667Y-55072619D02*
X144803714Y-55072619D01*
%TO.C,R4*%
X118705333Y-81106619D02*
X118372000Y-80630428D01*
X118133905Y-81106619D02*
X118133905Y-80106619D01*
X118133905Y-80106619D02*
X118514857Y-80106619D01*
X118514857Y-80106619D02*
X118610095Y-80154238D01*
X118610095Y-80154238D02*
X118657714Y-80201857D01*
X118657714Y-80201857D02*
X118705333Y-80297095D01*
X118705333Y-80297095D02*
X118705333Y-80439952D01*
X118705333Y-80439952D02*
X118657714Y-80535190D01*
X118657714Y-80535190D02*
X118610095Y-80582809D01*
X118610095Y-80582809D02*
X118514857Y-80630428D01*
X118514857Y-80630428D02*
X118133905Y-80630428D01*
X119562476Y-80439952D02*
X119562476Y-81106619D01*
X119324381Y-80059000D02*
X119086286Y-80773285D01*
X119086286Y-80773285D02*
X119705333Y-80773285D01*
%TO.C,J2*%
X110410666Y-89124619D02*
X110410666Y-89838904D01*
X110410666Y-89838904D02*
X110363047Y-89981761D01*
X110363047Y-89981761D02*
X110267809Y-90077000D01*
X110267809Y-90077000D02*
X110124952Y-90124619D01*
X110124952Y-90124619D02*
X110029714Y-90124619D01*
X110839238Y-89219857D02*
X110886857Y-89172238D01*
X110886857Y-89172238D02*
X110982095Y-89124619D01*
X110982095Y-89124619D02*
X111220190Y-89124619D01*
X111220190Y-89124619D02*
X111315428Y-89172238D01*
X111315428Y-89172238D02*
X111363047Y-89219857D01*
X111363047Y-89219857D02*
X111410666Y-89315095D01*
X111410666Y-89315095D02*
X111410666Y-89410333D01*
X111410666Y-89410333D02*
X111363047Y-89553190D01*
X111363047Y-89553190D02*
X110791619Y-90124619D01*
X110791619Y-90124619D02*
X111410666Y-90124619D01*
%TO.C,C3*%
X125309333Y-65137380D02*
X125261714Y-65185000D01*
X125261714Y-65185000D02*
X125118857Y-65232619D01*
X125118857Y-65232619D02*
X125023619Y-65232619D01*
X125023619Y-65232619D02*
X124880762Y-65185000D01*
X124880762Y-65185000D02*
X124785524Y-65089761D01*
X124785524Y-65089761D02*
X124737905Y-64994523D01*
X124737905Y-64994523D02*
X124690286Y-64804047D01*
X124690286Y-64804047D02*
X124690286Y-64661190D01*
X124690286Y-64661190D02*
X124737905Y-64470714D01*
X124737905Y-64470714D02*
X124785524Y-64375476D01*
X124785524Y-64375476D02*
X124880762Y-64280238D01*
X124880762Y-64280238D02*
X125023619Y-64232619D01*
X125023619Y-64232619D02*
X125118857Y-64232619D01*
X125118857Y-64232619D02*
X125261714Y-64280238D01*
X125261714Y-64280238D02*
X125309333Y-64327857D01*
X125642667Y-64232619D02*
X126261714Y-64232619D01*
X126261714Y-64232619D02*
X125928381Y-64613571D01*
X125928381Y-64613571D02*
X126071238Y-64613571D01*
X126071238Y-64613571D02*
X126166476Y-64661190D01*
X126166476Y-64661190D02*
X126214095Y-64708809D01*
X126214095Y-64708809D02*
X126261714Y-64804047D01*
X126261714Y-64804047D02*
X126261714Y-65042142D01*
X126261714Y-65042142D02*
X126214095Y-65137380D01*
X126214095Y-65137380D02*
X126166476Y-65185000D01*
X126166476Y-65185000D02*
X126071238Y-65232619D01*
X126071238Y-65232619D02*
X125785524Y-65232619D01*
X125785524Y-65232619D02*
X125690286Y-65185000D01*
X125690286Y-65185000D02*
X125642667Y-65137380D01*
%TO.C,C5*%
X125309333Y-63867380D02*
X125261714Y-63915000D01*
X125261714Y-63915000D02*
X125118857Y-63962619D01*
X125118857Y-63962619D02*
X125023619Y-63962619D01*
X125023619Y-63962619D02*
X124880762Y-63915000D01*
X124880762Y-63915000D02*
X124785524Y-63819761D01*
X124785524Y-63819761D02*
X124737905Y-63724523D01*
X124737905Y-63724523D02*
X124690286Y-63534047D01*
X124690286Y-63534047D02*
X124690286Y-63391190D01*
X124690286Y-63391190D02*
X124737905Y-63200714D01*
X124737905Y-63200714D02*
X124785524Y-63105476D01*
X124785524Y-63105476D02*
X124880762Y-63010238D01*
X124880762Y-63010238D02*
X125023619Y-62962619D01*
X125023619Y-62962619D02*
X125118857Y-62962619D01*
X125118857Y-62962619D02*
X125261714Y-63010238D01*
X125261714Y-63010238D02*
X125309333Y-63057857D01*
X126214095Y-62962619D02*
X125737905Y-62962619D01*
X125737905Y-62962619D02*
X125690286Y-63438809D01*
X125690286Y-63438809D02*
X125737905Y-63391190D01*
X125737905Y-63391190D02*
X125833143Y-63343571D01*
X125833143Y-63343571D02*
X126071238Y-63343571D01*
X126071238Y-63343571D02*
X126166476Y-63391190D01*
X126166476Y-63391190D02*
X126214095Y-63438809D01*
X126214095Y-63438809D02*
X126261714Y-63534047D01*
X126261714Y-63534047D02*
X126261714Y-63772142D01*
X126261714Y-63772142D02*
X126214095Y-63867380D01*
X126214095Y-63867380D02*
X126166476Y-63915000D01*
X126166476Y-63915000D02*
X126071238Y-63962619D01*
X126071238Y-63962619D02*
X125833143Y-63962619D01*
X125833143Y-63962619D02*
X125737905Y-63915000D01*
X125737905Y-63915000D02*
X125690286Y-63867380D01*
%TO.C,J3*%
X118080619Y-65611333D02*
X118794904Y-65611333D01*
X118794904Y-65611333D02*
X118937761Y-65658952D01*
X118937761Y-65658952D02*
X119033000Y-65754190D01*
X119033000Y-65754190D02*
X119080619Y-65897047D01*
X119080619Y-65897047D02*
X119080619Y-65992285D01*
X118080619Y-65230380D02*
X118080619Y-64611333D01*
X118080619Y-64611333D02*
X118461571Y-64944666D01*
X118461571Y-64944666D02*
X118461571Y-64801809D01*
X118461571Y-64801809D02*
X118509190Y-64706571D01*
X118509190Y-64706571D02*
X118556809Y-64658952D01*
X118556809Y-64658952D02*
X118652047Y-64611333D01*
X118652047Y-64611333D02*
X118890142Y-64611333D01*
X118890142Y-64611333D02*
X118985380Y-64658952D01*
X118985380Y-64658952D02*
X119033000Y-64706571D01*
X119033000Y-64706571D02*
X119080619Y-64801809D01*
X119080619Y-64801809D02*
X119080619Y-65087523D01*
X119080619Y-65087523D02*
X119033000Y-65182761D01*
X119033000Y-65182761D02*
X118985380Y-65230380D01*
%TO.C,C14*%
X119499142Y-70471380D02*
X119451523Y-70519000D01*
X119451523Y-70519000D02*
X119308666Y-70566619D01*
X119308666Y-70566619D02*
X119213428Y-70566619D01*
X119213428Y-70566619D02*
X119070571Y-70519000D01*
X119070571Y-70519000D02*
X118975333Y-70423761D01*
X118975333Y-70423761D02*
X118927714Y-70328523D01*
X118927714Y-70328523D02*
X118880095Y-70138047D01*
X118880095Y-70138047D02*
X118880095Y-69995190D01*
X118880095Y-69995190D02*
X118927714Y-69804714D01*
X118927714Y-69804714D02*
X118975333Y-69709476D01*
X118975333Y-69709476D02*
X119070571Y-69614238D01*
X119070571Y-69614238D02*
X119213428Y-69566619D01*
X119213428Y-69566619D02*
X119308666Y-69566619D01*
X119308666Y-69566619D02*
X119451523Y-69614238D01*
X119451523Y-69614238D02*
X119499142Y-69661857D01*
X120451523Y-70566619D02*
X119880095Y-70566619D01*
X120165809Y-70566619D02*
X120165809Y-69566619D01*
X120165809Y-69566619D02*
X120070571Y-69709476D01*
X120070571Y-69709476D02*
X119975333Y-69804714D01*
X119975333Y-69804714D02*
X119880095Y-69852333D01*
X121308666Y-69899952D02*
X121308666Y-70566619D01*
X121070571Y-69519000D02*
X120832476Y-70233285D01*
X120832476Y-70233285D02*
X121451523Y-70233285D01*
D13*
%TO.C,C16*%
X150395000Y-69349252D02*
X150395000Y-68826748D01*
X151865000Y-69349252D02*
X151865000Y-68826748D01*
%TO.C,C8*%
X142740748Y-60987000D02*
X143263252Y-60987000D01*
X142740748Y-62457000D02*
X143263252Y-62457000D01*
D14*
%TO.C,IC1*%
X131345000Y-67050000D02*
G75*
G03*
X131345000Y-67050000I-100000J0D01*
G01*
D13*
%TO.C,L4*%
X142232748Y-69394000D02*
X142755252Y-69394000D01*
X142232748Y-70814000D02*
X142755252Y-70814000D01*
%TO.C,C6*%
X136933000Y-64269252D02*
X136933000Y-63746748D01*
X138403000Y-64269252D02*
X138403000Y-63746748D01*
%TO.C,C1*%
X127261252Y-79983000D02*
X126738748Y-79983000D01*
X127261252Y-78513000D02*
X126738748Y-78513000D01*
%TO.C,C2*%
X122674748Y-72417000D02*
X123197252Y-72417000D01*
X122674748Y-73887000D02*
X123197252Y-73887000D01*
%TO.C,J5*%
X122428000Y-59630000D02*
X109668000Y-59630000D01*
X122428000Y-59630000D02*
X122428000Y-62290000D01*
X109668000Y-59630000D02*
X109668000Y-62290000D01*
X125028000Y-60960000D02*
X125028000Y-62290000D01*
X125028000Y-62290000D02*
X123698000Y-62290000D01*
X122428000Y-62290000D02*
X109668000Y-62290000D01*
D14*
%TO.C,IC2*%
X121560000Y-74650000D02*
X122960000Y-74650000D01*
D13*
%TO.C,J1*%
X130106000Y-88512000D02*
X130106000Y-87262000D01*
X129806000Y-88212000D02*
X129806000Y-83492000D01*
X129806000Y-86902000D02*
X129196000Y-86902000D01*
X129806000Y-85602000D02*
X129196000Y-85602000D01*
X129806000Y-83492000D02*
X123686000Y-83492000D01*
X129196000Y-87602000D02*
X129196000Y-84102000D01*
X129196000Y-84102000D02*
X124296000Y-84102000D01*
X128856000Y-88512000D02*
X130106000Y-88512000D01*
X128346000Y-88412000D02*
X128346000Y-88212000D01*
X128046000Y-88412000D02*
X128346000Y-88412000D01*
X128046000Y-88312000D02*
X128346000Y-88312000D01*
X128046000Y-88212000D02*
X128046000Y-88412000D01*
X127246000Y-88212000D02*
X127246000Y-87602000D01*
X127246000Y-87602000D02*
X129196000Y-87602000D01*
X126846000Y-84602000D02*
X126646000Y-84602000D01*
X126846000Y-84102000D02*
X126846000Y-84602000D01*
X126746000Y-84102000D02*
X126746000Y-84602000D01*
X126646000Y-84602000D02*
X126646000Y-84102000D01*
X126246000Y-87602000D02*
X126246000Y-88212000D01*
X124296000Y-87602000D02*
X126246000Y-87602000D01*
X124296000Y-84102000D02*
X124296000Y-87602000D01*
X123686000Y-88212000D02*
X129806000Y-88212000D01*
X123686000Y-86902000D02*
X124296000Y-86902000D01*
X123686000Y-85602000D02*
X124296000Y-85602000D01*
X123686000Y-83492000D02*
X123686000Y-88212000D01*
D14*
%TO.C,L3*%
X130602000Y-60298000D02*
X130002000Y-60298000D01*
D13*
%TO.C,C13*%
X137949000Y-60226752D02*
X137949000Y-59704248D01*
X139419000Y-60226752D02*
X139419000Y-59704248D01*
%TO.C,R3*%
X141197064Y-57631000D02*
X140742936Y-57631000D01*
X141197064Y-56161000D02*
X140742936Y-56161000D01*
%TO.C,C7*%
X131599000Y-60459252D02*
X131599000Y-59936748D01*
X133069000Y-60459252D02*
X133069000Y-59936748D01*
%TO.C,C15*%
X123683752Y-68553000D02*
X123161248Y-68553000D01*
X123683752Y-67083000D02*
X123161248Y-67083000D01*
%TO.C,J4*%
X113732000Y-70358000D02*
X113732000Y-83118000D01*
X113732000Y-70358000D02*
X116392000Y-70358000D01*
X113732000Y-83118000D02*
X116392000Y-83118000D01*
X115062000Y-67758000D02*
X116392000Y-67758000D01*
X116392000Y-67758000D02*
X116392000Y-69088000D01*
X116392000Y-70358000D02*
X116392000Y-83118000D01*
D14*
%TO.C,Debug_in1*%
X132922000Y-79188000D02*
X132922000Y-79188000D01*
X132922000Y-79188000D02*
X132922000Y-79188000D01*
X132922000Y-79288000D02*
X132922000Y-79288000D01*
X132922000Y-79288000D02*
G75*
G03*
X132922000Y-79188000I0J50000D01*
G01*
X132922000Y-79188000D02*
G75*
G03*
X132922000Y-79288000I0J-50000D01*
G01*
X132922000Y-79188000D02*
G75*
G03*
X132922000Y-79288000I0J-50000D01*
G01*
%TO.C,X1*%
X140178000Y-64540000D02*
X140178000Y-64540000D01*
X140178000Y-64740000D02*
X140178000Y-64740000D01*
X140178000Y-64740000D02*
G75*
G03*
X140178000Y-64540000I0J100000D01*
G01*
X140178000Y-64540000D02*
G75*
G03*
X140178000Y-64740000I0J-100000D01*
G01*
D13*
%TO.C,R1*%
X123163064Y-79983000D02*
X122708936Y-79983000D01*
X123163064Y-78513000D02*
X122708936Y-78513000D01*
%TO.C,C9*%
X142486748Y-58701000D02*
X143009252Y-58701000D01*
X142486748Y-60171000D02*
X143009252Y-60171000D01*
%TO.C,L1*%
X120948000Y-74215000D02*
X120948000Y-76735000D01*
X118828000Y-74215000D02*
X118828000Y-76735000D01*
%TO.C,C12*%
X133885000Y-60586252D02*
X133885000Y-60063748D01*
X135355000Y-60586252D02*
X135355000Y-60063748D01*
%TO.C,C10*%
X145261000Y-65016748D02*
X145261000Y-65539252D01*
X143791000Y-65016748D02*
X143791000Y-65539252D01*
%TO.C,C11*%
X140181000Y-70858748D02*
X140181000Y-71381252D01*
X138711000Y-70858748D02*
X138711000Y-71381252D01*
%TO.C,C4*%
X130783000Y-75938748D02*
X130783000Y-76461252D01*
X129313000Y-75938748D02*
X129313000Y-76461252D01*
%TO.C,L2*%
X132303733Y-62990000D02*
X132646267Y-62990000D01*
X132303733Y-64010000D02*
X132646267Y-64010000D01*
D14*
%TO.C,X2*%
X127508000Y-68366000D02*
X127508000Y-68366000D01*
X127508000Y-68366000D02*
X127508000Y-68366000D01*
X127508000Y-68466000D02*
X127508000Y-68466000D01*
X127508000Y-68466000D02*
G75*
G03*
X127508000Y-68366000I0J50000D01*
G01*
X127508000Y-68366000D02*
G75*
G03*
X127508000Y-68466000I0J-50000D01*
G01*
X127508000Y-68366000D02*
G75*
G03*
X127508000Y-68466000I0J-50000D01*
G01*
D13*
%TO.C,R2*%
X141197064Y-55599000D02*
X140742936Y-55599000D01*
X141197064Y-54129000D02*
X140742936Y-54129000D01*
%TO.C,R4*%
X119099064Y-79729000D02*
X118644936Y-79729000D01*
X119099064Y-78259000D02*
X118644936Y-78259000D01*
%TO.C,J2*%
X112049000Y-85837000D02*
X112049000Y-67997000D01*
X112049000Y-85837000D02*
X109389000Y-85837000D01*
X112049000Y-67997000D02*
X109389000Y-67997000D01*
X110719000Y-88437000D02*
X109389000Y-88437000D01*
X109389000Y-88437000D02*
X109389000Y-87107000D01*
X109389000Y-85837000D02*
X109389000Y-67997000D01*
%TO.C,C3*%
X127995748Y-66067000D02*
X128518252Y-66067000D01*
X127995748Y-67537000D02*
X128518252Y-67537000D01*
%TO.C,C5*%
X128531252Y-65251000D02*
X128008748Y-65251000D01*
X128531252Y-63781000D02*
X128008748Y-63781000D01*
%TO.C,J3*%
X117408000Y-63948000D02*
X117408000Y-65278000D01*
X116078000Y-63948000D02*
X117408000Y-63948000D01*
X114808000Y-63948000D02*
X109668000Y-63948000D01*
X114808000Y-63948000D02*
X114808000Y-66608000D01*
X109668000Y-63948000D02*
X109668000Y-66608000D01*
X114808000Y-66608000D02*
X109668000Y-66608000D01*
%TO.C,C14*%
X123683752Y-70839000D02*
X123161248Y-70839000D01*
X123683752Y-69369000D02*
X123161248Y-69369000D01*
%TD*%
M02*
