M48
; DRILL file {KiCad 7.0.1} date Sun Nov 12 22:26:18 2023
; FORMAT={-:-/ absolute / inch / decimal}
; #@! TF.CreationDate,2023-11-12T22:26:18+01:00
; #@! TF.GenerationSoftware,Kicad,Pcbnew,7.0.1
; #@! TF.FileFunction,MixedPlating,1,2
FMAT,2
INCH
; #@! TA.AperFunction,Plated,PTH,ComponentDrill
T1C0.0118
; #@! TA.AperFunction,Plated,PTH,ViaDrill
T2C0.0157
; #@! TA.AperFunction,Plated,PTH,ComponentDrill
T3C0.0295
; #@! TA.AperFunction,Plated,PTH,ComponentDrill
T4C0.0394
%
G90
G05
T1
X6.05Y-2.6782
T2
X4.35Y-2.48
X4.43Y-2.25
X4.45Y-2.67
X4.47Y-3.4
X4.63Y-2.68
X4.65Y-3.05
X4.74Y-2.89
X4.76Y-3.29
X4.77Y-2.49
X4.82Y-3.41
X4.91Y-2.26
X4.92Y-2.59
X4.92Y-3.06
X5.04Y-3.0467
X5.11Y-3.13
X5.12Y-2.77
X5.12Y-2.91
X5.13Y-3.48
X5.14Y-2.62
X5.17Y-2.89
X5.2343Y-2.9443
X5.2875Y-3.0
X5.29Y-2.58
X5.29Y-3.08
X5.33Y-2.47
X5.35Y-2.25
X5.3591Y-2.92
X5.4Y-2.36
X5.4Y-2.41
X5.42Y-2.4792
X5.43Y-2.62
X5.53Y-2.7133
X5.54Y-2.45
X5.5483Y-2.64
X5.55Y-2.86
X5.56Y-3.22
X5.6Y-3.44
X5.68Y-2.27
T3
X4.9506Y-3.4017
X5.0294Y-3.4017
T4
X4.359Y-2.7294
X4.359Y-2.8294
X4.359Y-2.9294
X4.359Y-3.0294
X4.359Y-3.1294
X4.359Y-3.2294
X4.359Y-3.3294
X4.359Y-3.4294
X4.37Y-2.4
X4.37Y-2.57
X4.47Y-2.4
X4.47Y-2.57
X4.53Y-2.72
X4.53Y-2.82
X4.53Y-2.92
X4.53Y-3.02
X4.53Y-3.12
X4.53Y-3.22
X4.57Y-2.4
X4.57Y-2.57
X4.67Y-2.4
X4.77Y-2.4
X4.87Y-2.4
T0
M30
