%TF.GenerationSoftware,KiCad,Pcbnew,7.0.1*%
%TF.CreationDate,2023-11-12T22:26:15+01:00*%
%TF.ProjectId,pcbIOT,70636249-4f54-42e6-9b69-6361645f7063,rev?*%
%TF.SameCoordinates,Original*%
%TF.FileFunction,Copper,L1,Top*%
%TF.FilePolarity,Positive*%
%FSLAX46Y46*%
G04 Gerber Fmt 4.6, Leading zero omitted, Abs format (unit mm)*
G04 Created by KiCad (PCBNEW 7.0.1) date 2023-11-12 22:26:15*
%MOMM*%
%LPD*%
G01*
G04 APERTURE LIST*
G04 Aperture macros list*
%AMRoundRect*
0 Rectangle with rounded corners*
0 $1 Rounding radius*
0 $2 $3 $4 $5 $6 $7 $8 $9 X,Y pos of 4 corners*
0 Add a 4 corners polygon primitive as box body*
4,1,4,$2,$3,$4,$5,$6,$7,$8,$9,$2,$3,0*
0 Add four circle primitives for the rounded corners*
1,1,$1+$1,$2,$3*
1,1,$1+$1,$4,$5*
1,1,$1+$1,$6,$7*
1,1,$1+$1,$8,$9*
0 Add four rect primitives between the rounded corners*
20,1,$1+$1,$2,$3,$4,$5,0*
20,1,$1+$1,$4,$5,$6,$7,0*
20,1,$1+$1,$6,$7,$8,$9,0*
20,1,$1+$1,$8,$9,$2,$3,0*%
G04 Aperture macros list end*
%TA.AperFunction,SMDPad,CuDef*%
%ADD10R,0.580000X0.500000*%
%TD*%
%TA.AperFunction,SMDPad,CuDef*%
%ADD11R,0.800000X0.750000*%
%TD*%
%TA.AperFunction,SMDPad,CuDef*%
%ADD12RoundRect,0.250000X0.475000X-0.337500X0.475000X0.337500X-0.475000X0.337500X-0.475000X-0.337500X0*%
%TD*%
%TA.AperFunction,SMDPad,CuDef*%
%ADD13RoundRect,0.250000X-0.337500X-0.475000X0.337500X-0.475000X0.337500X0.475000X-0.337500X0.475000X0*%
%TD*%
%TA.AperFunction,SMDPad,CuDef*%
%ADD14R,0.850000X0.200000*%
%TD*%
%TA.AperFunction,SMDPad,CuDef*%
%ADD15R,0.200000X0.850000*%
%TD*%
%TA.AperFunction,SMDPad,CuDef*%
%ADD16R,4.700000X4.700000*%
%TD*%
%TA.AperFunction,SMDPad,CuDef*%
%ADD17RoundRect,0.250000X-0.325000X-0.450000X0.325000X-0.450000X0.325000X0.450000X-0.325000X0.450000X0*%
%TD*%
%TA.AperFunction,SMDPad,CuDef*%
%ADD18RoundRect,0.250000X0.337500X0.475000X-0.337500X0.475000X-0.337500X-0.475000X0.337500X-0.475000X0*%
%TD*%
%TA.AperFunction,ComponentPad*%
%ADD19R,1.700000X1.700000*%
%TD*%
%TA.AperFunction,ComponentPad*%
%ADD20O,1.700000X1.700000*%
%TD*%
%TA.AperFunction,SMDPad,CuDef*%
%ADD21R,1.400000X0.450000*%
%TD*%
%TA.AperFunction,SMDPad,CuDef*%
%ADD22R,1.450000X1.750000*%
%TD*%
%TA.AperFunction,ComponentPad*%
%ADD23RoundRect,0.250000X0.350000X0.625000X-0.350000X0.625000X-0.350000X-0.625000X0.350000X-0.625000X0*%
%TD*%
%TA.AperFunction,ComponentPad*%
%ADD24O,1.200000X1.750000*%
%TD*%
%TA.AperFunction,SMDPad,CuDef*%
%ADD25R,1.000000X0.675000*%
%TD*%
%TA.AperFunction,SMDPad,CuDef*%
%ADD26RoundRect,0.250000X0.350000X0.450000X-0.350000X0.450000X-0.350000X-0.450000X0.350000X-0.450000X0*%
%TD*%
%TA.AperFunction,SMDPad,CuDef*%
%ADD27R,2.790000X0.740000*%
%TD*%
%TA.AperFunction,SMDPad,CuDef*%
%ADD28R,0.800000X0.900000*%
%TD*%
%TA.AperFunction,SMDPad,CuDef*%
%ADD29R,1.600000X0.550000*%
%TD*%
%TA.AperFunction,SMDPad,CuDef*%
%ADD30RoundRect,0.250000X-0.475000X0.337500X-0.475000X-0.337500X0.475000X-0.337500X0.475000X0.337500X0*%
%TD*%
%TA.AperFunction,ConnectorPad*%
%ADD31R,0.500000X0.500000*%
%TD*%
%TA.AperFunction,ComponentPad*%
%ADD32R,0.500000X0.900000*%
%TD*%
%TA.AperFunction,SMDPad,CuDef*%
%ADD33RoundRect,0.237500X-0.287500X-0.237500X0.287500X-0.237500X0.287500X0.237500X-0.287500X0.237500X0*%
%TD*%
%TA.AperFunction,SMDPad,CuDef*%
%ADD34R,1.800000X1.000000*%
%TD*%
%TA.AperFunction,ViaPad*%
%ADD35C,0.800000*%
%TD*%
%TA.AperFunction,Conductor*%
%ADD36C,0.500000*%
%TD*%
%TA.AperFunction,Conductor*%
%ADD37C,0.250000*%
%TD*%
%TA.AperFunction,Conductor*%
%ADD38C,1.000000*%
%TD*%
%TA.AperFunction,Conductor*%
%ADD39C,0.200000*%
%TD*%
%TA.AperFunction,Conductor*%
%ADD40C,0.381000*%
%TD*%
%TA.AperFunction,Conductor*%
%ADD41C,0.400000*%
%TD*%
G04 APERTURE END LIST*
%TA.AperFunction,EtchedComponent*%
%TO.C,AE1*%
G36*
X153663215Y-67576000D02*
G01*
X158820000Y-67576000D01*
X158820000Y-72576000D01*
X156180000Y-72576000D01*
X156180000Y-74576000D01*
X158820000Y-74576000D01*
X158820000Y-77276000D01*
X156180000Y-77276000D01*
X156180000Y-79276000D01*
X158820000Y-79276000D01*
X158820000Y-81976000D01*
X154380000Y-81976000D01*
X154380000Y-81476000D01*
X158320000Y-81476000D01*
X158320000Y-79776000D01*
X155680000Y-79776000D01*
X155680000Y-76776000D01*
X158320000Y-76776000D01*
X158320000Y-75076000D01*
X155680000Y-75076000D01*
X155680000Y-72076000D01*
X158320000Y-72076000D01*
X158320000Y-70376000D01*
X153397224Y-70376000D01*
X153397224Y-69876000D01*
X158320000Y-69876000D01*
X158320000Y-68476000D01*
X153420000Y-68476000D01*
X153420000Y-68000844D01*
X153523957Y-68000844D01*
X153524700Y-68049363D01*
X153537600Y-68094878D01*
X153548213Y-68113489D01*
X153583447Y-68147132D01*
X153628632Y-68167691D01*
X153678158Y-68174222D01*
X153726417Y-68165782D01*
X153758643Y-68148888D01*
X153791313Y-68113628D01*
X153811408Y-68068318D01*
X153817982Y-68018733D01*
X153810092Y-67970647D01*
X153793186Y-67937755D01*
X153756416Y-67902815D01*
X153711622Y-67883153D01*
X153663215Y-67878417D01*
X153615605Y-67888258D01*
X153573203Y-67912326D01*
X153540419Y-67950269D01*
X153536065Y-67958181D01*
X153523957Y-68000844D01*
X153420000Y-68000844D01*
X153420000Y-67576000D01*
X153663215Y-67576000D01*
G37*
%TD.AperFunction*%
%TD*%
D10*
%TO.P,J6,OUT,OUT*%
%TO.N,Net-(AE1-A)*%
X148480000Y-70104000D03*
%TO.P,J6,IN,IN*%
%TO.N,Net-(J6-PadIN)*%
X146160000Y-70104000D03*
D11*
%TO.P,J6,GND4,GND__3*%
%TO.N,GND*%
X148270000Y-69079000D03*
%TO.P,J6,GND3,GND__2*%
X148270000Y-71129000D03*
%TO.P,J6,GND2,GND__1*%
X146370000Y-69079000D03*
%TO.P,J6,GND1,GND*%
X146370000Y-71129000D03*
%TD*%
D12*
%TO.P,C16,1*%
%TO.N,Net-(AE1-A)*%
X151130000Y-70125500D03*
%TO.P,C16,2*%
%TO.N,GND*%
X151130000Y-68050500D03*
%TD*%
D13*
%TO.P,C8,1*%
%TO.N,GND*%
X141964500Y-61722000D03*
%TO.P,C8,2*%
%TO.N,Net-(IC1-XC2)*%
X144039500Y-61722000D03*
%TD*%
D14*
%TO.P,IC1,1,DEC1*%
%TO.N,Net-(IC1-DEC1)*%
X131670000Y-67650000D03*
%TO.P,IC1,2,P0.00/XL1*%
%TO.N,Net-(IC1-P0.00{slash}XL1)*%
X131670000Y-68050000D03*
%TO.P,IC1,3,P0.01/XL2*%
%TO.N,Net-(IC1-P0.01{slash}XL2)*%
X131670000Y-68450000D03*
%TO.P,IC1,4,P0.02/AIN0*%
%TO.N,unconnected-(IC1-P0.02{slash}AIN0-Pad4)*%
X131670000Y-68850000D03*
%TO.P,IC1,5,P0.03/AIN1*%
%TO.N,unconnected-(IC1-P0.03{slash}AIN1-Pad5)*%
X131670000Y-69250000D03*
%TO.P,IC1,6,P0.04/AIN2*%
%TO.N,unconnected-(IC1-P0.04{slash}AIN2-Pad6)*%
X131670000Y-69650000D03*
%TO.P,IC1,7,P0.05/AIN3*%
%TO.N,unconnected-(IC1-P0.05{slash}AIN3-Pad7)*%
X131670000Y-70050000D03*
%TO.P,IC1,8,P0.06*%
%TO.N,unconnected-(IC1-P0.06-Pad8)*%
X131670000Y-70450000D03*
%TO.P,IC1,9,P0.07*%
%TO.N,unconnected-(IC1-P0.07-Pad9)*%
X131670000Y-70850000D03*
%TO.P,IC1,10,P0.08*%
%TO.N,unconnected-(IC1-P0.08-Pad10)*%
X131670000Y-71250000D03*
%TO.P,IC1,11,NFC1/P0.09*%
%TO.N,unconnected-(IC1-NFC1{slash}P0.09-Pad11)*%
X131670000Y-71650000D03*
%TO.P,IC1,12,NFC2/P0.10*%
%TO.N,unconnected-(IC1-NFC2{slash}P0.10-Pad12)*%
X131670000Y-72050000D03*
D15*
%TO.P,IC1,13,VDD_1*%
%TO.N,VDD*%
X132420000Y-72800000D03*
%TO.P,IC1,14,P0.11*%
%TO.N,Acc_int*%
X132820000Y-72800000D03*
%TO.P,IC1,15,P0.12*%
%TO.N,ToF1_INT*%
X133220000Y-72800000D03*
%TO.P,IC1,16,P0.13*%
%TO.N,ToF2_INT*%
X133620000Y-72800000D03*
%TO.P,IC1,17,P0.14/TRACEDATA[3]*%
%TO.N,ToF1_XSHUT*%
X134020000Y-72800000D03*
%TO.P,IC1,18,P0.15/TRACEDATA[2]*%
%TO.N,ToF2_XSHUT*%
X134420000Y-72800000D03*
%TO.P,IC1,19,P0.16/TRACEDATA[1]*%
%TO.N,unconnected-(IC1-P0.16{slash}TRACEDATA[1]-Pad19)*%
X134820000Y-72800000D03*
%TO.P,IC1,20,P0.17*%
%TO.N,unconnected-(IC1-P0.17-Pad20)*%
X135220000Y-72800000D03*
%TO.P,IC1,21,P0.18/TRACEDATA[0]/SWO*%
%TO.N,SWO*%
X135620000Y-72800000D03*
%TO.P,IC1,22,P0.19*%
%TO.N,unconnected-(IC1-P0.19-Pad22)*%
X136020000Y-72800000D03*
%TO.P,IC1,23,P0.20/TRACECLK*%
%TO.N,unconnected-(IC1-P0.20{slash}TRACECLK-Pad23)*%
X136420000Y-72800000D03*
%TO.P,IC1,24,P0.21/NRESET*%
%TO.N,NRESET*%
X136820000Y-72800000D03*
D14*
%TO.P,IC1,25,SWDCLK*%
%TO.N,SWDCLK*%
X137570000Y-72050000D03*
%TO.P,IC1,26,SWDIO*%
%TO.N,SWDIO*%
X137570000Y-71650000D03*
%TO.P,IC1,27,P0.22*%
%TO.N,unconnected-(IC1-P0.22-Pad27)*%
X137570000Y-71250000D03*
%TO.P,IC1,28,P0.23*%
%TO.N,unconnected-(IC1-P0.23-Pad28)*%
X137570000Y-70850000D03*
%TO.P,IC1,29,P0.24*%
%TO.N,unconnected-(IC1-P0.24-Pad29)*%
X137570000Y-70450000D03*
%TO.P,IC1,30,ANT*%
%TO.N,Net-(IC1-ANT)*%
X137570000Y-70050000D03*
%TO.P,IC1,31,VSS_1*%
%TO.N,GND*%
X137570000Y-69650000D03*
%TO.P,IC1,32,DEC2*%
%TO.N,unconnected-(IC1-DEC2-Pad32)*%
X137570000Y-69250000D03*
%TO.P,IC1,33,DEC3*%
%TO.N,Net-(IC1-DEC3)*%
X137570000Y-68850000D03*
%TO.P,IC1,34,XC1*%
%TO.N,Net-(IC1-XC1)*%
X137570000Y-68450000D03*
%TO.P,IC1,35,XC2*%
%TO.N,Net-(IC1-XC2)*%
X137570000Y-68050000D03*
%TO.P,IC1,36,VDD_2*%
%TO.N,VDD*%
X137570000Y-67650000D03*
D15*
%TO.P,IC1,37,P0.25*%
%TO.N,SCL*%
X136820000Y-66900000D03*
%TO.P,IC1,38,P0.26*%
%TO.N,SDA*%
X136420000Y-66900000D03*
%TO.P,IC1,39,P0.27*%
%TO.N,unconnected-(IC1-P0.27-Pad39)*%
X136020000Y-66900000D03*
%TO.P,IC1,40,P0.28/AIN4*%
%TO.N,unconnected-(IC1-P0.28{slash}AIN4-Pad40)*%
X135620000Y-66900000D03*
%TO.P,IC1,41,P0.29/AIN5*%
%TO.N,unconnected-(IC1-P0.29{slash}AIN5-Pad41)*%
X135220000Y-66900000D03*
%TO.P,IC1,42,P0.30/AIN6*%
%TO.N,unconnected-(IC1-P0.30{slash}AIN6-Pad42)*%
X134820000Y-66900000D03*
%TO.P,IC1,43,P0.31/AIN7*%
%TO.N,unconnected-(IC1-P0.31{slash}AIN7-Pad43)*%
X134420000Y-66900000D03*
%TO.P,IC1,44,NC*%
%TO.N,unconnected-(IC1-NC-Pad44)*%
X134020000Y-66900000D03*
%TO.P,IC1,45,VSS_2*%
%TO.N,GND*%
X133620000Y-66900000D03*
%TO.P,IC1,46,DEC4*%
%TO.N,Net-(IC1-DEC4)*%
X133220000Y-66900000D03*
%TO.P,IC1,47,DCC*%
%TO.N,Net-(IC1-DCC)*%
X132820000Y-66900000D03*
%TO.P,IC1,48,VDD_3*%
%TO.N,VDD*%
X132420000Y-66900000D03*
D16*
%TO.P,IC1,49,EP*%
%TO.N,GND*%
X134620000Y-69850000D03*
%TD*%
D17*
%TO.P,L4,1,1*%
%TO.N,Net-(IC1-ANT)*%
X141469000Y-70104000D03*
%TO.P,L4,2,2*%
%TO.N,Net-(J6-PadIN)*%
X143519000Y-70104000D03*
%TD*%
D12*
%TO.P,C6,1*%
%TO.N,VDD*%
X137668000Y-65045500D03*
%TO.P,C6,2*%
%TO.N,GND*%
X137668000Y-62970500D03*
%TD*%
D18*
%TO.P,C1,1*%
%TO.N,Net-(IC2-EN)*%
X128037500Y-79248000D03*
%TO.P,C1,2*%
%TO.N,GND*%
X125962500Y-79248000D03*
%TD*%
D13*
%TO.P,C2,1*%
%TO.N,VDD*%
X121898500Y-73152000D03*
%TO.P,C2,2*%
%TO.N,GND*%
X123973500Y-73152000D03*
%TD*%
D19*
%TO.P,J5,1,VIN*%
%TO.N,VDD*%
X123698000Y-60960000D03*
D20*
%TO.P,J5,2,GND*%
%TO.N,GND*%
X121158000Y-60960000D03*
%TO.P,J5,3,SCL*%
%TO.N,SCL*%
X118618000Y-60960000D03*
%TO.P,J5,4,SDA*%
%TO.N,SDA*%
X116078000Y-60960000D03*
%TO.P,J5,5,GPIO*%
%TO.N,ToF2_INT*%
X113538000Y-60960000D03*
%TO.P,J5,6,XSHUT*%
%TO.N,ToF2_XSHUT*%
X110998000Y-60960000D03*
%TD*%
D21*
%TO.P,IC2,1,VOS*%
%TO.N,VDD*%
X122260000Y-75225000D03*
%TO.P,IC2,2,SW*%
%TO.N,Net-(IC2-SW)*%
X122260000Y-75875000D03*
%TO.P,IC2,3,MODE*%
%TO.N,GND*%
X122260000Y-76525000D03*
%TO.P,IC2,4,VSET*%
%TO.N,Net-(IC2-VSET)*%
X122260000Y-77175000D03*
%TO.P,IC2,5,EN*%
%TO.N,Net-(IC2-EN)*%
X126660000Y-77175000D03*
%TO.P,IC2,6,VIN*%
X126660000Y-76525000D03*
%TO.P,IC2,7,NC*%
%TO.N,unconnected-(IC2-NC-Pad7)*%
X126660000Y-75875000D03*
%TO.P,IC2,8,GND_1*%
%TO.N,GND*%
X126660000Y-75225000D03*
D22*
%TO.P,IC2,9,GND_2*%
X124460000Y-76200000D03*
%TD*%
D23*
%TO.P,J1,1,GND*%
%TO.N,GND*%
X127746000Y-86402000D03*
D24*
%TO.P,J1,2,VIN_BATT*%
%TO.N,Net-(IC2-EN)*%
X125746000Y-86402000D03*
%TD*%
D25*
%TO.P,L3,1,1*%
%TO.N,Net-(IC1-DEC4)*%
X130302000Y-59636000D03*
%TO.P,L3,2,2*%
%TO.N,Net-(L2-Pad1)*%
X130302000Y-60960000D03*
%TD*%
D12*
%TO.P,C13,1*%
%TO.N,SCL*%
X138684000Y-61003000D03*
%TO.P,C13,2*%
%TO.N,GND*%
X138684000Y-58928000D03*
%TD*%
D26*
%TO.P,R3,1*%
%TO.N,VDD*%
X141970000Y-56896000D03*
%TO.P,R3,2*%
%TO.N,SCL*%
X139970000Y-56896000D03*
%TD*%
D12*
%TO.P,C7,1*%
%TO.N,Net-(IC1-DEC4)*%
X132334000Y-61235500D03*
%TO.P,C7,2*%
%TO.N,GND*%
X132334000Y-59160500D03*
%TD*%
D18*
%TO.P,C15,1*%
%TO.N,Net-(IC1-P0.01{slash}XL2)*%
X124460000Y-67818000D03*
%TO.P,C15,2*%
%TO.N,GND*%
X122385000Y-67818000D03*
%TD*%
D19*
%TO.P,J4,1,VIN*%
%TO.N,VDD*%
X115062000Y-69088000D03*
D20*
%TO.P,J4,2,GND*%
%TO.N,GND*%
X115062000Y-71628000D03*
%TO.P,J4,3,SCL*%
%TO.N,SCL*%
X115062000Y-74168000D03*
%TO.P,J4,4,SDA*%
%TO.N,SDA*%
X115062000Y-76708000D03*
%TO.P,J4,5,GPIO*%
%TO.N,ToF1_INT*%
X115062000Y-79248000D03*
%TO.P,J4,6,XSHUT*%
%TO.N,ToF1_XSHUT*%
X115062000Y-81788000D03*
%TD*%
D27*
%TO.P,Debug_in1,1,1*%
%TO.N,VDD*%
X135122000Y-79248000D03*
%TO.P,Debug_in1,2,2*%
%TO.N,SWDIO*%
X139192000Y-79248000D03*
%TO.P,Debug_in1,3,3*%
%TO.N,GND*%
X135122000Y-80518000D03*
%TO.P,Debug_in1,4,4*%
%TO.N,SWDCLK*%
X139192000Y-80518000D03*
%TO.P,Debug_in1,5,5*%
%TO.N,GND*%
X135122000Y-81788000D03*
%TO.P,Debug_in1,6,6*%
%TO.N,SWO*%
X139192000Y-81788000D03*
%TO.P,Debug_in1,7,7*%
%TO.N,unconnected-(Debug_in1-Pad7)*%
X135122000Y-83058000D03*
%TO.P,Debug_in1,8,8*%
%TO.N,unconnected-(Debug_in1-Pad8)*%
X139192000Y-83058000D03*
%TO.P,Debug_in1,9,9*%
%TO.N,GND*%
X135122000Y-84328000D03*
%TO.P,Debug_in1,10,10*%
%TO.N,NRESET*%
X139192000Y-84328000D03*
%TD*%
D28*
%TO.P,X1,1,1*%
%TO.N,Net-(IC1-XC2)*%
X140928000Y-64640000D03*
%TO.P,X1,2,2*%
%TO.N,GND*%
X140928000Y-66040000D03*
%TO.P,X1,3,3*%
%TO.N,Net-(IC1-XC1)*%
X142028000Y-66040000D03*
%TO.P,X1,4,4*%
%TO.N,GND*%
X142028000Y-64640000D03*
%TD*%
D26*
%TO.P,R1,1*%
%TO.N,Net-(IC2-VSET)*%
X123936000Y-79248000D03*
%TO.P,R1,2*%
%TO.N,Net-(R1-Pad2)*%
X121936000Y-79248000D03*
%TD*%
D13*
%TO.P,C9,1*%
%TO.N,GND*%
X141710500Y-59436000D03*
%TO.P,C9,2*%
%TO.N,Net-(IC1-XC1)*%
X143785500Y-59436000D03*
%TD*%
D29*
%TO.P,L1,1,1*%
%TO.N,VDD*%
X119888000Y-74750000D03*
%TO.P,L1,2,2*%
%TO.N,Net-(IC2-SW)*%
X119888000Y-76200000D03*
%TD*%
D12*
%TO.P,C12,1*%
%TO.N,SDA*%
X134620000Y-61362500D03*
%TO.P,C12,2*%
%TO.N,GND*%
X134620000Y-59287500D03*
%TD*%
D30*
%TO.P,C10,1*%
%TO.N,GND*%
X144526000Y-64240500D03*
%TO.P,C10,2*%
%TO.N,Net-(IC1-DEC3)*%
X144526000Y-66315500D03*
%TD*%
D31*
%TO.P,AE1,1,A*%
%TO.N,Net-(AE1-A)*%
X153670000Y-70126000D03*
D32*
%TO.P,AE1,2*%
%TO.N,N/C*%
X153670000Y-68026000D03*
%TD*%
D30*
%TO.P,C11,1*%
%TO.N,Net-(IC1-ANT)*%
X139446000Y-70082500D03*
%TO.P,C11,2*%
%TO.N,GND*%
X139446000Y-72157500D03*
%TD*%
%TO.P,C4,1*%
%TO.N,VDD*%
X130048000Y-75162500D03*
%TO.P,C4,2*%
%TO.N,GND*%
X130048000Y-77237500D03*
%TD*%
D33*
%TO.P,L2,1,1*%
%TO.N,Net-(L2-Pad1)*%
X131600000Y-63500000D03*
%TO.P,L2,2,2*%
%TO.N,Net-(IC1-DCC)*%
X133350000Y-63500000D03*
%TD*%
D34*
%TO.P,X2,1,1*%
%TO.N,Net-(IC1-P0.00{slash}XL1)*%
X127508000Y-69616000D03*
%TO.P,X2,2,2*%
%TO.N,Net-(IC1-P0.01{slash}XL2)*%
X127508000Y-72116000D03*
%TD*%
D26*
%TO.P,R2,1*%
%TO.N,VDD*%
X141970000Y-54864000D03*
%TO.P,R2,2*%
%TO.N,SDA*%
X139970000Y-54864000D03*
%TD*%
%TO.P,R4,1*%
%TO.N,Net-(R1-Pad2)*%
X119872000Y-78994000D03*
%TO.P,R4,2*%
%TO.N,GND*%
X117872000Y-78994000D03*
%TD*%
D19*
%TO.P,J2,1,VCC*%
%TO.N,VDD*%
X110719000Y-87107000D03*
D20*
%TO.P,J2,2,GND*%
%TO.N,GND*%
X110719000Y-84567000D03*
%TO.P,J2,3,SCL*%
%TO.N,SCL*%
X110719000Y-82027000D03*
%TO.P,J2,4,SDA*%
%TO.N,SDA*%
X110719000Y-79487000D03*
%TO.P,J2,5,XDA*%
%TO.N,unconnected-(J2-Pin_5-Pad5)*%
X110719000Y-76947000D03*
%TO.P,J2,6,XCL*%
%TO.N,unconnected-(J2-Pin_6-Pad6)*%
X110719000Y-74407000D03*
%TO.P,J2,7,AD0*%
%TO.N,Net-(J2-Pin_7)*%
X110719000Y-71867000D03*
%TO.P,J2,8,INT*%
%TO.N,Acc_int*%
X110719000Y-69327000D03*
%TD*%
D13*
%TO.P,C3,1*%
%TO.N,GND*%
X127219500Y-66802000D03*
%TO.P,C3,2*%
%TO.N,Net-(IC1-DEC1)*%
X129294500Y-66802000D03*
%TD*%
D18*
%TO.P,C5,1*%
%TO.N,VDD*%
X129307500Y-64516000D03*
%TO.P,C5,2*%
%TO.N,GND*%
X127232500Y-64516000D03*
%TD*%
D19*
%TO.P,J3,1,Pin_1*%
%TO.N,VDD*%
X116078000Y-65278000D03*
D20*
%TO.P,J3,2,Pin_2*%
%TO.N,Net-(J2-Pin_7)*%
X113538000Y-65278000D03*
%TO.P,J3,3,Pin_3*%
%TO.N,GND*%
X110998000Y-65278000D03*
%TD*%
D18*
%TO.P,C14,1*%
%TO.N,Net-(IC1-P0.00{slash}XL1)*%
X124460000Y-70104000D03*
%TO.P,C14,2*%
%TO.N,GND*%
X122385000Y-70104000D03*
%TD*%
D35*
%TO.N,Net-(IC2-EN)*%
X129794000Y-79502000D03*
%TO.N,GND*%
X124714000Y-57404000D03*
X120904000Y-83566000D03*
X118110000Y-77470000D03*
X122428000Y-86614000D03*
X140928000Y-67056000D03*
X130302000Y-88392000D03*
X124968000Y-77724000D03*
X121158000Y-63246000D03*
X142240000Y-87376000D03*
X140716000Y-62230000D03*
X137668000Y-62970500D03*
X140462000Y-68917500D03*
X140970000Y-72644000D03*
X144272000Y-57658000D03*
X113030000Y-67818000D03*
X112522000Y-57150000D03*
X110490000Y-62992000D03*
X134366000Y-65532000D03*
X137160000Y-59944000D03*
X130048000Y-70358000D03*
X117602000Y-68072000D03*
X113538000Y-86360000D03*
X128016000Y-77386500D03*
X135890000Y-57150000D03*
X124968000Y-65786000D03*
%TO.N,VDD*%
X137922000Y-66548000D03*
X134366000Y-78232000D03*
X131318000Y-73406000D03*
X120396000Y-73406000D03*
X130556000Y-66548000D03*
%TO.N,SDA*%
X135382000Y-62738000D03*
%TO.N,SCL*%
X137160000Y-61214000D03*
%TO.N,SWO*%
X136120500Y-74168000D03*
X141224000Y-81788000D03*
%TO.N,ToF2_INT*%
X132950122Y-74784122D03*
X130048000Y-73914000D03*
%TO.N,ToF2_XSHUT*%
X134303500Y-76200000D03*
%TD*%
D36*
%TO.N,Net-(AE1-A)*%
X148501500Y-70125500D02*
X148480000Y-70104000D01*
X151130000Y-70125500D02*
X148501500Y-70125500D01*
X151130500Y-70126000D02*
X151130000Y-70125500D01*
X153670000Y-70126000D02*
X151130500Y-70126000D01*
%TO.N,GND*%
X150101500Y-69079000D02*
X151130000Y-68050500D01*
X148270000Y-69079000D02*
X150101500Y-69079000D01*
X151359000Y-68050500D02*
X151130000Y-68050500D01*
X144618500Y-68917500D02*
X140462000Y-68917500D01*
X144780000Y-69079000D02*
X144618500Y-68917500D01*
X148656000Y-69079000D02*
X144780000Y-69079000D01*
%TO.N,Net-(J6-PadIN)*%
X143519000Y-70104000D02*
X146160000Y-70104000D01*
D37*
%TO.N,GND*%
X148270000Y-71129000D02*
X146370000Y-71129000D01*
D36*
X146370000Y-71129000D02*
X145871000Y-71628000D01*
X141986000Y-71628000D02*
X140970000Y-72644000D01*
X145871000Y-71628000D02*
X141986000Y-71628000D01*
D38*
%TO.N,Net-(IC2-EN)*%
X129794000Y-79502000D02*
X128291500Y-79502000D01*
X127560365Y-78770865D02*
X127560365Y-78486500D01*
X126759000Y-77685135D02*
X126759000Y-76962000D01*
X127560365Y-78486500D02*
X126759000Y-77685135D01*
X128291500Y-79502000D02*
X127560365Y-78770865D01*
D39*
%TO.N,GND*%
X127746000Y-86402000D02*
X128312000Y-86402000D01*
D36*
X140483500Y-72157500D02*
X140970000Y-72644000D01*
D39*
X142028000Y-64050000D02*
X140716000Y-62738000D01*
D40*
X117872000Y-78994000D02*
X117872000Y-77708000D01*
X124460000Y-77216000D02*
X124968000Y-77724000D01*
D39*
X142028000Y-64436000D02*
X142028000Y-64050000D01*
X138595000Y-69250000D02*
X138195000Y-69650000D01*
X133620000Y-68850000D02*
X134620000Y-69850000D01*
X138717058Y-69250000D02*
X138595000Y-69250000D01*
D40*
X125446000Y-77724000D02*
X125962500Y-78240500D01*
D39*
X133604000Y-68834000D02*
X133620000Y-68850000D01*
D41*
X112512000Y-86360000D02*
X113538000Y-86360000D01*
D40*
X126660000Y-75225000D02*
X125435000Y-75225000D01*
X138684000Y-59436000D02*
X138684000Y-58928000D01*
X127495000Y-67043000D02*
X127482000Y-67056000D01*
X124968000Y-77724000D02*
X125446000Y-77724000D01*
D39*
X133620000Y-66900000D02*
X133620000Y-66278000D01*
D40*
X124135000Y-76525000D02*
X124460000Y-76200000D01*
D36*
X122495000Y-70451000D02*
X122495000Y-67928000D01*
X122495000Y-67928000D02*
X122385000Y-67818000D01*
D39*
X144272000Y-57658000D02*
X146050000Y-59436000D01*
D40*
X127495000Y-65024000D02*
X127495000Y-67043000D01*
D39*
X140928000Y-67056000D02*
X140928000Y-66486000D01*
X122882183Y-68464040D02*
X122575611Y-68770612D01*
X133620000Y-66278000D02*
X134366000Y-65532000D01*
X140462000Y-68917500D02*
X139049558Y-68917500D01*
X143488500Y-57658000D02*
X144272000Y-57658000D01*
X124460000Y-73419000D02*
X124460000Y-76200000D01*
D40*
X140716000Y-62230000D02*
X141224000Y-61722000D01*
D39*
X146050000Y-62471000D02*
X144272000Y-64249000D01*
D40*
X124460000Y-76200000D02*
X124460000Y-77216000D01*
X141224000Y-61722000D02*
X141964500Y-61722000D01*
D41*
X110719000Y-84567000D02*
X112512000Y-86360000D01*
D39*
X128312000Y-86402000D02*
X130302000Y-88392000D01*
X139049558Y-68917500D02*
X138717058Y-69250000D01*
X123952000Y-65786000D02*
X122882183Y-66855817D01*
D40*
X128427500Y-76975000D02*
X130048000Y-76975000D01*
D39*
X122882183Y-66855817D02*
X122882183Y-68464040D01*
D36*
X139446000Y-72157500D02*
X140483500Y-72157500D01*
D39*
X133620000Y-66900000D02*
X133604000Y-68834000D01*
X141710500Y-59436000D02*
X141964500Y-59690000D01*
D40*
X128016000Y-77386500D02*
X128427500Y-76975000D01*
X110998000Y-67564000D02*
X110998000Y-65278000D01*
D39*
X124473000Y-73406000D02*
X124460000Y-73419000D01*
X146050000Y-59436000D02*
X146050000Y-62471000D01*
X140716000Y-62738000D02*
X140716000Y-62230000D01*
X134820000Y-69650000D02*
X134620000Y-69850000D01*
D40*
X125435000Y-75225000D02*
X124460000Y-76200000D01*
D39*
X141710500Y-59436000D02*
X143488500Y-57658000D01*
D40*
X122260000Y-76525000D02*
X124135000Y-76525000D01*
X138176000Y-58928000D02*
X137160000Y-59944000D01*
X125962500Y-78240500D02*
X125962500Y-79248000D01*
D39*
X124968000Y-65786000D02*
X126238000Y-67056000D01*
D40*
X121158000Y-63246000D02*
X121158000Y-60960000D01*
D39*
X124968000Y-65786000D02*
X123952000Y-65786000D01*
X141973000Y-62230000D02*
X140716000Y-62230000D01*
D40*
X138684000Y-58928000D02*
X138176000Y-58928000D01*
D39*
X137570000Y-69650000D02*
X134820000Y-69650000D01*
X126238000Y-67056000D02*
X127482000Y-67056000D01*
X138195000Y-69650000D02*
X137570000Y-69650000D01*
D40*
X115062000Y-71628000D02*
X110998000Y-67564000D01*
X117872000Y-77708000D02*
X118110000Y-77470000D01*
D39*
%TO.N,VDD*%
X141795000Y-57658000D02*
X141795000Y-57071000D01*
D37*
X129562305Y-75425000D02*
X129286000Y-75425000D01*
D39*
X139192000Y-61976000D02*
X139277500Y-61890500D01*
X132420000Y-66900000D02*
X130908000Y-66900000D01*
D36*
X120396000Y-73406000D02*
X122190000Y-75200000D01*
D37*
X130773000Y-74214305D02*
X129562305Y-75425000D01*
D36*
X137922000Y-66548000D02*
X137922000Y-65545000D01*
X121898500Y-75200000D02*
X122285000Y-75200000D01*
D37*
X124582000Y-72004000D02*
X123046500Y-72004000D01*
D39*
X141795000Y-57071000D02*
X141970000Y-56896000D01*
X140462000Y-58991000D02*
X141795000Y-57658000D01*
X139386817Y-61890500D02*
X140462000Y-60815317D01*
X137570000Y-67650000D02*
X137570000Y-66900000D01*
X130556000Y-66002591D02*
X129577409Y-65024000D01*
D37*
X132395000Y-72800000D02*
X131924000Y-72800000D01*
D36*
X125751500Y-60960000D02*
X123698000Y-60960000D01*
D39*
X139192000Y-65278000D02*
X139192000Y-61976000D01*
D38*
X116078000Y-68072000D02*
X115062000Y-69088000D01*
D36*
X120396000Y-74242000D02*
X120396000Y-73406000D01*
D39*
X139277500Y-61890500D02*
X139386817Y-61890500D01*
D36*
X135122000Y-78988000D02*
X134366000Y-78232000D01*
X141970000Y-56896000D02*
X141970000Y-54864000D01*
D39*
X130556000Y-66548000D02*
X130556000Y-66002591D01*
D37*
X128225000Y-74364000D02*
X126942000Y-74364000D01*
D39*
X122260000Y-75225000D02*
X122735000Y-74750000D01*
D37*
X123046500Y-72004000D02*
X121898500Y-73152000D01*
D36*
X129045000Y-65024000D02*
X129045000Y-64253500D01*
X121898500Y-73152000D02*
X120650000Y-73152000D01*
X119888000Y-74750000D02*
X120396000Y-74242000D01*
D38*
X116078000Y-65278000D02*
X116078000Y-68072000D01*
D36*
X121898500Y-73152000D02*
X121898500Y-75200000D01*
X129045000Y-64253500D02*
X125751500Y-60960000D01*
X122190000Y-75200000D02*
X122260000Y-75200000D01*
X120650000Y-73152000D02*
X120396000Y-73406000D01*
D37*
X131924000Y-72800000D02*
X130773000Y-73951000D01*
X129286000Y-75425000D02*
X128225000Y-74364000D01*
D36*
X119888000Y-74750000D02*
X122735000Y-74750000D01*
D39*
X140462000Y-60815317D02*
X140462000Y-58991000D01*
X137570000Y-66900000D02*
X139192000Y-65278000D01*
X135122000Y-79248000D02*
X135122000Y-78988000D01*
D36*
X137922000Y-65545000D02*
X137668000Y-65291000D01*
D39*
X130908000Y-66900000D02*
X130556000Y-66548000D01*
D37*
X126942000Y-74364000D02*
X124582000Y-72004000D01*
D39*
X129577409Y-65024000D02*
X129045000Y-65024000D01*
D37*
X130773000Y-73951000D02*
X130773000Y-74214305D01*
D39*
%TO.N,Net-(IC1-DEC1)*%
X129626000Y-67650000D02*
X129032000Y-67056000D01*
X131670000Y-67650000D02*
X129626000Y-67650000D01*
%TO.N,Net-(IC1-DEC4)*%
X134366000Y-64008000D02*
X133220000Y-65154000D01*
X130556000Y-59636000D02*
X132020000Y-61100000D01*
X132020000Y-61100000D02*
X132715000Y-61100000D01*
X132715000Y-61100000D02*
X134366000Y-62751000D01*
X133220000Y-65154000D02*
X133220000Y-66900000D01*
X134366000Y-62751000D02*
X134366000Y-64008000D01*
%TO.N,Net-(IC1-XC2)*%
X140778000Y-64708000D02*
X140928000Y-64708000D01*
X141259050Y-60697000D02*
X140016000Y-61940050D01*
X137570000Y-68050000D02*
X138220000Y-68050000D01*
X140016000Y-65470000D02*
X140778000Y-64708000D01*
X143014500Y-60697000D02*
X141259050Y-60697000D01*
X144039500Y-61722000D02*
X143014500Y-60697000D01*
X140016000Y-63728000D02*
X140928000Y-64640000D01*
X140016000Y-66254000D02*
X140016000Y-65470000D01*
X140016000Y-63728000D02*
X140016000Y-65470000D01*
X140016000Y-61940050D02*
X140016000Y-63728000D01*
X138220000Y-68050000D02*
X140016000Y-66254000D01*
%TO.N,Net-(IC1-XC1)*%
X144256657Y-63353000D02*
X145288000Y-62321657D01*
X139017686Y-67818000D02*
X141520000Y-67818000D01*
X145288000Y-62321657D02*
X145288000Y-60938500D01*
X143256000Y-64812000D02*
X143256000Y-63920183D01*
X138385686Y-68450000D02*
X139017686Y-67818000D01*
X142028000Y-66040000D02*
X143256000Y-64812000D01*
X143823183Y-63353000D02*
X144256657Y-63353000D01*
X145288000Y-60938500D02*
X143785500Y-59436000D01*
X138469843Y-68365843D02*
X138385686Y-68450000D01*
X143256000Y-63920183D02*
X143823183Y-63353000D01*
X141520000Y-67818000D02*
X142028000Y-67310000D01*
X137570000Y-68450000D02*
X138385686Y-68450000D01*
X142028000Y-67310000D02*
X142028000Y-66040000D01*
%TO.N,Net-(IC1-DEC3)*%
X137570000Y-68850000D02*
X138551372Y-68850000D01*
X142523686Y-68218000D02*
X144272000Y-66469686D01*
X139183372Y-68218000D02*
X142523686Y-68218000D01*
X138551372Y-68850000D02*
X139183372Y-68218000D01*
X144272000Y-66469686D02*
X144272000Y-65532000D01*
D36*
%TO.N,Net-(IC1-ANT)*%
X140961000Y-70104000D02*
X139205000Y-70104000D01*
D39*
X137570000Y-70050000D02*
X141183000Y-70050000D01*
X141183000Y-70050000D02*
X141224000Y-70091000D01*
D36*
X139205000Y-70104000D02*
X139192000Y-70091000D01*
D39*
%TO.N,SDA*%
X137992000Y-57728000D02*
X134620000Y-61100000D01*
D37*
X119793000Y-71977000D02*
X115062000Y-76708000D01*
D39*
X136420000Y-66275000D02*
X136420000Y-66900000D01*
D37*
X117253000Y-59785000D02*
X119104701Y-59785000D01*
D39*
X139970000Y-54864000D02*
X137992000Y-56842000D01*
D37*
X119793000Y-60473299D02*
X119793000Y-71977000D01*
X116078000Y-60960000D02*
X117253000Y-59785000D01*
D39*
X134620000Y-61100000D02*
X134620000Y-61976000D01*
X137992000Y-56842000D02*
X137992000Y-57728000D01*
D37*
X119104701Y-59785000D02*
X119793000Y-60473299D01*
D39*
X134620000Y-61976000D02*
X135890000Y-63246000D01*
X135890000Y-63246000D02*
X135890000Y-65745000D01*
X135890000Y-65745000D02*
X136420000Y-66275000D01*
%TO.N,SCL*%
X136144000Y-62230000D02*
X137160000Y-61214000D01*
X136290000Y-63080315D02*
X136144000Y-62934315D01*
D37*
X118618000Y-60960000D02*
X118618000Y-70612000D01*
D39*
X136820000Y-66900000D02*
X136820000Y-66109314D01*
X136290000Y-65579314D02*
X136290000Y-63080315D01*
X137160000Y-61214000D02*
X138404000Y-61214000D01*
X139954000Y-56912000D02*
X139970000Y-56896000D01*
X136820000Y-66109314D02*
X136290000Y-65579314D01*
X139954000Y-59664000D02*
X139954000Y-56912000D01*
X136144000Y-62934315D02*
X136144000Y-62230000D01*
D37*
X118618000Y-70612000D02*
X115062000Y-74168000D01*
D39*
X138404000Y-61214000D02*
X139954000Y-59664000D01*
%TO.N,Net-(IC1-P0.00{slash}XL1)*%
X125710000Y-69616000D02*
X125222000Y-70104000D01*
X127508000Y-69616000D02*
X129074000Y-68050000D01*
X127508000Y-69616000D02*
X125710000Y-69616000D01*
X129074000Y-68050000D02*
X131670000Y-68050000D01*
X125222000Y-70104000D02*
X124460000Y-70104000D01*
%TO.N,Net-(IC1-P0.01{slash}XL2)*%
X126258000Y-70866000D02*
X127508000Y-72116000D01*
X125025317Y-71129000D02*
X125288317Y-70866000D01*
X124460000Y-67818000D02*
X123444000Y-68834000D01*
X127508000Y-71887000D02*
X130945000Y-68450000D01*
X130945000Y-68450000D02*
X131670000Y-68450000D01*
X123894683Y-71129000D02*
X125025317Y-71129000D01*
X127508000Y-72116000D02*
X127508000Y-71887000D01*
X123444000Y-70678317D02*
X123894683Y-71129000D01*
X123444000Y-68834000D02*
X123444000Y-70678317D01*
X127508000Y-71882000D02*
X127508000Y-72116000D01*
X125288317Y-70866000D02*
X126258000Y-70866000D01*
%TO.N,SWDIO*%
X138245000Y-74999000D02*
X139192000Y-75946000D01*
X138245000Y-71700000D02*
X138245000Y-74999000D01*
X138195000Y-71650000D02*
X138245000Y-71700000D01*
X137570000Y-71650000D02*
X138195000Y-71650000D01*
X139192000Y-75946000D02*
X139192000Y-79248000D01*
%TO.N,SWDCLK*%
X139192000Y-80518000D02*
X138097000Y-80518000D01*
X138097000Y-80518000D02*
X137414000Y-79835000D01*
X137414000Y-72206000D02*
X137570000Y-72050000D01*
X137414000Y-79835000D02*
X137414000Y-72206000D01*
%TO.N,SWO*%
X135620000Y-73667500D02*
X135620000Y-72800000D01*
X136120500Y-74168000D02*
X135620000Y-73667500D01*
X139192000Y-81788000D02*
X141224000Y-81788000D01*
%TO.N,NRESET*%
X136820000Y-82981000D02*
X136820000Y-72800000D01*
X139192000Y-84328000D02*
X138167000Y-84328000D01*
X138167000Y-84328000D02*
X136820000Y-82981000D01*
%TO.N,Acc_int*%
X132820000Y-72800000D02*
X132820000Y-73359314D01*
X114585654Y-78098000D02*
X113284000Y-76796346D01*
X116212000Y-79636000D02*
X116212000Y-78771654D01*
X113284000Y-76796346D02*
X113284000Y-71882000D01*
X113274000Y-71882000D02*
X110719000Y-69327000D01*
X131534000Y-79424628D02*
X130440628Y-80518000D01*
X113284000Y-71882000D02*
X113274000Y-71882000D01*
X115538346Y-78098000D02*
X114585654Y-78098000D01*
X130440628Y-80518000D02*
X117094000Y-80518000D01*
X131534000Y-74645314D02*
X131534000Y-79424628D01*
X117094000Y-80518000D02*
X116212000Y-79636000D01*
X132820000Y-73359314D02*
X131534000Y-74645314D01*
X116212000Y-78771654D02*
X115538346Y-78098000D01*
%TO.N,ToF1_INT*%
X132080000Y-74665000D02*
X133220000Y-73525000D01*
X116840000Y-81026000D02*
X130498314Y-81026000D01*
X132080000Y-77666315D02*
X132080000Y-74665000D01*
X115062000Y-79248000D02*
X116840000Y-81026000D01*
X130498314Y-81026000D02*
X131934000Y-79590314D01*
X133220000Y-73525000D02*
X133220000Y-72800000D01*
X131934000Y-79590314D02*
X131934000Y-77812315D01*
X131934000Y-77812315D02*
X132080000Y-77666315D01*
%TO.N,ToF2_INT*%
X133620000Y-74114244D02*
X133620000Y-72800000D01*
D37*
X122457183Y-60481183D02*
X121311000Y-59335000D01*
X124894000Y-71554000D02*
X123718643Y-71554000D01*
X123718643Y-71554000D02*
X123318643Y-71154000D01*
X121809327Y-71154000D02*
X121412000Y-70756673D01*
X127254000Y-73914000D02*
X124894000Y-71554000D01*
D39*
X132950122Y-74784122D02*
X133620000Y-74114244D01*
D37*
X121412000Y-70756673D02*
X121412000Y-64017305D01*
X121311000Y-59335000D02*
X115163000Y-59335000D01*
X123318643Y-71154000D02*
X121809327Y-71154000D01*
X122457183Y-62972122D02*
X122457183Y-60481183D01*
X115163000Y-59335000D02*
X113538000Y-60960000D01*
X130048000Y-73914000D02*
X127254000Y-73914000D01*
X121412000Y-64017305D02*
X122457183Y-62972122D01*
D39*
%TO.N,ToF1_XSHUT*%
X134020000Y-74768000D02*
X134020000Y-72898000D01*
X133604000Y-75184000D02*
X134020000Y-74768000D01*
X132334000Y-79756000D02*
X132334000Y-77978000D01*
X133604000Y-76708000D02*
X133604000Y-75184000D01*
X130302000Y-81788000D02*
X132334000Y-79756000D01*
X115062000Y-81788000D02*
X130302000Y-81788000D01*
X132334000Y-77978000D02*
X133604000Y-76708000D01*
%TO.N,ToF2_XSHUT*%
X134936000Y-73875314D02*
X134420000Y-73359314D01*
X134420000Y-73359314D02*
X134420000Y-72800000D01*
X134303500Y-76200000D02*
X134936000Y-75567500D01*
X134936000Y-75567500D02*
X134936000Y-73875314D01*
%TO.N,Net-(IC1-DCC)*%
X132820000Y-64030000D02*
X132820000Y-66900000D01*
X133350000Y-63500000D02*
X132820000Y-64030000D01*
D40*
%TO.N,Net-(IC2-SW)*%
X122260000Y-75875000D02*
X120213000Y-75875000D01*
X120213000Y-75875000D02*
X119888000Y-76200000D01*
D36*
%TO.N,Net-(IC2-VSET)*%
X123936000Y-78470000D02*
X123936000Y-79248000D01*
X122260000Y-77470000D02*
X122936000Y-77470000D01*
X122936000Y-77470000D02*
X123936000Y-78470000D01*
D39*
%TO.N,Net-(J2-Pin_7)*%
X113538000Y-65024000D02*
X113538000Y-65278000D01*
%TO.N,Net-(L2-Pad1)*%
X130556000Y-60960000D02*
X130556000Y-62456000D01*
X130556000Y-62456000D02*
X131600000Y-63500000D01*
D40*
%TO.N,Net-(R1-Pad2)*%
X121682000Y-78994000D02*
X121936000Y-79248000D01*
X119872000Y-78994000D02*
X121682000Y-78994000D01*
%TD*%
%TA.AperFunction,Conductor*%
%TO.N,GND*%
G36*
X144977216Y-51832986D02*
G01*
X145022569Y-51878061D01*
X145039434Y-51939739D01*
X145080886Y-58696565D01*
X145061986Y-58763132D01*
X145010358Y-58809205D01*
X144942078Y-58820438D01*
X144878411Y-58793333D01*
X144839183Y-58736331D01*
X144807814Y-58641666D01*
X144715712Y-58492344D01*
X144715711Y-58492342D01*
X144591657Y-58368288D01*
X144442334Y-58276186D01*
X144275797Y-58221000D01*
X144173009Y-58210500D01*
X143397991Y-58210500D01*
X143295203Y-58221000D01*
X143128665Y-58276186D01*
X142979342Y-58368288D01*
X142855286Y-58492344D01*
X142853242Y-58495659D01*
X142808135Y-58538837D01*
X142747704Y-58554558D01*
X142687274Y-58538835D01*
X142642168Y-58495656D01*
X142640316Y-58492654D01*
X142516345Y-58368683D01*
X142427885Y-58314121D01*
X142385413Y-58270268D01*
X142369014Y-58211463D01*
X142382664Y-58151959D01*
X142423053Y-58106181D01*
X142460626Y-58092447D01*
X142459905Y-58090271D01*
X142472797Y-58085999D01*
X142639334Y-58030814D01*
X142788656Y-57938712D01*
X142912712Y-57814656D01*
X143004814Y-57665334D01*
X143059999Y-57498797D01*
X143070500Y-57396009D01*
X143070499Y-56395992D01*
X143059999Y-56293203D01*
X143004814Y-56126666D01*
X142965925Y-56063616D01*
X142912712Y-55977343D01*
X142903051Y-55967683D01*
X142870955Y-55912095D01*
X142870955Y-55847905D01*
X142903051Y-55792317D01*
X142912712Y-55782656D01*
X142952752Y-55717740D01*
X143004814Y-55633334D01*
X143059999Y-55466797D01*
X143070500Y-55364009D01*
X143070499Y-54363992D01*
X143059999Y-54261203D01*
X143004814Y-54094666D01*
X142912712Y-53945344D01*
X142912711Y-53945342D01*
X142788657Y-53821288D01*
X142639334Y-53729186D01*
X142472797Y-53674000D01*
X142370009Y-53663500D01*
X141569991Y-53663500D01*
X141467203Y-53674000D01*
X141300665Y-53729186D01*
X141151342Y-53821288D01*
X141057681Y-53914950D01*
X141002094Y-53947044D01*
X140937906Y-53947044D01*
X140882319Y-53914950D01*
X140788657Y-53821288D01*
X140639334Y-53729186D01*
X140472797Y-53674000D01*
X140370009Y-53663500D01*
X139569991Y-53663500D01*
X139467203Y-53674000D01*
X139300665Y-53729186D01*
X139151342Y-53821288D01*
X139027288Y-53945342D01*
X138935186Y-54094665D01*
X138880000Y-54261202D01*
X138869500Y-54363991D01*
X138869500Y-55063902D01*
X138860061Y-55111355D01*
X138833181Y-55151583D01*
X137600965Y-56383798D01*
X137588774Y-56394490D01*
X137563721Y-56413715D01*
X137563719Y-56413716D01*
X137563718Y-56413718D01*
X137508288Y-56485956D01*
X137482874Y-56519075D01*
X137467462Y-56539161D01*
X137406956Y-56685237D01*
X137386317Y-56841999D01*
X137390439Y-56873301D01*
X137391500Y-56889487D01*
X137391500Y-57427903D01*
X137382061Y-57475356D01*
X137355181Y-57515584D01*
X136036132Y-58834631D01*
X135982283Y-58866245D01*
X135919855Y-58867608D01*
X135864678Y-58838373D01*
X135830745Y-58785954D01*
X135779357Y-58630877D01*
X135687316Y-58481654D01*
X135563345Y-58357683D01*
X135414122Y-58265642D01*
X135247696Y-58210493D01*
X135144979Y-58200000D01*
X134870000Y-58200000D01*
X134870000Y-59413500D01*
X134853387Y-59475500D01*
X134808000Y-59520887D01*
X134746000Y-59537500D01*
X133479000Y-59537500D01*
X133417000Y-59520887D01*
X133371613Y-59475500D01*
X133355000Y-59413500D01*
X133355000Y-59410500D01*
X132208000Y-59410500D01*
X132146000Y-59393887D01*
X132100613Y-59348500D01*
X132084000Y-59286500D01*
X132084000Y-58073001D01*
X131809021Y-58073001D01*
X131706304Y-58083493D01*
X131539877Y-58138642D01*
X131390654Y-58230683D01*
X131266683Y-58354654D01*
X131174642Y-58503877D01*
X131119493Y-58670303D01*
X131114899Y-58715274D01*
X131096712Y-58768360D01*
X131056986Y-58807993D01*
X131003858Y-58826057D01*
X130948208Y-58818852D01*
X130909485Y-58804409D01*
X130889613Y-58802272D01*
X130849873Y-58798000D01*
X130849869Y-58798000D01*
X129754130Y-58798000D01*
X129694515Y-58804409D01*
X129559669Y-58854704D01*
X129444454Y-58940954D01*
X129358204Y-59056168D01*
X129307909Y-59191016D01*
X129301500Y-59250630D01*
X129301500Y-60021369D01*
X129307909Y-60080984D01*
X129312079Y-60092164D01*
X129358204Y-60215831D01*
X129363503Y-60222909D01*
X129364087Y-60223689D01*
X129385985Y-60271640D01*
X129385986Y-60324354D01*
X129364089Y-60372305D01*
X129358204Y-60380165D01*
X129307909Y-60515014D01*
X129301500Y-60574630D01*
X129301500Y-61345369D01*
X129307909Y-61404984D01*
X129319551Y-61436198D01*
X129358204Y-61539831D01*
X129444454Y-61655046D01*
X129559669Y-61741296D01*
X129694517Y-61791591D01*
X129754127Y-61798000D01*
X129831500Y-61798000D01*
X129893500Y-61814613D01*
X129938887Y-61860000D01*
X129955500Y-61922000D01*
X129955500Y-62408513D01*
X129954439Y-62424699D01*
X129950317Y-62456000D01*
X129955500Y-62495360D01*
X129955500Y-62495361D01*
X129970956Y-62612762D01*
X130031463Y-62758840D01*
X130127716Y-62884281D01*
X130152768Y-62903503D01*
X130164964Y-62914199D01*
X130538181Y-63287416D01*
X130565061Y-63327644D01*
X130574500Y-63375097D01*
X130574500Y-63691658D01*
X130555274Y-63757979D01*
X130503557Y-63803734D01*
X130435387Y-63814734D01*
X130371903Y-63787567D01*
X130332794Y-63730661D01*
X130329814Y-63721666D01*
X130237712Y-63572344D01*
X130237711Y-63572342D01*
X130113657Y-63448288D01*
X129964334Y-63356186D01*
X129797797Y-63301000D01*
X129695009Y-63290500D01*
X129194729Y-63290500D01*
X129147276Y-63281061D01*
X129107048Y-63254181D01*
X126327228Y-60474360D01*
X126315446Y-60460727D01*
X126301109Y-60441469D01*
X126263166Y-60409631D01*
X126255191Y-60402323D01*
X126251282Y-60398414D01*
X126251281Y-60398413D01*
X126251277Y-60398409D01*
X126226923Y-60379152D01*
X126224147Y-60376890D01*
X126165751Y-60327890D01*
X126149321Y-60317422D01*
X126080191Y-60285186D01*
X126076947Y-60283615D01*
X126008806Y-60249394D01*
X125990403Y-60242997D01*
X125915711Y-60227574D01*
X125912192Y-60226794D01*
X125837990Y-60209208D01*
X125818621Y-60207229D01*
X125742369Y-60209448D01*
X125738763Y-60209500D01*
X125172499Y-60209500D01*
X125110499Y-60192887D01*
X125065112Y-60147500D01*
X125048499Y-60085500D01*
X125048499Y-60062130D01*
X125044576Y-60025635D01*
X125042091Y-60002517D01*
X124991796Y-59867669D01*
X124905546Y-59752454D01*
X124790331Y-59666204D01*
X124655483Y-59615909D01*
X124595873Y-59609500D01*
X124595869Y-59609500D01*
X122800130Y-59609500D01*
X122740513Y-59615909D01*
X122622884Y-59659782D01*
X122553193Y-59664766D01*
X122491871Y-59631281D01*
X122174365Y-59313775D01*
X121811802Y-58951211D01*
X121798906Y-58935113D01*
X121747775Y-58887098D01*
X121744978Y-58884387D01*
X121725470Y-58864879D01*
X121722290Y-58862412D01*
X121713424Y-58854839D01*
X121681582Y-58824938D01*
X121664024Y-58815285D01*
X121647764Y-58804604D01*
X121631936Y-58792327D01*
X121591851Y-58774980D01*
X121581361Y-58769841D01*
X121543091Y-58748802D01*
X121523691Y-58743821D01*
X121505284Y-58737519D01*
X121486897Y-58729562D01*
X121443758Y-58722729D01*
X121432324Y-58720361D01*
X121390019Y-58709500D01*
X121369984Y-58709500D01*
X121350586Y-58707973D01*
X121343162Y-58706797D01*
X121330805Y-58704840D01*
X121330804Y-58704840D01*
X121304484Y-58707328D01*
X121287325Y-58708950D01*
X121275656Y-58709500D01*
X115245741Y-58709500D01*
X115225237Y-58707236D01*
X115155145Y-58709439D01*
X115151251Y-58709500D01*
X115123648Y-58709500D01*
X115119653Y-58710004D01*
X115108029Y-58710918D01*
X115064368Y-58712290D01*
X115045128Y-58717880D01*
X115026081Y-58721825D01*
X115006209Y-58724335D01*
X114965599Y-58740413D01*
X114954554Y-58744194D01*
X114912610Y-58756381D01*
X114895365Y-58766579D01*
X114877904Y-58775133D01*
X114859267Y-58782512D01*
X114823931Y-58808185D01*
X114814174Y-58814595D01*
X114776580Y-58836829D01*
X114762413Y-58850996D01*
X114747624Y-58863626D01*
X114731413Y-58875404D01*
X114703572Y-58909058D01*
X114695711Y-58917697D01*
X113993646Y-59619762D01*
X113938058Y-59651856D01*
X113873872Y-59651856D01*
X113813221Y-59635604D01*
X113773405Y-59624936D01*
X113538000Y-59604340D01*
X113302592Y-59624936D01*
X113074336Y-59686097D01*
X112860170Y-59785965D01*
X112666598Y-59921505D01*
X112499505Y-60088598D01*
X112369575Y-60274159D01*
X112325257Y-60313025D01*
X112268000Y-60327036D01*
X112210743Y-60313025D01*
X112166425Y-60274159D01*
X112093189Y-60169567D01*
X112036495Y-60088599D01*
X111869401Y-59921505D01*
X111675830Y-59785965D01*
X111461663Y-59686097D01*
X111400501Y-59669709D01*
X111233407Y-59624936D01*
X110998000Y-59604340D01*
X110762592Y-59624936D01*
X110534336Y-59686097D01*
X110320170Y-59785965D01*
X110126598Y-59921505D01*
X109959505Y-60088598D01*
X109823965Y-60282170D01*
X109724097Y-60496336D01*
X109662936Y-60724592D01*
X109642340Y-60960000D01*
X109662936Y-61195407D01*
X109703118Y-61345369D01*
X109724097Y-61423663D01*
X109823965Y-61637830D01*
X109959505Y-61831401D01*
X110126599Y-61998495D01*
X110320170Y-62134035D01*
X110534337Y-62233903D01*
X110762592Y-62295063D01*
X110998000Y-62315659D01*
X111233408Y-62295063D01*
X111461663Y-62233903D01*
X111675830Y-62134035D01*
X111869401Y-61998495D01*
X112036495Y-61831401D01*
X112166426Y-61645839D01*
X112210743Y-61606975D01*
X112268000Y-61592964D01*
X112325257Y-61606975D01*
X112369573Y-61645839D01*
X112499505Y-61831401D01*
X112666599Y-61998495D01*
X112860170Y-62134035D01*
X113074337Y-62233903D01*
X113302592Y-62295063D01*
X113538000Y-62315659D01*
X113773408Y-62295063D01*
X114001663Y-62233903D01*
X114215830Y-62134035D01*
X114409401Y-61998495D01*
X114576495Y-61831401D01*
X114706426Y-61645839D01*
X114750743Y-61606975D01*
X114808000Y-61592964D01*
X114865257Y-61606975D01*
X114909573Y-61645839D01*
X115039505Y-61831401D01*
X115206599Y-61998495D01*
X115400170Y-62134035D01*
X115614337Y-62233903D01*
X115842592Y-62295063D01*
X116078000Y-62315659D01*
X116313408Y-62295063D01*
X116541663Y-62233903D01*
X116755830Y-62134035D01*
X116949401Y-61998495D01*
X117116495Y-61831401D01*
X117246426Y-61645839D01*
X117290743Y-61606975D01*
X117348000Y-61592964D01*
X117405257Y-61606975D01*
X117449573Y-61645839D01*
X117579505Y-61831401D01*
X117746599Y-61998495D01*
X117939625Y-62133653D01*
X117978489Y-62177970D01*
X117992500Y-62235227D01*
X117992500Y-70301547D01*
X117983061Y-70349000D01*
X117956181Y-70389228D01*
X116503727Y-71841681D01*
X116463499Y-71868561D01*
X116416046Y-71878000D01*
X114936000Y-71878000D01*
X114874000Y-71861387D01*
X114828613Y-71816000D01*
X114812000Y-71754000D01*
X114812000Y-71502000D01*
X114828613Y-71440000D01*
X114874000Y-71394613D01*
X114936000Y-71378000D01*
X116392636Y-71378000D01*
X116392635Y-71377999D01*
X116335430Y-71164507D01*
X116235599Y-70950421D01*
X116100109Y-70756921D01*
X115978053Y-70634865D01*
X115946757Y-70582119D01*
X115944568Y-70520826D01*
X115972021Y-70465981D01*
X116022398Y-70431003D01*
X116154331Y-70381796D01*
X116269546Y-70295546D01*
X116355796Y-70180331D01*
X116406091Y-70045483D01*
X116412500Y-69985873D01*
X116412499Y-69203780D01*
X116421938Y-69156328D01*
X116448815Y-69116103D01*
X116775390Y-68789528D01*
X116777560Y-68787412D01*
X116841053Y-68727059D01*
X116874759Y-68678630D01*
X116880428Y-68671113D01*
X116886216Y-68664015D01*
X116917698Y-68625407D01*
X116931783Y-68598439D01*
X116939918Y-68585015D01*
X116946373Y-68575740D01*
X116957295Y-68560049D01*
X116980568Y-68505815D01*
X116984598Y-68497331D01*
X116997607Y-68472429D01*
X117011909Y-68445049D01*
X117020278Y-68415797D01*
X117025534Y-68401032D01*
X117037540Y-68373058D01*
X117049418Y-68315256D01*
X117051651Y-68306156D01*
X117067887Y-68249418D01*
X117070197Y-68219077D01*
X117072376Y-68203535D01*
X117078500Y-68173741D01*
X117078500Y-68114758D01*
X117078858Y-68105344D01*
X117078964Y-68103946D01*
X117083337Y-68046524D01*
X117079493Y-68016348D01*
X117078500Y-68000683D01*
X117078500Y-66692142D01*
X117088512Y-66643330D01*
X117116929Y-66602400D01*
X117159165Y-66575961D01*
X117161651Y-66575033D01*
X117170331Y-66571796D01*
X117285546Y-66485546D01*
X117371796Y-66370331D01*
X117422091Y-66235483D01*
X117428500Y-66175873D01*
X117428499Y-64380128D01*
X117422091Y-64320517D01*
X117371796Y-64185669D01*
X117285546Y-64070454D01*
X117170331Y-63984204D01*
X117035483Y-63933909D01*
X116975873Y-63927500D01*
X116975869Y-63927500D01*
X115180130Y-63927500D01*
X115120515Y-63933909D01*
X114985669Y-63984204D01*
X114870454Y-64070454D01*
X114784204Y-64185669D01*
X114735189Y-64317083D01*
X114700209Y-64367462D01*
X114645365Y-64394915D01*
X114584072Y-64392726D01*
X114531326Y-64361430D01*
X114409404Y-64239508D01*
X114409403Y-64239507D01*
X114409401Y-64239505D01*
X114215830Y-64103965D01*
X114001663Y-64004097D01*
X113940501Y-63987709D01*
X113773407Y-63942936D01*
X113538000Y-63922340D01*
X113302592Y-63942936D01*
X113074336Y-64004097D01*
X112860170Y-64103965D01*
X112666598Y-64239505D01*
X112499508Y-64406595D01*
X112499505Y-64406598D01*
X112499505Y-64406599D01*
X112419952Y-64520213D01*
X112369269Y-64592596D01*
X112324951Y-64631461D01*
X112267694Y-64645472D01*
X112210437Y-64631461D01*
X112166119Y-64592595D01*
X112036109Y-64406921D01*
X111869081Y-64239893D01*
X111675576Y-64104399D01*
X111461492Y-64004569D01*
X111248000Y-63947364D01*
X111248000Y-66608635D01*
X111461492Y-66551430D01*
X111675576Y-66451600D01*
X111869081Y-66316106D01*
X112036109Y-66149078D01*
X112166119Y-65963405D01*
X112210437Y-65924539D01*
X112267694Y-65910528D01*
X112324951Y-65924539D01*
X112369267Y-65963402D01*
X112499505Y-66149401D01*
X112666599Y-66316495D01*
X112860170Y-66452035D01*
X113074337Y-66551903D01*
X113302592Y-66613063D01*
X113538000Y-66633659D01*
X113773408Y-66613063D01*
X114001663Y-66551903D01*
X114215830Y-66452035D01*
X114409401Y-66316495D01*
X114531329Y-66194566D01*
X114584072Y-66163273D01*
X114645365Y-66161084D01*
X114700209Y-66188537D01*
X114735189Y-66238916D01*
X114753787Y-66288780D01*
X114784204Y-66370331D01*
X114870454Y-66485546D01*
X114985669Y-66571796D01*
X114993478Y-66574708D01*
X114996835Y-66575961D01*
X115039071Y-66602400D01*
X115067488Y-66643330D01*
X115077500Y-66692142D01*
X115077500Y-67606216D01*
X115068059Y-67653673D01*
X115041175Y-67693903D01*
X115033890Y-67701187D01*
X114993664Y-67728063D01*
X114946215Y-67737500D01*
X114164130Y-67737500D01*
X114104515Y-67743909D01*
X113969669Y-67794204D01*
X113854454Y-67880454D01*
X113768204Y-67995668D01*
X113723786Y-68114758D01*
X113717909Y-68130517D01*
X113715496Y-68152965D01*
X113711500Y-68190130D01*
X113711500Y-69985869D01*
X113717909Y-70045484D01*
X113743056Y-70112906D01*
X113768204Y-70180331D01*
X113854454Y-70295546D01*
X113969669Y-70381796D01*
X114101598Y-70431002D01*
X114151978Y-70465981D01*
X114179431Y-70520825D01*
X114177242Y-70582118D01*
X114145947Y-70634865D01*
X114023888Y-70756924D01*
X113888400Y-70950421D01*
X113788569Y-71164507D01*
X113763256Y-71258978D01*
X113731162Y-71314565D01*
X113675574Y-71346659D01*
X113611387Y-71346659D01*
X113555800Y-71314565D01*
X112051766Y-69810531D01*
X112019672Y-69754943D01*
X112019672Y-69690756D01*
X112034005Y-69637265D01*
X112054063Y-69562408D01*
X112074659Y-69327000D01*
X112054063Y-69091592D01*
X111992903Y-68863337D01*
X111893035Y-68649171D01*
X111757495Y-68455599D01*
X111590401Y-68288505D01*
X111396830Y-68152965D01*
X111182663Y-68053097D01*
X111121501Y-68036709D01*
X110954407Y-67991936D01*
X110719000Y-67971340D01*
X110483592Y-67991936D01*
X110255336Y-68053097D01*
X110041170Y-68152965D01*
X109847598Y-68288505D01*
X109680505Y-68455598D01*
X109544965Y-68649170D01*
X109445097Y-68863336D01*
X109383936Y-69091592D01*
X109363340Y-69327000D01*
X109383936Y-69562407D01*
X109418327Y-69690756D01*
X109445097Y-69790663D01*
X109544965Y-70004830D01*
X109680505Y-70198401D01*
X109847599Y-70365495D01*
X110033160Y-70495426D01*
X110072024Y-70539743D01*
X110086035Y-70597000D01*
X110072024Y-70654257D01*
X110033158Y-70698575D01*
X109980882Y-70735180D01*
X109847595Y-70828508D01*
X109680505Y-70995598D01*
X109544965Y-71189170D01*
X109445097Y-71403336D01*
X109383936Y-71631592D01*
X109363340Y-71866999D01*
X109383936Y-72102407D01*
X109413785Y-72213803D01*
X109445097Y-72330663D01*
X109544965Y-72544830D01*
X109680505Y-72738401D01*
X109847599Y-72905495D01*
X110033160Y-73035426D01*
X110072024Y-73079743D01*
X110086035Y-73137000D01*
X110072024Y-73194257D01*
X110033158Y-73238575D01*
X109961859Y-73288500D01*
X109847595Y-73368508D01*
X109680505Y-73535598D01*
X109544965Y-73729170D01*
X109445097Y-73943336D01*
X109383936Y-74171592D01*
X109363340Y-74407000D01*
X109383936Y-74642407D01*
X109411789Y-74746356D01*
X109445097Y-74870663D01*
X109544965Y-75084830D01*
X109680505Y-75278401D01*
X109847599Y-75445495D01*
X110033160Y-75575426D01*
X110072024Y-75619743D01*
X110086035Y-75677000D01*
X110072024Y-75734257D01*
X110033158Y-75778575D01*
X109863215Y-75897571D01*
X109847595Y-75908508D01*
X109680505Y-76075598D01*
X109544965Y-76269170D01*
X109445097Y-76483336D01*
X109383936Y-76711592D01*
X109363340Y-76946999D01*
X109383936Y-77182407D01*
X109423657Y-77330647D01*
X109445097Y-77410663D01*
X109544965Y-77624830D01*
X109680505Y-77818401D01*
X109847599Y-77985495D01*
X110033160Y-78115426D01*
X110072024Y-78159743D01*
X110086035Y-78217000D01*
X110072024Y-78274257D01*
X110033159Y-78318575D01*
X109847595Y-78448508D01*
X109680505Y-78615598D01*
X109544965Y-78809170D01*
X109445097Y-79023336D01*
X109383936Y-79251592D01*
X109363340Y-79487000D01*
X109383936Y-79722407D01*
X109420893Y-79860331D01*
X109445097Y-79950663D01*
X109544965Y-80164830D01*
X109680505Y-80358401D01*
X109847599Y-80525495D01*
X110033160Y-80655426D01*
X110072024Y-80699743D01*
X110086035Y-80757000D01*
X110072024Y-80814257D01*
X110033159Y-80858575D01*
X109847595Y-80988508D01*
X109680505Y-81155598D01*
X109544965Y-81349170D01*
X109445097Y-81563336D01*
X109383936Y-81791592D01*
X109363340Y-82026999D01*
X109383936Y-82262407D01*
X109413581Y-82373043D01*
X109445097Y-82490663D01*
X109544965Y-82704830D01*
X109680505Y-82898401D01*
X109847599Y-83065495D01*
X110033597Y-83195732D01*
X110072460Y-83240048D01*
X110086471Y-83297305D01*
X110072461Y-83354561D01*
X110033595Y-83398880D01*
X109847919Y-83528892D01*
X109680890Y-83695921D01*
X109545400Y-83889421D01*
X109445569Y-84103507D01*
X109388364Y-84316999D01*
X109388364Y-84317000D01*
X112049636Y-84317000D01*
X112049635Y-84316999D01*
X111992430Y-84103507D01*
X111892599Y-83889421D01*
X111757109Y-83695921D01*
X111590081Y-83528893D01*
X111404404Y-83398880D01*
X111365539Y-83354562D01*
X111351528Y-83297305D01*
X111365539Y-83240048D01*
X111404402Y-83195732D01*
X111590401Y-83065495D01*
X111757495Y-82898401D01*
X111893035Y-82704830D01*
X111992903Y-82490663D01*
X112054063Y-82262408D01*
X112074659Y-82027000D01*
X112070219Y-81976257D01*
X112054063Y-81791592D01*
X112053100Y-81787999D01*
X111992903Y-81563337D01*
X111893035Y-81349171D01*
X111757495Y-81155599D01*
X111590401Y-80988505D01*
X111404839Y-80858573D01*
X111365974Y-80814255D01*
X111351964Y-80756999D01*
X111365975Y-80699742D01*
X111404837Y-80655428D01*
X111590401Y-80525495D01*
X111757495Y-80358401D01*
X111893035Y-80164830D01*
X111992903Y-79950663D01*
X112054063Y-79722408D01*
X112074659Y-79487000D01*
X112054063Y-79251592D01*
X111992903Y-79023337D01*
X111893035Y-78809171D01*
X111757495Y-78615599D01*
X111590401Y-78448505D01*
X111404839Y-78318573D01*
X111365975Y-78274257D01*
X111351964Y-78217000D01*
X111365975Y-78159743D01*
X111404839Y-78115426D01*
X111590401Y-77985495D01*
X111757495Y-77818401D01*
X111893035Y-77624830D01*
X111992903Y-77410663D01*
X112054063Y-77182408D01*
X112074659Y-76947000D01*
X112054063Y-76711592D01*
X111992903Y-76483337D01*
X111893035Y-76269171D01*
X111757495Y-76075599D01*
X111590401Y-75908505D01*
X111404839Y-75778573D01*
X111365975Y-75734257D01*
X111351964Y-75677000D01*
X111365975Y-75619743D01*
X111404839Y-75575426D01*
X111590401Y-75445495D01*
X111757495Y-75278401D01*
X111893035Y-75084830D01*
X111992903Y-74870663D01*
X112054063Y-74642408D01*
X112074659Y-74407000D01*
X112054063Y-74171592D01*
X111992903Y-73943337D01*
X111893035Y-73729171D01*
X111757495Y-73535599D01*
X111590401Y-73368505D01*
X111404839Y-73238573D01*
X111365975Y-73194257D01*
X111351964Y-73137000D01*
X111365975Y-73079743D01*
X111404839Y-73035426D01*
X111590401Y-72905495D01*
X111757495Y-72738401D01*
X111893035Y-72544830D01*
X111992903Y-72330663D01*
X112054063Y-72102408D01*
X112074659Y-71867000D01*
X112072222Y-71839157D01*
X112081608Y-71779898D01*
X112117715Y-71731982D01*
X112172090Y-71706626D01*
X112232005Y-71709766D01*
X112283432Y-71740667D01*
X112647181Y-72104416D01*
X112674061Y-72144644D01*
X112683500Y-72192097D01*
X112683500Y-76748859D01*
X112682439Y-76765045D01*
X112678317Y-76796346D01*
X112684781Y-76845436D01*
X112684781Y-76845437D01*
X112698956Y-76953108D01*
X112759463Y-77099186D01*
X112855716Y-77224627D01*
X112880768Y-77243849D01*
X112892964Y-77254545D01*
X113946436Y-78308017D01*
X113976461Y-78356694D01*
X113981446Y-78413669D01*
X113960330Y-78466821D01*
X113887965Y-78570169D01*
X113788097Y-78784336D01*
X113726936Y-79012592D01*
X113706340Y-79248000D01*
X113726936Y-79483407D01*
X113757319Y-79596797D01*
X113788097Y-79711663D01*
X113887965Y-79925830D01*
X114023505Y-80119401D01*
X114190599Y-80286495D01*
X114376160Y-80416426D01*
X114415024Y-80460743D01*
X114429035Y-80518000D01*
X114415024Y-80575257D01*
X114376159Y-80619575D01*
X114190595Y-80749508D01*
X114023505Y-80916598D01*
X113887965Y-81110170D01*
X113788097Y-81324336D01*
X113726936Y-81552592D01*
X113706340Y-81787999D01*
X113726936Y-82023407D01*
X113768637Y-82179035D01*
X113788097Y-82251663D01*
X113887965Y-82465830D01*
X114023505Y-82659401D01*
X114190599Y-82826495D01*
X114384170Y-82962035D01*
X114598337Y-83061903D01*
X114826592Y-83123063D01*
X115062000Y-83143659D01*
X115297408Y-83123063D01*
X115525663Y-83061903D01*
X115739830Y-82962035D01*
X115933401Y-82826495D01*
X116100495Y-82659401D01*
X116236035Y-82465830D01*
X116238709Y-82460094D01*
X116284466Y-82407919D01*
X116351091Y-82388500D01*
X130254513Y-82388500D01*
X130270697Y-82389560D01*
X130302000Y-82393682D01*
X130458762Y-82373044D01*
X130586300Y-82320216D01*
X130642888Y-82296777D01*
X130666013Y-82265596D01*
X130730282Y-82216282D01*
X130749509Y-82191223D01*
X130760190Y-82179043D01*
X132171233Y-80768000D01*
X133227000Y-80768000D01*
X133227000Y-80935824D01*
X133233402Y-80995377D01*
X133276030Y-81109667D01*
X133283848Y-81153000D01*
X133276030Y-81196333D01*
X133233402Y-81310622D01*
X133227000Y-81370176D01*
X133227000Y-81538000D01*
X134872000Y-81538000D01*
X134872000Y-80768000D01*
X133227000Y-80768000D01*
X132171233Y-80768000D01*
X132725043Y-80214190D01*
X132737223Y-80203509D01*
X132762282Y-80184282D01*
X132858536Y-80058841D01*
X132919044Y-79912762D01*
X132922995Y-79882750D01*
X132939682Y-79756000D01*
X132935560Y-79724697D01*
X132934500Y-79708513D01*
X132934500Y-78278097D01*
X132943939Y-78230644D01*
X132970816Y-78190418D01*
X133289747Y-77871487D01*
X133346585Y-77839068D01*
X133412017Y-77840095D01*
X133467814Y-77874287D01*
X133498436Y-77932120D01*
X133495355Y-77997488D01*
X133480326Y-78043743D01*
X133460540Y-78232000D01*
X133474641Y-78366171D01*
X133464957Y-78428757D01*
X133425632Y-78478398D01*
X133369454Y-78520452D01*
X133283204Y-78635668D01*
X133232909Y-78770516D01*
X133226500Y-78830130D01*
X133226500Y-79665869D01*
X133232909Y-79725484D01*
X133275763Y-79840381D01*
X133283581Y-79883714D01*
X133275763Y-79927047D01*
X133233402Y-80040622D01*
X133227000Y-80100176D01*
X133227000Y-80268000D01*
X135248000Y-80268000D01*
X135310000Y-80284613D01*
X135355387Y-80330000D01*
X135372000Y-80392000D01*
X135372000Y-81914000D01*
X135355387Y-81976000D01*
X135310000Y-82021387D01*
X135248000Y-82038000D01*
X133227000Y-82038000D01*
X133227000Y-82205824D01*
X133233402Y-82265377D01*
X133275763Y-82378952D01*
X133283581Y-82422285D01*
X133275763Y-82465618D01*
X133232909Y-82580514D01*
X133226500Y-82640130D01*
X133226500Y-83475869D01*
X133232909Y-83535484D01*
X133275763Y-83650381D01*
X133283581Y-83693714D01*
X133275763Y-83737047D01*
X133233402Y-83850622D01*
X133227000Y-83910176D01*
X133227000Y-84078000D01*
X137016403Y-84078000D01*
X137063856Y-84087439D01*
X137104084Y-84114319D01*
X137260181Y-84270416D01*
X137287061Y-84310644D01*
X137296500Y-84358097D01*
X137296500Y-84745869D01*
X137302909Y-84805484D01*
X137328056Y-84872906D01*
X137353204Y-84940331D01*
X137439454Y-85055546D01*
X137554669Y-85141796D01*
X137689517Y-85192091D01*
X137749127Y-85198500D01*
X140634872Y-85198499D01*
X140694483Y-85192091D01*
X140829331Y-85141796D01*
X140944546Y-85055546D01*
X141030796Y-84940331D01*
X141081091Y-84805483D01*
X141087500Y-84745873D01*
X141087499Y-83910128D01*
X141081091Y-83850517D01*
X141038502Y-83736332D01*
X141030685Y-83693000D01*
X141038502Y-83649668D01*
X141081091Y-83535483D01*
X141087500Y-83475873D01*
X141087499Y-82812499D01*
X141104112Y-82750500D01*
X141149499Y-82705113D01*
X141211499Y-82688500D01*
X141318648Y-82688500D01*
X141455547Y-82659401D01*
X141503803Y-82649144D01*
X141676730Y-82572151D01*
X141788889Y-82490663D01*
X141829870Y-82460889D01*
X141956533Y-82320216D01*
X142051179Y-82156284D01*
X142094353Y-82023408D01*
X142109674Y-81976256D01*
X142129460Y-81788000D01*
X142109674Y-81599744D01*
X142051179Y-81419716D01*
X142051179Y-81419715D01*
X141956533Y-81255783D01*
X141829870Y-81115110D01*
X141676730Y-81003848D01*
X141503802Y-80926855D01*
X141318648Y-80887500D01*
X141318646Y-80887500D01*
X141211499Y-80887500D01*
X141149499Y-80870887D01*
X141104112Y-80825500D01*
X141087499Y-80763500D01*
X141087499Y-80100130D01*
X141083378Y-80061796D01*
X141081091Y-80040517D01*
X141038500Y-79926326D01*
X141030684Y-79883000D01*
X141038502Y-79839668D01*
X141069709Y-79756000D01*
X141081090Y-79725487D01*
X141081090Y-79725485D01*
X141081091Y-79725483D01*
X141087500Y-79665873D01*
X141087499Y-78830128D01*
X141081091Y-78770517D01*
X141030796Y-78635669D01*
X140944546Y-78520454D01*
X140829331Y-78434204D01*
X140694483Y-78383909D01*
X140634873Y-78377500D01*
X140634869Y-78377500D01*
X139916500Y-78377500D01*
X139854500Y-78360887D01*
X139809113Y-78315500D01*
X139792500Y-78253500D01*
X139792500Y-75993487D01*
X139793561Y-75977301D01*
X139794635Y-75969144D01*
X139797682Y-75946000D01*
X139777044Y-75789238D01*
X139716536Y-75643159D01*
X139692843Y-75612282D01*
X139658446Y-75567454D01*
X139620282Y-75517717D01*
X139595229Y-75498494D01*
X139583034Y-75487799D01*
X138881819Y-74786584D01*
X138854939Y-74746356D01*
X138845500Y-74698903D01*
X138845500Y-73369000D01*
X138862113Y-73307000D01*
X138907500Y-73261613D01*
X138969500Y-73245000D01*
X139196000Y-73245000D01*
X139196000Y-72407500D01*
X139696000Y-72407500D01*
X139696000Y-73244999D01*
X139970979Y-73244999D01*
X140073695Y-73234506D01*
X140240122Y-73179357D01*
X140389345Y-73087316D01*
X140513316Y-72963345D01*
X140605357Y-72814122D01*
X140660506Y-72647696D01*
X140671000Y-72544979D01*
X140671000Y-72407500D01*
X139696000Y-72407500D01*
X139196000Y-72407500D01*
X139196000Y-72031500D01*
X139212613Y-71969500D01*
X139258000Y-71924113D01*
X139320000Y-71907500D01*
X140670999Y-71907500D01*
X140670999Y-71770021D01*
X140660506Y-71667304D01*
X140605357Y-71500877D01*
X140513316Y-71351654D01*
X140389344Y-71227682D01*
X140386343Y-71225831D01*
X140343162Y-71180723D01*
X140327440Y-71120290D01*
X140343164Y-71059858D01*
X140386344Y-71014754D01*
X140389656Y-71012712D01*
X140389658Y-71012709D01*
X140400030Y-71006313D01*
X140451926Y-70988558D01*
X140506403Y-70994927D01*
X140552804Y-71024173D01*
X140675342Y-71146711D01*
X140675344Y-71146712D01*
X140824666Y-71238814D01*
X140923964Y-71271718D01*
X140991202Y-71293999D01*
X141001702Y-71295071D01*
X141093991Y-71304500D01*
X141844008Y-71304499D01*
X141946797Y-71293999D01*
X142113334Y-71238814D01*
X142262656Y-71146712D01*
X142386712Y-71022656D01*
X142388460Y-71019821D01*
X142433568Y-70976640D01*
X142494000Y-70960917D01*
X142554432Y-70976640D01*
X142599539Y-71019821D01*
X142601288Y-71022657D01*
X142725342Y-71146711D01*
X142725344Y-71146712D01*
X142874666Y-71238814D01*
X142973964Y-71271718D01*
X143041202Y-71293999D01*
X143051702Y-71295071D01*
X143143991Y-71304500D01*
X143894008Y-71304499D01*
X143996797Y-71293999D01*
X144163334Y-71238814D01*
X144312656Y-71146712D01*
X144436712Y-71022656D01*
X144481267Y-70950421D01*
X144504099Y-70913404D01*
X144549206Y-70870223D01*
X144609638Y-70854500D01*
X145032233Y-70854500D01*
X145094013Y-70870986D01*
X145139366Y-70916061D01*
X145156231Y-70977739D01*
X145179834Y-74825000D01*
X145267313Y-89084100D01*
X145274765Y-90298741D01*
X145258408Y-90361060D01*
X145212987Y-90406760D01*
X145150768Y-90423500D01*
X108328500Y-90423500D01*
X108266500Y-90406887D01*
X108221113Y-90361500D01*
X108204500Y-90299500D01*
X108204500Y-88004869D01*
X109368500Y-88004869D01*
X109374909Y-88064483D01*
X109425204Y-88199331D01*
X109511454Y-88314546D01*
X109626669Y-88400796D01*
X109761517Y-88451091D01*
X109821127Y-88457500D01*
X111616872Y-88457499D01*
X111676483Y-88451091D01*
X111811331Y-88400796D01*
X111926546Y-88314546D01*
X112012796Y-88199331D01*
X112063091Y-88064483D01*
X112069500Y-88004873D01*
X112069500Y-87629999D01*
X115334356Y-87629999D01*
X115354891Y-87877816D01*
X115354891Y-87877819D01*
X115354892Y-87877821D01*
X115415937Y-88118881D01*
X115451225Y-88199330D01*
X115515825Y-88346604D01*
X115515827Y-88346607D01*
X115651836Y-88554785D01*
X115820256Y-88737738D01*
X115820259Y-88737740D01*
X116016485Y-88890470D01*
X116016487Y-88890471D01*
X116016491Y-88890474D01*
X116235190Y-89008828D01*
X116470386Y-89089571D01*
X116715665Y-89130500D01*
X116964335Y-89130500D01*
X117209614Y-89089571D01*
X117444810Y-89008828D01*
X117663509Y-88890474D01*
X117859744Y-88737738D01*
X118028164Y-88554785D01*
X118164173Y-88346607D01*
X118264063Y-88118881D01*
X118325108Y-87877821D01*
X118345643Y-87630000D01*
X118325108Y-87382179D01*
X118264063Y-87141119D01*
X118164173Y-86913393D01*
X118043981Y-86729425D01*
X124645500Y-86729425D01*
X124656194Y-86841420D01*
X124660472Y-86886220D01*
X124719683Y-87087873D01*
X124815990Y-87274684D01*
X124945906Y-87439884D01*
X125104745Y-87577520D01*
X125203259Y-87634397D01*
X125286756Y-87682604D01*
X125369832Y-87711357D01*
X125485366Y-87751344D01*
X125520298Y-87756366D01*
X125693398Y-87781254D01*
X125903330Y-87771254D01*
X126107576Y-87721704D01*
X126193195Y-87682603D01*
X126298752Y-87634397D01*
X126469949Y-87512488D01*
X126469948Y-87512488D01*
X126469952Y-87512486D01*
X126568109Y-87409541D01*
X126615053Y-87378732D01*
X126670777Y-87371789D01*
X126723850Y-87390138D01*
X126763387Y-87430016D01*
X126803682Y-87495344D01*
X126927654Y-87619316D01*
X127076877Y-87711357D01*
X127243303Y-87766506D01*
X127346021Y-87777000D01*
X127496000Y-87777000D01*
X127496000Y-86652000D01*
X127996000Y-86652000D01*
X127996000Y-87776999D01*
X128145979Y-87776999D01*
X128248695Y-87766506D01*
X128415122Y-87711357D01*
X128564345Y-87619316D01*
X128688316Y-87495345D01*
X128780357Y-87346122D01*
X128835506Y-87179696D01*
X128846000Y-87076979D01*
X128846000Y-86652000D01*
X127996000Y-86652000D01*
X127496000Y-86652000D01*
X127496000Y-85027001D01*
X127346021Y-85027001D01*
X127243304Y-85037493D01*
X127076877Y-85092642D01*
X126927654Y-85184683D01*
X126803683Y-85308654D01*
X126764513Y-85372159D01*
X126722460Y-85413577D01*
X126666021Y-85430861D01*
X126607986Y-85420093D01*
X126561505Y-85383713D01*
X126546093Y-85364115D01*
X126387254Y-85226479D01*
X126205245Y-85121396D01*
X126006633Y-85052655D01*
X125828191Y-85027000D01*
X127996000Y-85027000D01*
X127996000Y-86152000D01*
X128845999Y-86152000D01*
X128845999Y-85727021D01*
X128835506Y-85624304D01*
X128780357Y-85457877D01*
X128688316Y-85308654D01*
X128564345Y-85184683D01*
X128415122Y-85092642D01*
X128248696Y-85037493D01*
X128145979Y-85027000D01*
X127996000Y-85027000D01*
X125828191Y-85027000D01*
X125798603Y-85022746D01*
X125798602Y-85022746D01*
X125709297Y-85027000D01*
X125588669Y-85032746D01*
X125384419Y-85082297D01*
X125193247Y-85169602D01*
X125022050Y-85291512D01*
X124877013Y-85443623D01*
X124763387Y-85620425D01*
X124685274Y-85815545D01*
X124645500Y-86021914D01*
X124645500Y-86021915D01*
X124645500Y-86729425D01*
X118043981Y-86729425D01*
X118028164Y-86705215D01*
X117859744Y-86522262D01*
X117837612Y-86505036D01*
X117663514Y-86369529D01*
X117663510Y-86369526D01*
X117663509Y-86369526D01*
X117444810Y-86251172D01*
X117444806Y-86251170D01*
X117444805Y-86251170D01*
X117209615Y-86170429D01*
X116964335Y-86129500D01*
X116715665Y-86129500D01*
X116470384Y-86170429D01*
X116235194Y-86251170D01*
X116016485Y-86369529D01*
X115820259Y-86522259D01*
X115651837Y-86705214D01*
X115515825Y-86913395D01*
X115444071Y-87076979D01*
X115415937Y-87141119D01*
X115382114Y-87274682D01*
X115354891Y-87382183D01*
X115334356Y-87629999D01*
X112069500Y-87629999D01*
X112069499Y-86209128D01*
X112063091Y-86149517D01*
X112012796Y-86014669D01*
X111926546Y-85899454D01*
X111811331Y-85813204D01*
X111679399Y-85763996D01*
X111629021Y-85729018D01*
X111601568Y-85674173D01*
X111603757Y-85612880D01*
X111635053Y-85560133D01*
X111757109Y-85438077D01*
X111892600Y-85244576D01*
X111992430Y-85030492D01*
X112049636Y-84817000D01*
X109388364Y-84817000D01*
X109445569Y-85030492D01*
X109545399Y-85244576D01*
X109680893Y-85438081D01*
X109802946Y-85560134D01*
X109834242Y-85612880D01*
X109836431Y-85674173D01*
X109808978Y-85729018D01*
X109758599Y-85763997D01*
X109626669Y-85813204D01*
X109511454Y-85899454D01*
X109425204Y-86014668D01*
X109374909Y-86149516D01*
X109368500Y-86209130D01*
X109368500Y-88004869D01*
X108204500Y-88004869D01*
X108204500Y-84578000D01*
X133227000Y-84578000D01*
X133227000Y-84745824D01*
X133233402Y-84805375D01*
X133283647Y-84940089D01*
X133369811Y-85055188D01*
X133484910Y-85141352D01*
X133619624Y-85191597D01*
X133679176Y-85198000D01*
X134872000Y-85198000D01*
X134872000Y-84578000D01*
X135372000Y-84578000D01*
X135372000Y-85198000D01*
X136564824Y-85198000D01*
X136624375Y-85191597D01*
X136759089Y-85141352D01*
X136874188Y-85055188D01*
X136960352Y-84940089D01*
X137010597Y-84805375D01*
X137017000Y-84745824D01*
X137017000Y-84578000D01*
X135372000Y-84578000D01*
X134872000Y-84578000D01*
X133227000Y-84578000D01*
X108204500Y-84578000D01*
X108204500Y-65528000D01*
X109667364Y-65528000D01*
X109724569Y-65741492D01*
X109824399Y-65955576D01*
X109959893Y-66149081D01*
X110126918Y-66316106D01*
X110320423Y-66451600D01*
X110534507Y-66551430D01*
X110747999Y-66608635D01*
X110748000Y-66608636D01*
X110748000Y-65528000D01*
X109667364Y-65528000D01*
X108204500Y-65528000D01*
X108204500Y-65028000D01*
X109667364Y-65028000D01*
X110748000Y-65028000D01*
X110748000Y-63947364D01*
X110747999Y-63947364D01*
X110534507Y-64004569D01*
X110320421Y-64104400D01*
X110126921Y-64239890D01*
X109959890Y-64406921D01*
X109824400Y-64600421D01*
X109724569Y-64814507D01*
X109667364Y-65027999D01*
X109667364Y-65028000D01*
X108204500Y-65028000D01*
X108204500Y-58073000D01*
X132584000Y-58073000D01*
X132584000Y-58910500D01*
X133475000Y-58910500D01*
X133537000Y-58927113D01*
X133582387Y-58972500D01*
X133599000Y-59034500D01*
X133599000Y-59037500D01*
X134370000Y-59037500D01*
X134370000Y-58200001D01*
X134095021Y-58200001D01*
X133992304Y-58210493D01*
X133825877Y-58265642D01*
X133676656Y-58357682D01*
X133618403Y-58415935D01*
X133571432Y-58445380D01*
X133516325Y-58451414D01*
X133464096Y-58432833D01*
X133425183Y-58393349D01*
X133401316Y-58354654D01*
X133277345Y-58230683D01*
X133128122Y-58138642D01*
X132961696Y-58083493D01*
X132858979Y-58073000D01*
X132584000Y-58073000D01*
X108204500Y-58073000D01*
X108204500Y-54610000D01*
X115334356Y-54610000D01*
X115354891Y-54857816D01*
X115354891Y-54857819D01*
X115354892Y-54857821D01*
X115415937Y-55098881D01*
X115460960Y-55201523D01*
X115515825Y-55326604D01*
X115515827Y-55326607D01*
X115651836Y-55534785D01*
X115820256Y-55717738D01*
X115820259Y-55717740D01*
X116016485Y-55870470D01*
X116016487Y-55870471D01*
X116016491Y-55870474D01*
X116235190Y-55988828D01*
X116470386Y-56069571D01*
X116715665Y-56110500D01*
X116964335Y-56110500D01*
X117209614Y-56069571D01*
X117444810Y-55988828D01*
X117663509Y-55870474D01*
X117859744Y-55717738D01*
X118028164Y-55534785D01*
X118164173Y-55326607D01*
X118264063Y-55098881D01*
X118325108Y-54857821D01*
X118345643Y-54610000D01*
X118325108Y-54362179D01*
X118264063Y-54121119D01*
X118164173Y-53893393D01*
X118028164Y-53685215D01*
X117859744Y-53502262D01*
X117837612Y-53485036D01*
X117663514Y-53349529D01*
X117663510Y-53349526D01*
X117663509Y-53349526D01*
X117444810Y-53231172D01*
X117444806Y-53231170D01*
X117444805Y-53231170D01*
X117209615Y-53150429D01*
X116964335Y-53109500D01*
X116715665Y-53109500D01*
X116470384Y-53150429D01*
X116235194Y-53231170D01*
X116016485Y-53349529D01*
X115820259Y-53502259D01*
X115820256Y-53502261D01*
X115820256Y-53502262D01*
X115651836Y-53685215D01*
X115606499Y-53754607D01*
X115515825Y-53893395D01*
X115427541Y-54094665D01*
X115415937Y-54121119D01*
X115380463Y-54261202D01*
X115354891Y-54362183D01*
X115334356Y-54610000D01*
X108204500Y-54610000D01*
X108204500Y-51940500D01*
X108221113Y-51878500D01*
X108266500Y-51833113D01*
X108328500Y-51816500D01*
X144915436Y-51816500D01*
X144977216Y-51832986D01*
G37*
%TD.AperFunction*%
%TA.AperFunction,Conductor*%
G36*
X118549185Y-74264512D02*
G01*
X118584905Y-74313309D01*
X118593298Y-74373197D01*
X118587500Y-74427129D01*
X118587500Y-75072869D01*
X118590357Y-75099440D01*
X118593909Y-75132483D01*
X118644204Y-75267331D01*
X118729104Y-75380743D01*
X118741138Y-75396818D01*
X118739806Y-75397814D01*
X118757928Y-75419501D01*
X118771041Y-75475000D01*
X118757928Y-75530499D01*
X118739806Y-75552185D01*
X118741138Y-75553182D01*
X118644204Y-75682668D01*
X118597226Y-75808622D01*
X118593909Y-75817517D01*
X118587662Y-75875626D01*
X118587500Y-75877130D01*
X118587500Y-76522869D01*
X118593909Y-76582484D01*
X118619056Y-76649907D01*
X118644204Y-76717331D01*
X118730454Y-76832546D01*
X118845669Y-76918796D01*
X118980517Y-76969091D01*
X119040127Y-76975500D01*
X120735872Y-76975499D01*
X120795483Y-76969091D01*
X120892168Y-76933029D01*
X120950953Y-76926178D01*
X121006220Y-76947355D01*
X121045375Y-76991736D01*
X121059500Y-77049211D01*
X121059500Y-77447869D01*
X121065909Y-77507484D01*
X121085165Y-77559110D01*
X121116204Y-77642331D01*
X121202454Y-77757546D01*
X121317669Y-77843796D01*
X121346117Y-77854406D01*
X121395934Y-77888741D01*
X121423574Y-77942564D01*
X121422455Y-78003059D01*
X121392842Y-78055823D01*
X121341787Y-78088293D01*
X121266664Y-78113186D01*
X121117341Y-78205288D01*
X121090627Y-78232003D01*
X121043657Y-78261448D01*
X120988550Y-78267482D01*
X120936321Y-78248901D01*
X120897408Y-78209417D01*
X120894861Y-78205288D01*
X120818647Y-78081723D01*
X120814711Y-78075342D01*
X120690657Y-77951288D01*
X120541334Y-77859186D01*
X120374797Y-77804000D01*
X120272009Y-77793500D01*
X119471991Y-77793500D01*
X119369203Y-77804000D01*
X119202665Y-77859186D01*
X119053344Y-77951287D01*
X118959327Y-78045304D01*
X118903739Y-78077397D01*
X118839552Y-78077397D01*
X118783965Y-78045303D01*
X118690345Y-77951683D01*
X118541122Y-77859642D01*
X118374696Y-77804493D01*
X118271979Y-77794000D01*
X118122000Y-77794000D01*
X118122000Y-79120000D01*
X118105387Y-79182000D01*
X118060000Y-79227387D01*
X117998000Y-79244000D01*
X117746000Y-79244000D01*
X117684000Y-79227387D01*
X117638613Y-79182000D01*
X117622000Y-79120000D01*
X117622000Y-77794001D01*
X117472021Y-77794001D01*
X117369304Y-77804493D01*
X117202877Y-77859642D01*
X117053654Y-77951683D01*
X116929683Y-78075654D01*
X116837641Y-78224879D01*
X116821176Y-78274566D01*
X116790189Y-78324194D01*
X116739897Y-78354089D01*
X116681494Y-78357597D01*
X116627985Y-78333936D01*
X116615229Y-78324148D01*
X116603034Y-78313453D01*
X116072419Y-77782838D01*
X116040325Y-77727250D01*
X116040325Y-77663062D01*
X116072418Y-77607476D01*
X116100495Y-77579401D01*
X116236035Y-77385830D01*
X116335903Y-77171663D01*
X116397063Y-76943408D01*
X116417659Y-76708000D01*
X116397063Y-76472592D01*
X116370143Y-76372126D01*
X116370143Y-76307939D01*
X116402235Y-76252353D01*
X118382328Y-74272261D01*
X118434224Y-74241218D01*
X118494633Y-74238413D01*
X118549185Y-74264512D01*
G37*
%TD.AperFunction*%
%TA.AperFunction,Conductor*%
G36*
X124161500Y-72918613D02*
G01*
X124206887Y-72964000D01*
X124223500Y-73026000D01*
X124223500Y-74376999D01*
X124360979Y-74376999D01*
X124463695Y-74366506D01*
X124630122Y-74311357D01*
X124779345Y-74219316D01*
X124903316Y-74095345D01*
X124995357Y-73946122D01*
X125050506Y-73779696D01*
X125060999Y-73676982D01*
X125060999Y-73666960D01*
X125074511Y-73610663D01*
X125112110Y-73566637D01*
X125165598Y-73544479D01*
X125223316Y-73549021D01*
X125272680Y-73579271D01*
X125982842Y-74289433D01*
X126016087Y-74349676D01*
X126012098Y-74418367D01*
X125972102Y-74474356D01*
X125908416Y-74500404D01*
X125852624Y-74506402D01*
X125717910Y-74556647D01*
X125602811Y-74642811D01*
X125516646Y-74757912D01*
X125508527Y-74779680D01*
X125471294Y-74831964D01*
X125412908Y-74858627D01*
X125349013Y-74852526D01*
X125292377Y-74831402D01*
X125232824Y-74825000D01*
X124710000Y-74825000D01*
X124710000Y-77575000D01*
X125232824Y-77575000D01*
X125292377Y-77568597D01*
X125348543Y-77547648D01*
X125412439Y-77541546D01*
X125470827Y-77568209D01*
X125508059Y-77620495D01*
X125516202Y-77642328D01*
X125516203Y-77642330D01*
X125516204Y-77642331D01*
X125602454Y-77757546D01*
X125658809Y-77799733D01*
X125697292Y-77847487D01*
X125708182Y-77907843D01*
X125688816Y-77966036D01*
X125643930Y-78007829D01*
X125584506Y-78023000D01*
X125575025Y-78023000D01*
X125472304Y-78033493D01*
X125305877Y-78088642D01*
X125156657Y-78180681D01*
X125031034Y-78306304D01*
X124975446Y-78338397D01*
X124911259Y-78338397D01*
X124855672Y-78306303D01*
X124754658Y-78205289D01*
X124619078Y-78121663D01*
X124580577Y-78084266D01*
X124570022Y-78068219D01*
X124568081Y-78065173D01*
X124528712Y-78001345D01*
X124528711Y-78001344D01*
X124528048Y-78000269D01*
X124515748Y-77985170D01*
X124460273Y-77932832D01*
X124457686Y-77930319D01*
X124243864Y-77716497D01*
X124211768Y-77660901D01*
X124211772Y-77626362D01*
X124210000Y-77626362D01*
X124210000Y-74825000D01*
X123687174Y-74825000D01*
X123626668Y-74831504D01*
X123573591Y-74825645D01*
X123527899Y-74798008D01*
X123498066Y-74753719D01*
X123492699Y-74720189D01*
X123491848Y-74720340D01*
X123478106Y-74642407D01*
X123458865Y-74533289D01*
X123458863Y-74533284D01*
X123456956Y-74522469D01*
X123460160Y-74465780D01*
X123488296Y-74416462D01*
X123535466Y-74384855D01*
X123579703Y-74379146D01*
X123579703Y-74377000D01*
X123723500Y-74377000D01*
X123723500Y-73026000D01*
X123740113Y-72964000D01*
X123785500Y-72918613D01*
X123847500Y-72902000D01*
X124099500Y-72902000D01*
X124161500Y-72918613D01*
G37*
%TD.AperFunction*%
%TA.AperFunction,Conductor*%
G36*
X128005886Y-75029476D02*
G01*
X128785197Y-75808787D01*
X128798098Y-75824889D01*
X128800212Y-75826874D01*
X128800214Y-75826877D01*
X128836340Y-75860802D01*
X128849240Y-75872916D01*
X128852035Y-75875625D01*
X128871530Y-75895120D01*
X128874704Y-75897582D01*
X128883568Y-75905153D01*
X128915418Y-75935062D01*
X128925914Y-75940832D01*
X128932974Y-75944714D01*
X128949231Y-75955392D01*
X128965064Y-75967674D01*
X128968461Y-75969144D01*
X129006896Y-75995265D01*
X129104340Y-76092709D01*
X129104342Y-76092710D01*
X129104344Y-76092712D01*
X129107652Y-76094752D01*
X129150834Y-76139857D01*
X129166559Y-76200289D01*
X129150838Y-76260721D01*
X129107659Y-76305830D01*
X129104654Y-76307683D01*
X128980683Y-76431654D01*
X128888642Y-76580877D01*
X128833493Y-76747303D01*
X128823000Y-76850021D01*
X128823000Y-76987500D01*
X130174000Y-76987500D01*
X130236000Y-77004113D01*
X130281387Y-77049500D01*
X130298000Y-77111500D01*
X130298000Y-77363500D01*
X130281387Y-77425500D01*
X130236000Y-77470887D01*
X130174000Y-77487500D01*
X128823001Y-77487500D01*
X128823001Y-77624979D01*
X128833493Y-77727695D01*
X128888642Y-77894122D01*
X128926503Y-77955505D01*
X128944945Y-78018438D01*
X128928710Y-78081975D01*
X128882338Y-78128347D01*
X128818801Y-78144582D01*
X128755868Y-78126140D01*
X128694334Y-78088186D01*
X128527797Y-78033000D01*
X128513362Y-78031526D01*
X128461687Y-78014207D01*
X128422428Y-77976404D01*
X128419283Y-77971632D01*
X128414401Y-77963574D01*
X128407581Y-77951287D01*
X128385774Y-77911998D01*
X128365947Y-77888903D01*
X128356511Y-77876388D01*
X128339767Y-77850981D01*
X128339765Y-77850979D01*
X128339764Y-77850977D01*
X128298065Y-77809279D01*
X128291659Y-77802367D01*
X128253233Y-77757606D01*
X128229170Y-77738980D01*
X128217391Y-77728605D01*
X128057383Y-77568597D01*
X127896817Y-77408032D01*
X127869938Y-77367805D01*
X127860499Y-77320352D01*
X127860499Y-76902133D01*
X127860499Y-76902128D01*
X127856319Y-76863245D01*
X127856319Y-76836747D01*
X127860500Y-76797873D01*
X127860499Y-76252128D01*
X127856319Y-76213245D01*
X127856319Y-76186747D01*
X127860500Y-76147873D01*
X127860499Y-75602128D01*
X127856067Y-75560898D01*
X127856068Y-75534393D01*
X127860000Y-75497829D01*
X127860000Y-75450000D01*
X127848379Y-75438379D01*
X127842051Y-75436884D01*
X127798288Y-75400311D01*
X127717546Y-75292454D01*
X127625121Y-75223264D01*
X127586640Y-75175511D01*
X127575750Y-75115154D01*
X127595119Y-75056961D01*
X127640007Y-75015168D01*
X127699434Y-75000000D01*
X127881577Y-75000000D01*
X127886111Y-74997382D01*
X127950299Y-74997382D01*
X128005886Y-75029476D01*
G37*
%TD.AperFunction*%
%TA.AperFunction,Conductor*%
G36*
X131018451Y-69318479D02*
G01*
X131074334Y-69353867D01*
X131104073Y-69412949D01*
X131106631Y-69425809D01*
X131106631Y-69474191D01*
X131094500Y-69535178D01*
X131094500Y-69764822D01*
X131106631Y-69825808D01*
X131106631Y-69874190D01*
X131094500Y-69935178D01*
X131094500Y-70164821D01*
X131106631Y-70225806D01*
X131106632Y-70274189D01*
X131103232Y-70291278D01*
X131103233Y-70291278D01*
X131094500Y-70335180D01*
X131094500Y-70335183D01*
X131094500Y-70564822D01*
X131106631Y-70625809D01*
X131106631Y-70674191D01*
X131094500Y-70735178D01*
X131094500Y-70964822D01*
X131106631Y-71025809D01*
X131106631Y-71074191D01*
X131094500Y-71135178D01*
X131094500Y-71364822D01*
X131106631Y-71425808D01*
X131106631Y-71474190D01*
X131094500Y-71535178D01*
X131094500Y-71764822D01*
X131106631Y-71825809D01*
X131106631Y-71874191D01*
X131094500Y-71935178D01*
X131094500Y-72164821D01*
X131103233Y-72208723D01*
X131136495Y-72258504D01*
X131193525Y-72296610D01*
X131232665Y-72338840D01*
X131248512Y-72394195D01*
X131237649Y-72450739D01*
X131202418Y-72496282D01*
X131150416Y-72521002D01*
X131038197Y-72544855D01*
X130865269Y-72621848D01*
X130712129Y-72733110D01*
X130585466Y-72873783D01*
X130506357Y-73010806D01*
X130464680Y-73053964D01*
X130407621Y-73072504D01*
X130348536Y-73062086D01*
X130327803Y-73052855D01*
X130142648Y-73013500D01*
X130142646Y-73013500D01*
X129953354Y-73013500D01*
X129953352Y-73013500D01*
X129768197Y-73052855D01*
X129595272Y-73129847D01*
X129585427Y-73137000D01*
X129442129Y-73241112D01*
X129436401Y-73247473D01*
X129394688Y-73277780D01*
X129344253Y-73288500D01*
X128717378Y-73288500D01*
X128657951Y-73273332D01*
X128613063Y-73231540D01*
X128593694Y-73173346D01*
X128604584Y-73112989D01*
X128643067Y-73065233D01*
X128650328Y-73059796D01*
X128650331Y-73059796D01*
X128765546Y-72973546D01*
X128851796Y-72858331D01*
X128902091Y-72723483D01*
X128908500Y-72663873D01*
X128908499Y-71568128D01*
X128902091Y-71508517D01*
X128884742Y-71462005D01*
X128876959Y-71415721D01*
X128886936Y-71369859D01*
X128913240Y-71330993D01*
X130894777Y-69349457D01*
X130952327Y-69316856D01*
X131018451Y-69318479D01*
G37*
%TD.AperFunction*%
%TA.AperFunction,Conductor*%
G36*
X121346000Y-60726613D02*
G01*
X121391387Y-60772000D01*
X121408000Y-60834000D01*
X121408000Y-62290635D01*
X121621492Y-62233430D01*
X121655278Y-62217676D01*
X121715793Y-62206323D01*
X121774308Y-62225477D01*
X121816397Y-62270415D01*
X121831683Y-62330058D01*
X121831683Y-62661670D01*
X121822244Y-62709123D01*
X121795364Y-62749351D01*
X121028208Y-63516504D01*
X121012110Y-63529401D01*
X120964096Y-63580530D01*
X120961391Y-63583322D01*
X120941874Y-63602839D01*
X120939415Y-63606010D01*
X120931842Y-63614877D01*
X120901935Y-63646725D01*
X120892285Y-63664279D01*
X120881609Y-63680533D01*
X120869326Y-63696368D01*
X120851975Y-63736463D01*
X120846838Y-63746949D01*
X120825802Y-63785212D01*
X120820821Y-63804614D01*
X120814520Y-63823016D01*
X120806561Y-63841407D01*
X120799728Y-63884547D01*
X120797360Y-63895979D01*
X120786500Y-63938283D01*
X120786500Y-63958321D01*
X120784973Y-63977718D01*
X120781840Y-63997501D01*
X120783741Y-64017608D01*
X120785950Y-64040980D01*
X120786500Y-64052649D01*
X120786500Y-70673929D01*
X120784235Y-70694435D01*
X120786439Y-70764546D01*
X120786500Y-70768441D01*
X120786500Y-70796022D01*
X120787003Y-70800007D01*
X120787918Y-70811640D01*
X120789290Y-70855299D01*
X120793627Y-70870223D01*
X120794530Y-70873334D01*
X120794879Y-70874533D01*
X120798825Y-70893589D01*
X120801335Y-70913465D01*
X120817414Y-70954077D01*
X120821197Y-70965124D01*
X120833382Y-71007064D01*
X120843580Y-71024308D01*
X120852136Y-71041773D01*
X120859514Y-71060405D01*
X120869530Y-71074191D01*
X120885180Y-71095732D01*
X120891593Y-71105495D01*
X120913826Y-71143089D01*
X120913829Y-71143092D01*
X120913830Y-71143093D01*
X120927995Y-71157258D01*
X120940628Y-71172049D01*
X120952404Y-71188258D01*
X120952405Y-71188259D01*
X120952406Y-71188260D01*
X120986069Y-71216108D01*
X120994696Y-71223960D01*
X121308521Y-71537784D01*
X121321421Y-71553886D01*
X121372550Y-71601900D01*
X121375347Y-71604611D01*
X121394856Y-71624120D01*
X121398038Y-71626588D01*
X121406898Y-71634155D01*
X121438744Y-71664061D01*
X121438745Y-71664062D01*
X121456297Y-71673711D01*
X121472565Y-71684397D01*
X121500771Y-71706277D01*
X121500241Y-71706959D01*
X121536496Y-71735771D01*
X121560003Y-71795844D01*
X121550154Y-71859596D01*
X121509613Y-71909774D01*
X121449353Y-71932797D01*
X121408203Y-71937000D01*
X121241665Y-71992186D01*
X121092342Y-72084288D01*
X120968288Y-72208342D01*
X120885481Y-72342596D01*
X120840374Y-72385777D01*
X120779942Y-72401500D01*
X120713706Y-72401500D01*
X120695736Y-72400191D01*
X120681853Y-72398157D01*
X120671977Y-72396711D01*
X120671976Y-72396711D01*
X120622634Y-72401028D01*
X120611827Y-72401500D01*
X120606289Y-72401500D01*
X120575487Y-72405099D01*
X120571905Y-72405465D01*
X120487396Y-72412860D01*
X120422327Y-72400830D01*
X120372709Y-72357048D01*
X120352674Y-72293981D01*
X120367927Y-72229591D01*
X120379197Y-72209092D01*
X120384179Y-72189687D01*
X120390481Y-72171280D01*
X120398437Y-72152896D01*
X120405269Y-72109752D01*
X120407633Y-72098338D01*
X120418500Y-72056019D01*
X120418500Y-72035984D01*
X120420027Y-72016585D01*
X120420068Y-72016321D01*
X120423160Y-71996804D01*
X120419050Y-71953325D01*
X120418500Y-71941656D01*
X120418500Y-62299367D01*
X120433786Y-62239724D01*
X120475875Y-62194786D01*
X120534390Y-62175632D01*
X120594905Y-62186985D01*
X120694507Y-62233430D01*
X120907999Y-62290635D01*
X120908000Y-62290636D01*
X120908000Y-60834000D01*
X120924613Y-60772000D01*
X120970000Y-60726613D01*
X121032000Y-60710000D01*
X121284000Y-60710000D01*
X121346000Y-60726613D01*
G37*
%TD.AperFunction*%
%TA.AperFunction,Conductor*%
G36*
X125436723Y-61719939D02*
G01*
X125476951Y-61746819D01*
X126820290Y-63090158D01*
X126853571Y-63150558D01*
X126849437Y-63219397D01*
X126809167Y-63275382D01*
X126755179Y-63297173D01*
X126755196Y-63297222D01*
X126754435Y-63297473D01*
X126745217Y-63301195D01*
X126742309Y-63301492D01*
X126575877Y-63356642D01*
X126426654Y-63448683D01*
X126302683Y-63572654D01*
X126210642Y-63721877D01*
X126155493Y-63888303D01*
X126145000Y-63991021D01*
X126145000Y-64266000D01*
X127358500Y-64266000D01*
X127420500Y-64282613D01*
X127465887Y-64328000D01*
X127482500Y-64390000D01*
X127482500Y-65716638D01*
X127473061Y-65764091D01*
X127469500Y-65769420D01*
X127469500Y-68026999D01*
X127606979Y-68026999D01*
X127709695Y-68016506D01*
X127876122Y-67961357D01*
X128025345Y-67869316D01*
X128149313Y-67745348D01*
X128151164Y-67742348D01*
X128196271Y-67699164D01*
X128256704Y-67683440D01*
X128317138Y-67699163D01*
X128362245Y-67742344D01*
X128364096Y-67745345D01*
X128371898Y-67757994D01*
X128369895Y-67759228D01*
X128391110Y-67795972D01*
X128391110Y-67860160D01*
X128359016Y-67915747D01*
X127695582Y-68579181D01*
X127655354Y-68606061D01*
X127607901Y-68615500D01*
X126560130Y-68615500D01*
X126500515Y-68621909D01*
X126423860Y-68650500D01*
X126365669Y-68672204D01*
X126250454Y-68758454D01*
X126164204Y-68873669D01*
X126141390Y-68934835D01*
X126114953Y-68977069D01*
X126074023Y-69005488D01*
X126025210Y-69015500D01*
X125757487Y-69015500D01*
X125741302Y-69014439D01*
X125737376Y-69013922D01*
X125709999Y-69010317D01*
X125674741Y-69014959D01*
X125670639Y-69015500D01*
X125553237Y-69030956D01*
X125423016Y-69084895D01*
X125375564Y-69094334D01*
X125328111Y-69084895D01*
X125287883Y-69058015D01*
X125278549Y-69048681D01*
X125246455Y-68993093D01*
X125246455Y-68928906D01*
X125278547Y-68873320D01*
X125390212Y-68761656D01*
X125482314Y-68612334D01*
X125537499Y-68445797D01*
X125548000Y-68343009D01*
X125547999Y-67292992D01*
X125545032Y-67263951D01*
X125537499Y-67190203D01*
X125521716Y-67142573D01*
X125491703Y-67052000D01*
X126132001Y-67052000D01*
X126132001Y-67326979D01*
X126142493Y-67429695D01*
X126197642Y-67596122D01*
X126289683Y-67745345D01*
X126413654Y-67869316D01*
X126562877Y-67961357D01*
X126729303Y-68016506D01*
X126832021Y-68027000D01*
X126969500Y-68027000D01*
X126969500Y-67052000D01*
X126132001Y-67052000D01*
X125491703Y-67052000D01*
X125482314Y-67023666D01*
X125390212Y-66874344D01*
X125390211Y-66874342D01*
X125266157Y-66750288D01*
X125116834Y-66658186D01*
X124950297Y-66603000D01*
X124847509Y-66592500D01*
X124072491Y-66592500D01*
X123969703Y-66603000D01*
X123803165Y-66658186D01*
X123653842Y-66750288D01*
X123529786Y-66874344D01*
X123527742Y-66877659D01*
X123482635Y-66920837D01*
X123422204Y-66936558D01*
X123361774Y-66920835D01*
X123316668Y-66877656D01*
X123314816Y-66874654D01*
X123190845Y-66750683D01*
X123041622Y-66658642D01*
X122875196Y-66603493D01*
X122772479Y-66593000D01*
X122635000Y-66593000D01*
X122635000Y-70230000D01*
X122618387Y-70292000D01*
X122573000Y-70337387D01*
X122511000Y-70354000D01*
X122259000Y-70354000D01*
X122197000Y-70337387D01*
X122151613Y-70292000D01*
X122135000Y-70230000D01*
X122135000Y-66593001D01*
X122125300Y-66583301D01*
X122099500Y-66576388D01*
X122075112Y-66552000D01*
X126132000Y-66552000D01*
X126969500Y-66552000D01*
X126969500Y-65601362D01*
X126978939Y-65553909D01*
X126982500Y-65548580D01*
X126982500Y-64766000D01*
X126145001Y-64766000D01*
X126145001Y-65040979D01*
X126155493Y-65143695D01*
X126210642Y-65310122D01*
X126302683Y-65459345D01*
X126408157Y-65564819D01*
X126440251Y-65620406D01*
X126440251Y-65684594D01*
X126408157Y-65740181D01*
X126289683Y-65858654D01*
X126197642Y-66007877D01*
X126142493Y-66174303D01*
X126132000Y-66277021D01*
X126132000Y-66552000D01*
X122075112Y-66552000D01*
X122054113Y-66531001D01*
X122037500Y-66469001D01*
X122037500Y-64327757D01*
X122046939Y-64280304D01*
X122073819Y-64240076D01*
X122453382Y-63860513D01*
X122840972Y-63472922D01*
X122857068Y-63460028D01*
X122859056Y-63457909D01*
X122859060Y-63457908D01*
X122905131Y-63408845D01*
X122907749Y-63406145D01*
X122927303Y-63386593D01*
X122929764Y-63383420D01*
X122937339Y-63374549D01*
X122967245Y-63342704D01*
X122976895Y-63325149D01*
X122987583Y-63308879D01*
X122999856Y-63293058D01*
X123017209Y-63252954D01*
X123022340Y-63242484D01*
X123043380Y-63204214D01*
X123048358Y-63184821D01*
X123054664Y-63166404D01*
X123056201Y-63162850D01*
X123062621Y-63148018D01*
X123069455Y-63104867D01*
X123071818Y-63093453D01*
X123082683Y-63051141D01*
X123082683Y-63031106D01*
X123084210Y-63011707D01*
X123087343Y-62991926D01*
X123083233Y-62948447D01*
X123082683Y-62936778D01*
X123082683Y-62434500D01*
X123099296Y-62372500D01*
X123144683Y-62327113D01*
X123206683Y-62310500D01*
X124595835Y-62310499D01*
X124595872Y-62310499D01*
X124655483Y-62304091D01*
X124790331Y-62253796D01*
X124905546Y-62167546D01*
X124991796Y-62052331D01*
X125042091Y-61917483D01*
X125048500Y-61857873D01*
X125048500Y-61834500D01*
X125065113Y-61772500D01*
X125110500Y-61727113D01*
X125172500Y-61710500D01*
X125389270Y-61710500D01*
X125436723Y-61719939D01*
G37*
%TD.AperFunction*%
%TA.AperFunction,Conductor*%
G36*
X145072841Y-67419985D02*
G01*
X145118194Y-67465060D01*
X145135059Y-67526738D01*
X145138248Y-68046522D01*
X145145501Y-69228741D01*
X145129144Y-69291060D01*
X145083723Y-69336760D01*
X145021504Y-69353500D01*
X144609638Y-69353500D01*
X144549206Y-69337777D01*
X144504099Y-69294596D01*
X144436711Y-69185342D01*
X144312657Y-69061288D01*
X144163334Y-68969186D01*
X143996797Y-68914000D01*
X143894009Y-68903500D01*
X143143991Y-68903500D01*
X143041201Y-68914000D01*
X142967207Y-68938520D01*
X142898555Y-68941217D01*
X142839005Y-68906951D01*
X142819021Y-68869233D01*
X142835426Y-68915345D01*
X142822049Y-68980611D01*
X142776825Y-69029533D01*
X142725343Y-69061287D01*
X142601286Y-69185344D01*
X142599537Y-69188181D01*
X142554431Y-69231360D01*
X142494000Y-69247082D01*
X142433569Y-69231360D01*
X142388463Y-69188181D01*
X142386713Y-69185344D01*
X142262657Y-69061288D01*
X142241176Y-69048039D01*
X142197472Y-69001986D01*
X142182291Y-68940337D01*
X142199613Y-68879255D01*
X142244898Y-68834754D01*
X142306272Y-68818500D01*
X142476199Y-68818500D01*
X142492383Y-68819560D01*
X142523686Y-68823682D01*
X142680448Y-68803044D01*
X142680450Y-68803042D01*
X142695542Y-68801056D01*
X142761503Y-68810424D01*
X142807982Y-68848398D01*
X142806839Y-68846241D01*
X142811931Y-68777726D01*
X142852716Y-68722439D01*
X142951968Y-68646282D01*
X142971195Y-68621223D01*
X142981876Y-68609043D01*
X144151102Y-67439817D01*
X144191330Y-67412938D01*
X144238783Y-67403499D01*
X145011061Y-67403499D01*
X145072841Y-67419985D01*
G37*
%TD.AperFunction*%
%TA.AperFunction,Conductor*%
G36*
X140693102Y-68834754D02*
G01*
X140738387Y-68879255D01*
X140755709Y-68940337D01*
X140740528Y-69001986D01*
X140696824Y-69048039D01*
X140675342Y-69061288D01*
X140574681Y-69161950D01*
X140519094Y-69194044D01*
X140454906Y-69194044D01*
X140399319Y-69161950D01*
X140389657Y-69152288D01*
X140248244Y-69065065D01*
X140240334Y-69060186D01*
X140240333Y-69060185D01*
X140227999Y-69052578D01*
X140228384Y-69051952D01*
X140183487Y-69021095D01*
X140156321Y-68957612D01*
X140167322Y-68889442D01*
X140213076Y-68837726D01*
X140279397Y-68818500D01*
X140631728Y-68818500D01*
X140693102Y-68834754D01*
G37*
%TD.AperFunction*%
%TA.AperFunction,Conductor*%
G36*
X135191281Y-63618080D02*
G01*
X135241842Y-63641657D01*
X135276951Y-63685012D01*
X135289500Y-63739370D01*
X135289500Y-65697513D01*
X135288439Y-65713699D01*
X135284317Y-65745000D01*
X135289500Y-65784360D01*
X135289500Y-65784361D01*
X135304956Y-65901762D01*
X135365463Y-66047840D01*
X135424680Y-66125014D01*
X135449707Y-66188346D01*
X135437516Y-66255344D01*
X135391784Y-66305801D01*
X135326304Y-66324500D01*
X135105178Y-66324500D01*
X135044191Y-66336631D01*
X134995809Y-66336631D01*
X134934822Y-66324500D01*
X134934820Y-66324500D01*
X134705180Y-66324500D01*
X134705178Y-66324500D01*
X134644191Y-66336631D01*
X134595809Y-66336631D01*
X134534822Y-66324500D01*
X134534820Y-66324500D01*
X134305180Y-66324500D01*
X134292967Y-66324500D01*
X134292967Y-66323252D01*
X134250735Y-66321617D01*
X134200298Y-66293487D01*
X134168071Y-66245564D01*
X134163351Y-66232910D01*
X134077188Y-66117811D01*
X133962088Y-66031647D01*
X133901167Y-66008925D01*
X133858930Y-65982486D01*
X133830512Y-65941556D01*
X133820500Y-65892743D01*
X133820500Y-65454097D01*
X133829939Y-65406644D01*
X133856819Y-65366416D01*
X134079540Y-65143695D01*
X134757043Y-64466190D01*
X134769223Y-64455509D01*
X134794282Y-64436282D01*
X134890536Y-64310841D01*
X134951044Y-64164762D01*
X134966500Y-64047361D01*
X134971682Y-64008000D01*
X134967560Y-63976697D01*
X134966500Y-63960513D01*
X134966500Y-63723428D01*
X134978579Y-63670045D01*
X135012464Y-63627062D01*
X135061553Y-63602854D01*
X135116281Y-63602138D01*
X135191281Y-63618080D01*
G37*
%TD.AperFunction*%
%TA.AperFunction,Conductor*%
G36*
X142152500Y-61488613D02*
G01*
X142197887Y-61534000D01*
X142214500Y-61596000D01*
X142214500Y-62946999D01*
X142351979Y-62946999D01*
X142454695Y-62936506D01*
X142621122Y-62881357D01*
X142770345Y-62789316D01*
X142894313Y-62665348D01*
X142896164Y-62662348D01*
X142941271Y-62619164D01*
X143001704Y-62603440D01*
X143062138Y-62619163D01*
X143107246Y-62662345D01*
X143109290Y-62665659D01*
X143233341Y-62789710D01*
X143233343Y-62789711D01*
X143233344Y-62789712D01*
X143287827Y-62823317D01*
X143327310Y-62862229D01*
X143345891Y-62914458D01*
X143339857Y-62969566D01*
X143310411Y-63016536D01*
X142864965Y-63461981D01*
X142852773Y-63472674D01*
X142827717Y-63491900D01*
X142766841Y-63571238D01*
X142766839Y-63571239D01*
X142731464Y-63617340D01*
X142722646Y-63638630D01*
X142684736Y-63688647D01*
X142627192Y-63713695D01*
X142564753Y-63707358D01*
X142535379Y-63696402D01*
X142475824Y-63690000D01*
X142278000Y-63690000D01*
X142278000Y-64766000D01*
X142261387Y-64828000D01*
X142216000Y-64873387D01*
X142154000Y-64890000D01*
X141952499Y-64890000D01*
X141890499Y-64873387D01*
X141845112Y-64828000D01*
X141828499Y-64766000D01*
X141828499Y-64142130D01*
X141824443Y-64104399D01*
X141822091Y-64082517D01*
X141785817Y-63985263D01*
X141778000Y-63941931D01*
X141778000Y-63690000D01*
X141580176Y-63690000D01*
X141516864Y-63696806D01*
X141478712Y-63703688D01*
X141435755Y-63695938D01*
X141414064Y-63693606D01*
X141375873Y-63689500D01*
X141375869Y-63689500D01*
X140878097Y-63689500D01*
X140830644Y-63680061D01*
X140790416Y-63653181D01*
X140652819Y-63515584D01*
X140625939Y-63475356D01*
X140616500Y-63427903D01*
X140616500Y-62240147D01*
X140625937Y-62192699D01*
X140652812Y-62152473D01*
X140652811Y-62152473D01*
X140665317Y-62139967D01*
X140714673Y-62109717D01*
X140772390Y-62105170D01*
X140825880Y-62127323D01*
X140863482Y-62171345D01*
X140877000Y-62227640D01*
X140877000Y-62246976D01*
X140887493Y-62349695D01*
X140942642Y-62516122D01*
X141034683Y-62665345D01*
X141158654Y-62789316D01*
X141307877Y-62881357D01*
X141474303Y-62936506D01*
X141577021Y-62947000D01*
X141714500Y-62947000D01*
X141714500Y-61596000D01*
X141731113Y-61534000D01*
X141776500Y-61488613D01*
X141838500Y-61472000D01*
X142090500Y-61472000D01*
X142152500Y-61488613D01*
G37*
%TD.AperFunction*%
%TA.AperFunction,Conductor*%
G36*
X137384700Y-59284629D02*
G01*
X137440684Y-59324901D01*
X137466496Y-59388853D01*
X137469493Y-59418195D01*
X137524642Y-59584622D01*
X137616683Y-59733845D01*
X137740654Y-59857816D01*
X137743656Y-59859668D01*
X137786835Y-59904774D01*
X137802558Y-59965204D01*
X137786837Y-60025635D01*
X137743659Y-60070742D01*
X137740344Y-60072786D01*
X137616287Y-60196843D01*
X137556620Y-60293579D01*
X137522009Y-60330194D01*
X137475686Y-60350016D01*
X137425302Y-60349773D01*
X137302817Y-60323739D01*
X137254646Y-60313500D01*
X137065354Y-60313500D01*
X137065352Y-60313500D01*
X136880197Y-60352855D01*
X136707269Y-60429848D01*
X136554129Y-60541110D01*
X136427466Y-60681783D01*
X136332820Y-60845715D01*
X136274326Y-61025742D01*
X136253178Y-61226961D01*
X136251255Y-61226758D01*
X136247270Y-61260412D01*
X136218066Y-61306697D01*
X136057178Y-61467585D01*
X136007817Y-61497834D01*
X135950101Y-61502376D01*
X135896614Y-61480221D01*
X135859014Y-61436198D01*
X135845499Y-61379903D01*
X135845499Y-60974991D01*
X135834999Y-60872203D01*
X135826222Y-60845716D01*
X135824717Y-60841176D01*
X135821765Y-60773577D01*
X135854740Y-60714493D01*
X137255461Y-59313772D01*
X137315859Y-59280494D01*
X137384700Y-59284629D01*
G37*
%TD.AperFunction*%
%TA.AperFunction,Conductor*%
G36*
X138818384Y-57012777D02*
G01*
X138855984Y-57056800D01*
X138869500Y-57113096D01*
X138869500Y-57396008D01*
X138880000Y-57498796D01*
X138916899Y-57610147D01*
X138935186Y-57665334D01*
X138949561Y-57688639D01*
X138950088Y-57689494D01*
X138967843Y-57741389D01*
X138961476Y-57795867D01*
X138934000Y-57839462D01*
X138934000Y-59054000D01*
X138917387Y-59116000D01*
X138872000Y-59161387D01*
X138810000Y-59178000D01*
X138558000Y-59178000D01*
X138496000Y-59161387D01*
X138450613Y-59116000D01*
X138434000Y-59054000D01*
X138434000Y-58180496D01*
X138440581Y-58140637D01*
X138459621Y-58105013D01*
X138516536Y-58030841D01*
X138577044Y-57884762D01*
X138592500Y-57767361D01*
X138597682Y-57728000D01*
X138593560Y-57696697D01*
X138592500Y-57680513D01*
X138592500Y-57142097D01*
X138601939Y-57094645D01*
X138628815Y-57054419D01*
X138657821Y-57025413D01*
X138707180Y-56995166D01*
X138764896Y-56990622D01*
X138818384Y-57012777D01*
G37*
%TD.AperFunction*%
%TD*%
%TA.AperFunction,NonConductor*%
G36*
X133489902Y-60015166D02*
G01*
X133528816Y-60054649D01*
X133552684Y-60093346D01*
X133676654Y-60217316D01*
X133679656Y-60219168D01*
X133722835Y-60264274D01*
X133738558Y-60324704D01*
X133722837Y-60385135D01*
X133679659Y-60430242D01*
X133676344Y-60432286D01*
X133618497Y-60490134D01*
X133571527Y-60519579D01*
X133516420Y-60525614D01*
X133464190Y-60507033D01*
X133425277Y-60467549D01*
X133401711Y-60429342D01*
X133277659Y-60305290D01*
X133274345Y-60303246D01*
X133231163Y-60258138D01*
X133215440Y-60197704D01*
X133231164Y-60137271D01*
X133274348Y-60092164D01*
X133277345Y-60090315D01*
X133335595Y-60032065D01*
X133382565Y-60002620D01*
X133437672Y-59996584D01*
X133489902Y-60015166D01*
G37*
%TD.AperFunction*%
%TA.AperFunction,NonConductor*%
G36*
X132847885Y-62342725D02*
G01*
X132893640Y-62394441D01*
X132904641Y-62462610D01*
X132877476Y-62526093D01*
X132820569Y-62565205D01*
X132748485Y-62589091D01*
X132601647Y-62679661D01*
X132562681Y-62718628D01*
X132507094Y-62750722D01*
X132442906Y-62750722D01*
X132387319Y-62718628D01*
X132348352Y-62679661D01*
X132250270Y-62619164D01*
X132201516Y-62589092D01*
X132160952Y-62575650D01*
X132129431Y-62565205D01*
X132072525Y-62526093D01*
X132045360Y-62462610D01*
X132056361Y-62394441D01*
X132102116Y-62342725D01*
X132168433Y-62323499D01*
X132781565Y-62323499D01*
X132847885Y-62342725D01*
G37*
%TD.AperFunction*%
%TA.AperFunction,NonConductor*%
G36*
X128330138Y-65413163D02*
G01*
X128375245Y-65456344D01*
X128377288Y-65459656D01*
X128482451Y-65564819D01*
X128514544Y-65620405D01*
X128514544Y-65684592D01*
X128482451Y-65740180D01*
X128364285Y-65858346D01*
X128362242Y-65861659D01*
X128317135Y-65904837D01*
X128256704Y-65920558D01*
X128196274Y-65904835D01*
X128151168Y-65861656D01*
X128149316Y-65858654D01*
X128043843Y-65753181D01*
X128011749Y-65697594D01*
X128011749Y-65633406D01*
X128043843Y-65577819D01*
X128162313Y-65459348D01*
X128164164Y-65456348D01*
X128209271Y-65413164D01*
X128269704Y-65397440D01*
X128330138Y-65413163D01*
G37*
%TD.AperFunction*%
%TA.AperFunction,NonConductor*%
G36*
X130598094Y-63988915D02*
G01*
X130637205Y-64045822D01*
X130639091Y-64051514D01*
X130729661Y-64198352D01*
X130851647Y-64320338D01*
X130851649Y-64320339D01*
X130851650Y-64320340D01*
X130928047Y-64367462D01*
X130998484Y-64410908D01*
X131162246Y-64465174D01*
X131171614Y-64466131D01*
X131263323Y-64475500D01*
X131936676Y-64475499D01*
X132037753Y-64465174D01*
X132056496Y-64458962D01*
X132114363Y-64454112D01*
X132168093Y-64476139D01*
X132205903Y-64520213D01*
X132219500Y-64576669D01*
X132219500Y-66175500D01*
X132202887Y-66237500D01*
X132157500Y-66282887D01*
X132095500Y-66299500D01*
X131512191Y-66299500D01*
X131461756Y-66288780D01*
X131420041Y-66258472D01*
X131394260Y-66213819D01*
X131383178Y-66179714D01*
X131288533Y-66015784D01*
X131160019Y-65873055D01*
X131137609Y-65837537D01*
X131080536Y-65699750D01*
X131037155Y-65643215D01*
X131019653Y-65620406D01*
X130984282Y-65574308D01*
X130959229Y-65555085D01*
X130947034Y-65544390D01*
X130431818Y-65029174D01*
X130404938Y-64988946D01*
X130395499Y-64941493D01*
X130395499Y-64084825D01*
X130414725Y-64018504D01*
X130466441Y-63972750D01*
X130534611Y-63961749D01*
X130598094Y-63988915D01*
G37*
%TD.AperFunction*%
%TA.AperFunction,NonConductor*%
G36*
X143256002Y-65819775D02*
G01*
X143291829Y-65868332D01*
X143299568Y-65921673D01*
X143300500Y-65921673D01*
X143300500Y-66540588D01*
X143291061Y-66588041D01*
X143264182Y-66628267D01*
X143168146Y-66724304D01*
X143103350Y-66789100D01*
X143045476Y-66821782D01*
X142979038Y-66819884D01*
X142923124Y-66783950D01*
X142893799Y-66724304D01*
X142899487Y-66658085D01*
X142922091Y-66597483D01*
X142928500Y-66537873D01*
X142928499Y-66040095D01*
X142937938Y-65992643D01*
X142964815Y-65952418D01*
X143089455Y-65827778D01*
X143141223Y-65796775D01*
X143201497Y-65793878D01*
X143256002Y-65819775D01*
G37*
%TD.AperFunction*%
%TA.AperFunction,NonConductor*%
G36*
X140287720Y-66934027D02*
G01*
X140403787Y-66977318D01*
X140458649Y-67017780D01*
X140483834Y-67081126D01*
X140471730Y-67148211D01*
X140425996Y-67198762D01*
X140360453Y-67217500D01*
X140201097Y-67217500D01*
X140144803Y-67203985D01*
X140100780Y-67166386D01*
X140078624Y-67112900D01*
X140083165Y-67055184D01*
X140113414Y-67005821D01*
X140122775Y-66996458D01*
X140156707Y-66962526D01*
X140195572Y-66936221D01*
X140241434Y-66926244D01*
X140287720Y-66934027D01*
G37*
%TD.AperFunction*%
%TA.AperFunction,NonConductor*%
G36*
X129652198Y-68664015D02*
G01*
X129696221Y-68701615D01*
X129718376Y-68755102D01*
X129713834Y-68812818D01*
X129683584Y-68862181D01*
X129120180Y-69425584D01*
X129070817Y-69455834D01*
X129013101Y-69460376D01*
X128959614Y-69438221D01*
X128922014Y-69394198D01*
X128908499Y-69337903D01*
X128908499Y-69116097D01*
X128917938Y-69068644D01*
X128944818Y-69028416D01*
X129012235Y-68961000D01*
X129195509Y-68777726D01*
X129286417Y-68686819D01*
X129326645Y-68659939D01*
X129374098Y-68650500D01*
X129595903Y-68650500D01*
X129652198Y-68664015D01*
G37*
%TD.AperFunction*%
%TA.AperFunction,NonConductor*%
G36*
X127686198Y-70630014D02*
G01*
X127730221Y-70667614D01*
X127752376Y-70721101D01*
X127747834Y-70778817D01*
X127717584Y-70828180D01*
X127481180Y-71064583D01*
X127425592Y-71096677D01*
X127361405Y-71096677D01*
X127305818Y-71064583D01*
X127069415Y-70828180D01*
X127039165Y-70778817D01*
X127034623Y-70721101D01*
X127056778Y-70667614D01*
X127100801Y-70630014D01*
X127157096Y-70616499D01*
X127629903Y-70616499D01*
X127686198Y-70630014D01*
G37*
%TD.AperFunction*%
%TA.AperFunction,NonConductor*%
G36*
X114046818Y-72541119D02*
G01*
X114096181Y-72571369D01*
X114190918Y-72666106D01*
X114376595Y-72796119D01*
X114415460Y-72840437D01*
X114429471Y-72897694D01*
X114415460Y-72954951D01*
X114376595Y-72999269D01*
X114282389Y-73065233D01*
X114214187Y-73112989D01*
X114190595Y-73129508D01*
X114096181Y-73223923D01*
X114046818Y-73254173D01*
X113989102Y-73258715D01*
X113935615Y-73236560D01*
X113898015Y-73192537D01*
X113884500Y-73136242D01*
X113884500Y-72659050D01*
X113898015Y-72602755D01*
X113935615Y-72558732D01*
X113989102Y-72536577D01*
X114046818Y-72541119D01*
G37*
%TD.AperFunction*%
%TA.AperFunction,NonConductor*%
G36*
X119412774Y-73341681D02*
G01*
X119468761Y-73381801D01*
X119494703Y-73445607D01*
X119510326Y-73594257D01*
X119568821Y-73774286D01*
X119577028Y-73788501D01*
X119593641Y-73850500D01*
X119577028Y-73912500D01*
X119531641Y-73957887D01*
X119469641Y-73974500D01*
X119040128Y-73974500D01*
X118986195Y-73980298D01*
X118926307Y-73971904D01*
X118877511Y-73936183D01*
X118851413Y-73881632D01*
X118854219Y-73821224D01*
X118885260Y-73769328D01*
X119283703Y-73370886D01*
X119344015Y-73337627D01*
X119412774Y-73341681D01*
G37*
%TD.AperFunction*%
%TA.AperFunction,NonConductor*%
G36*
X119116385Y-71146134D02*
G01*
X119153985Y-71190157D01*
X119167500Y-71246452D01*
X119167500Y-71666547D01*
X119158061Y-71714000D01*
X119131181Y-71754228D01*
X116629807Y-74255601D01*
X116568965Y-74288981D01*
X116499716Y-74284442D01*
X116443750Y-74243407D01*
X116418598Y-74178728D01*
X116400730Y-73974501D01*
X116397063Y-73932592D01*
X116370143Y-73832126D01*
X116370143Y-73767939D01*
X116402235Y-73712353D01*
X118955818Y-71158771D01*
X119005182Y-71128521D01*
X119062898Y-71123979D01*
X119116385Y-71146134D01*
G37*
%TD.AperFunction*%
%TA.AperFunction,NonConductor*%
G36*
X114046818Y-75081827D02*
G01*
X114096181Y-75112077D01*
X114190599Y-75206495D01*
X114376160Y-75336426D01*
X114415024Y-75380743D01*
X114429035Y-75438000D01*
X114415024Y-75495257D01*
X114376158Y-75539575D01*
X114286820Y-75602131D01*
X114190595Y-75669508D01*
X114096181Y-75763923D01*
X114046818Y-75794173D01*
X113989102Y-75798715D01*
X113935615Y-75776560D01*
X113898015Y-75732537D01*
X113884500Y-75676242D01*
X113884500Y-75199758D01*
X113898015Y-75143463D01*
X113935615Y-75099440D01*
X113989102Y-75077285D01*
X114046818Y-75081827D01*
G37*
%TD.AperFunction*%
%TA.AperFunction,NonConductor*%
G36*
X132855474Y-75684622D02*
G01*
X132855476Y-75684622D01*
X132879500Y-75684622D01*
X132941500Y-75701235D01*
X132986887Y-75746622D01*
X133003500Y-75808622D01*
X133003500Y-76407903D01*
X132994061Y-76455356D01*
X132967181Y-76495584D01*
X132892181Y-76570584D01*
X132842818Y-76600834D01*
X132785102Y-76605376D01*
X132731615Y-76583221D01*
X132694015Y-76539198D01*
X132680500Y-76482903D01*
X132680500Y-75800557D01*
X132692579Y-75747174D01*
X132726464Y-75704191D01*
X132775553Y-75679983D01*
X132830281Y-75679267D01*
X132855474Y-75684622D01*
G37*
%TD.AperFunction*%
%TA.AperFunction,NonConductor*%
G36*
X135710936Y-74971370D02*
G01*
X135840697Y-75029144D01*
X135840700Y-75029144D01*
X135840701Y-75029145D01*
X136025852Y-75068500D01*
X136095500Y-75068500D01*
X136157500Y-75085113D01*
X136202887Y-75130500D01*
X136219500Y-75192500D01*
X136219500Y-78253500D01*
X136202887Y-78315500D01*
X136157500Y-78360887D01*
X136095500Y-78377500D01*
X135624229Y-78377500D01*
X135576776Y-78368061D01*
X135536548Y-78341181D01*
X135412367Y-78217000D01*
X135278771Y-78083403D01*
X135248521Y-78034040D01*
X135193179Y-77863715D01*
X135098533Y-77699783D01*
X134971870Y-77559110D01*
X134818730Y-77447848D01*
X134645802Y-77370855D01*
X134456637Y-77330647D01*
X134397534Y-77299749D01*
X134362986Y-77242703D01*
X134362986Y-77176010D01*
X134397535Y-77118964D01*
X134456633Y-77088068D01*
X134583303Y-77061144D01*
X134756230Y-76984151D01*
X134830214Y-76930399D01*
X134909370Y-76872889D01*
X134929980Y-76850000D01*
X135036033Y-76732216D01*
X135130679Y-76568284D01*
X135189174Y-76388256D01*
X135208960Y-76200000D01*
X135208959Y-76199998D01*
X135210322Y-76187038D01*
X135212245Y-76187240D01*
X135216225Y-76153593D01*
X135245432Y-76107301D01*
X135327043Y-76025690D01*
X135339223Y-76015009D01*
X135364282Y-75995782D01*
X135460536Y-75870341D01*
X135521044Y-75724262D01*
X135536500Y-75606861D01*
X135541682Y-75567500D01*
X135537560Y-75536197D01*
X135536500Y-75520013D01*
X135536500Y-75084650D01*
X135551527Y-75025482D01*
X135592965Y-74980655D01*
X135650771Y-74961032D01*
X135710936Y-74971370D01*
G37*
%TD.AperFunction*%
%TA.AperFunction,NonConductor*%
G36*
X138176818Y-75799166D02*
G01*
X138226181Y-75829416D01*
X138555181Y-76158416D01*
X138582061Y-76198644D01*
X138591500Y-76246097D01*
X138591500Y-78253501D01*
X138574887Y-78315501D01*
X138529500Y-78360888D01*
X138467500Y-78377501D01*
X138138500Y-78377501D01*
X138076500Y-78360888D01*
X138031113Y-78315501D01*
X138014500Y-78253501D01*
X138014500Y-75917097D01*
X138028015Y-75860802D01*
X138065615Y-75816779D01*
X138119102Y-75794624D01*
X138176818Y-75799166D01*
G37*
%TD.AperFunction*%
%TA.AperFunction,NonConductor*%
G36*
X130882093Y-78300268D02*
G01*
X130919903Y-78344342D01*
X130933500Y-78400798D01*
X130933500Y-79006145D01*
X130914733Y-79071735D01*
X130864112Y-79117471D01*
X130796961Y-79129509D01*
X130733605Y-79104206D01*
X130706842Y-79067765D01*
X130703556Y-79069814D01*
X130589254Y-78886431D01*
X130535735Y-78830130D01*
X130449059Y-78738947D01*
X130282049Y-78622705D01*
X130142803Y-78562949D01*
X130090652Y-78520864D01*
X130068016Y-78457788D01*
X130081506Y-78392145D01*
X130127182Y-78343108D01*
X130191704Y-78324999D01*
X130572979Y-78324999D01*
X130675695Y-78314506D01*
X130770496Y-78283092D01*
X130828363Y-78278241D01*
X130882093Y-78300268D01*
G37*
%TD.AperFunction*%
M02*
