%TF.GenerationSoftware,KiCad,Pcbnew,7.0.1*%
%TF.CreationDate,2023-11-12T22:26:15+01:00*%
%TF.ProjectId,pcbIOT,70636249-4f54-42e6-9b69-6361645f7063,rev?*%
%TF.SameCoordinates,Original*%
%TF.FileFunction,Soldermask,Top*%
%TF.FilePolarity,Negative*%
%FSLAX46Y46*%
G04 Gerber Fmt 4.6, Leading zero omitted, Abs format (unit mm)*
G04 Created by KiCad (PCBNEW 7.0.1) date 2023-11-12 22:26:15*
%MOMM*%
%LPD*%
G01*
G04 APERTURE LIST*
G04 Aperture macros list*
%AMRoundRect*
0 Rectangle with rounded corners*
0 $1 Rounding radius*
0 $2 $3 $4 $5 $6 $7 $8 $9 X,Y pos of 4 corners*
0 Add a 4 corners polygon primitive as box body*
4,1,4,$2,$3,$4,$5,$6,$7,$8,$9,$2,$3,0*
0 Add four circle primitives for the rounded corners*
1,1,$1+$1,$2,$3*
1,1,$1+$1,$4,$5*
1,1,$1+$1,$6,$7*
1,1,$1+$1,$8,$9*
0 Add four rect primitives between the rounded corners*
20,1,$1+$1,$2,$3,$4,$5,0*
20,1,$1+$1,$4,$5,$6,$7,0*
20,1,$1+$1,$6,$7,$8,$9,0*
20,1,$1+$1,$8,$9,$2,$3,0*%
G04 Aperture macros list end*
%ADD10C,0.010000*%
%ADD11RoundRect,0.250000X0.475000X-0.337500X0.475000X0.337500X-0.475000X0.337500X-0.475000X-0.337500X0*%
%ADD12RoundRect,0.250000X-0.337500X-0.475000X0.337500X-0.475000X0.337500X0.475000X-0.337500X0.475000X0*%
%ADD13R,0.850000X0.200000*%
%ADD14R,0.200000X0.850000*%
%ADD15R,4.700000X4.700000*%
%ADD16RoundRect,0.250000X-0.325000X-0.450000X0.325000X-0.450000X0.325000X0.450000X-0.325000X0.450000X0*%
%ADD17RoundRect,0.250000X0.337500X0.475000X-0.337500X0.475000X-0.337500X-0.475000X0.337500X-0.475000X0*%
%ADD18R,1.700000X1.700000*%
%ADD19O,1.700000X1.700000*%
%ADD20R,1.400000X0.450000*%
%ADD21R,1.450000X1.750000*%
%ADD22RoundRect,0.250000X0.350000X0.625000X-0.350000X0.625000X-0.350000X-0.625000X0.350000X-0.625000X0*%
%ADD23O,1.200000X1.750000*%
%ADD24R,1.000000X0.675000*%
%ADD25RoundRect,0.250000X0.350000X0.450000X-0.350000X0.450000X-0.350000X-0.450000X0.350000X-0.450000X0*%
%ADD26R,2.790000X0.740000*%
%ADD27R,0.800000X0.900000*%
%ADD28R,1.600000X0.550000*%
%ADD29RoundRect,0.250000X-0.475000X0.337500X-0.475000X-0.337500X0.475000X-0.337500X0.475000X0.337500X0*%
%ADD30RoundRect,0.237500X-0.287500X-0.237500X0.287500X-0.237500X0.287500X0.237500X-0.287500X0.237500X0*%
%ADD31R,1.800000X1.000000*%
G04 APERTURE END LIST*
%TO.C,J6*%
D10*
X148672470Y-71506550D02*
X147870000Y-71506550D01*
X147870000Y-70754000D01*
X148672470Y-70754000D01*
X148672470Y-71506550D01*
G36*
X148672470Y-71506550D02*
G01*
X147870000Y-71506550D01*
X147870000Y-70754000D01*
X148672470Y-70754000D01*
X148672470Y-71506550D01*
G37*
X148772500Y-70354431D02*
X148190000Y-70354431D01*
X148190000Y-69854000D01*
X148772500Y-69854000D01*
X148772500Y-70354431D01*
G36*
X148772500Y-70354431D02*
G01*
X148190000Y-70354431D01*
X148190000Y-69854000D01*
X148772500Y-69854000D01*
X148772500Y-70354431D01*
G37*
X148672070Y-69453000D02*
X147870000Y-69453000D01*
X147870000Y-68704000D01*
X148672070Y-68704000D01*
X148672070Y-69453000D01*
G36*
X148672070Y-69453000D02*
G01*
X147870000Y-69453000D01*
X147870000Y-68704000D01*
X148672070Y-68704000D01*
X148672070Y-69453000D01*
G37*
X146769097Y-69452933D02*
X145970000Y-69452933D01*
X145970000Y-68704000D01*
X146769097Y-68704000D01*
X146769097Y-69452933D01*
G36*
X146769097Y-69452933D02*
G01*
X145970000Y-69452933D01*
X145970000Y-68704000D01*
X146769097Y-68704000D01*
X146769097Y-69452933D01*
G37*
X146447758Y-70354644D02*
X145870000Y-70354644D01*
X145870000Y-69854000D01*
X146447758Y-69854000D01*
X146447758Y-70354644D01*
G36*
X146447758Y-70354644D02*
G01*
X145870000Y-70354644D01*
X145870000Y-69854000D01*
X146447758Y-69854000D01*
X146447758Y-70354644D01*
G37*
X146768717Y-71507270D02*
X145970000Y-71507270D01*
X145970000Y-70754000D01*
X146768717Y-70754000D01*
X146768717Y-71507270D01*
G36*
X146768717Y-71507270D02*
G01*
X145970000Y-71507270D01*
X145970000Y-70754000D01*
X146768717Y-70754000D01*
X146768717Y-71507270D01*
G37*
%TD*%
D11*
%TO.C,C16*%
X151130000Y-70125500D03*
X151130000Y-68050500D03*
%TD*%
D12*
%TO.C,C8*%
X141964500Y-61722000D03*
X144039500Y-61722000D03*
%TD*%
D13*
%TO.C,IC1*%
X131670000Y-67650000D03*
X131670000Y-68050000D03*
X131670000Y-68450000D03*
X131670000Y-68850000D03*
X131670000Y-69250000D03*
X131670000Y-69650000D03*
X131670000Y-70050000D03*
X131670000Y-70450000D03*
X131670000Y-70850000D03*
X131670000Y-71250000D03*
X131670000Y-71650000D03*
X131670000Y-72050000D03*
D14*
X132420000Y-72800000D03*
X132820000Y-72800000D03*
X133220000Y-72800000D03*
X133620000Y-72800000D03*
X134020000Y-72800000D03*
X134420000Y-72800000D03*
X134820000Y-72800000D03*
X135220000Y-72800000D03*
X135620000Y-72800000D03*
X136020000Y-72800000D03*
X136420000Y-72800000D03*
X136820000Y-72800000D03*
D13*
X137570000Y-72050000D03*
X137570000Y-71650000D03*
X137570000Y-71250000D03*
X137570000Y-70850000D03*
X137570000Y-70450000D03*
X137570000Y-70050000D03*
X137570000Y-69650000D03*
X137570000Y-69250000D03*
X137570000Y-68850000D03*
X137570000Y-68450000D03*
X137570000Y-68050000D03*
X137570000Y-67650000D03*
D14*
X136820000Y-66900000D03*
X136420000Y-66900000D03*
X136020000Y-66900000D03*
X135620000Y-66900000D03*
X135220000Y-66900000D03*
X134820000Y-66900000D03*
X134420000Y-66900000D03*
X134020000Y-66900000D03*
X133620000Y-66900000D03*
X133220000Y-66900000D03*
X132820000Y-66900000D03*
X132420000Y-66900000D03*
D15*
X134620000Y-69850000D03*
%TD*%
D16*
%TO.C,L4*%
X141469000Y-70104000D03*
X143519000Y-70104000D03*
%TD*%
D11*
%TO.C,C6*%
X137668000Y-65045500D03*
X137668000Y-62970500D03*
%TD*%
D17*
%TO.C,C1*%
X128037500Y-79248000D03*
X125962500Y-79248000D03*
%TD*%
D12*
%TO.C,C2*%
X121898500Y-73152000D03*
X123973500Y-73152000D03*
%TD*%
D18*
%TO.C,J5*%
X123698000Y-60960000D03*
D19*
X121158000Y-60960000D03*
X118618000Y-60960000D03*
X116078000Y-60960000D03*
X113538000Y-60960000D03*
X110998000Y-60960000D03*
%TD*%
D20*
%TO.C,IC2*%
X122260000Y-75225000D03*
X122260000Y-75875000D03*
X122260000Y-76525000D03*
X122260000Y-77175000D03*
X126660000Y-77175000D03*
X126660000Y-76525000D03*
X126660000Y-75875000D03*
X126660000Y-75225000D03*
D21*
X124460000Y-76200000D03*
%TD*%
D22*
%TO.C,J1*%
X127746000Y-86402000D03*
D23*
X125746000Y-86402000D03*
%TD*%
D24*
%TO.C,L3*%
X130302000Y-59636000D03*
X130302000Y-60960000D03*
%TD*%
D11*
%TO.C,C13*%
X138684000Y-61003000D03*
X138684000Y-58928000D03*
%TD*%
D25*
%TO.C,R3*%
X141970000Y-56896000D03*
X139970000Y-56896000D03*
%TD*%
D11*
%TO.C,C7*%
X132334000Y-61235500D03*
X132334000Y-59160500D03*
%TD*%
D17*
%TO.C,C15*%
X124460000Y-67818000D03*
X122385000Y-67818000D03*
%TD*%
D18*
%TO.C,J4*%
X115062000Y-69088000D03*
D19*
X115062000Y-71628000D03*
X115062000Y-74168000D03*
X115062000Y-76708000D03*
X115062000Y-79248000D03*
X115062000Y-81788000D03*
%TD*%
D26*
%TO.C,Debug_in1*%
X135122000Y-79248000D03*
X139192000Y-79248000D03*
X135122000Y-80518000D03*
X139192000Y-80518000D03*
X135122000Y-81788000D03*
X139192000Y-81788000D03*
X135122000Y-83058000D03*
X139192000Y-83058000D03*
X135122000Y-84328000D03*
X139192000Y-84328000D03*
%TD*%
D27*
%TO.C,X1*%
X140928000Y-64640000D03*
X140928000Y-66040000D03*
X142028000Y-66040000D03*
X142028000Y-64640000D03*
%TD*%
D25*
%TO.C,R1*%
X123936000Y-79248000D03*
X121936000Y-79248000D03*
%TD*%
D12*
%TO.C,C9*%
X141710500Y-59436000D03*
X143785500Y-59436000D03*
%TD*%
D28*
%TO.C,L1*%
X119888000Y-74750000D03*
X119888000Y-76200000D03*
%TD*%
D11*
%TO.C,C12*%
X134620000Y-61362500D03*
X134620000Y-59287500D03*
%TD*%
D29*
%TO.C,C10*%
X144526000Y-64240500D03*
X144526000Y-66315500D03*
%TD*%
%TO.C,C11*%
X139446000Y-70082500D03*
X139446000Y-72157500D03*
%TD*%
%TO.C,C4*%
X130048000Y-75162500D03*
X130048000Y-77237500D03*
%TD*%
D30*
%TO.C,L2*%
X131600000Y-63500000D03*
X133350000Y-63500000D03*
%TD*%
D31*
%TO.C,X2*%
X127508000Y-69616000D03*
X127508000Y-72116000D03*
%TD*%
D25*
%TO.C,R2*%
X141970000Y-54864000D03*
X139970000Y-54864000D03*
%TD*%
%TO.C,R4*%
X119872000Y-78994000D03*
X117872000Y-78994000D03*
%TD*%
D18*
%TO.C,J2*%
X110719000Y-87107000D03*
D19*
X110719000Y-84567000D03*
X110719000Y-82027000D03*
X110719000Y-79487000D03*
X110719000Y-76947000D03*
X110719000Y-74407000D03*
X110719000Y-71867000D03*
X110719000Y-69327000D03*
%TD*%
D12*
%TO.C,C3*%
X127219500Y-66802000D03*
X129294500Y-66802000D03*
%TD*%
D17*
%TO.C,C5*%
X129307500Y-64516000D03*
X127232500Y-64516000D03*
%TD*%
D18*
%TO.C,J3*%
X116078000Y-65278000D03*
D19*
X113538000Y-65278000D03*
X110998000Y-65278000D03*
%TD*%
D17*
%TO.C,C14*%
X124460000Y-70104000D03*
X122385000Y-70104000D03*
%TD*%
M02*
